<svg xmlns="http://www.w3.org/2000/svg" xmlns:xlink="http://www.w3.org/1999/xlink" width="288.9" height="101.6" viewBox="0 0 288.9 101.6"><defs><clipPath id="clip-path"><rect id="Rectangle_5" width="288.9" height="101.6" data-name="Rectangle 5" transform="translate(9.7 49.8)"/></clipPath></defs><g id="cvlogo" transform="translate(-9.7 -49.8)"><path id="Subtraction_3" fill="#42b883" d="M-259.436-736.346c-.622,0-1.249-.018-1.865-.054a1.507,1.507,0,0,1-.134-.888,2.175,2.175,0,0,0-.066-.812h-6.9a3.728,3.728,0,0,1-2.429,1.206,2.184,2.184,0,0,1-1.57-.706,2.832,2.832,0,0,1-.2-3.4,2.166,2.166,0,0,1,1.725-.826A3.772,3.772,0,0,1-268.7-741h7.2a6.075,6.075,0,0,0,0-1.9h-3.7a3.532,3.532,0,0,1-1.7-.4c-1.368-.821-2.83-1.615-4.6-2.5a4.28,4.28,0,0,0-2.2-.6c-.449.03-.929.044-1.47.044-.486,0-.969-.011-1.437-.022s-.927-.022-1.392-.022a4.174,4.174,0,0,1-2.517,1.146A2.089,2.089,0,0,1-282.1-746a2.35,2.35,0,0,1,0-3.3,2.224,2.224,0,0,1,1.659-.841A4.039,4.039,0,0,1-278.1-749.1h5.2a3.528,3.528,0,0,1,1.7.4c.437.255.909.5,1.366.739A18.7,18.7,0,0,1-267.5-746.6a6.032,6.032,0,0,0,3.453,1.019c.178,0,.363-.006.548-.019a4.705,4.705,0,0,1,.678-.044c.211,0,.421.01.643.021.247.012.5.024.779.024v-3.2H-265a3.92,3.92,0,0,1-2.2.926,2.6,2.6,0,0,1-1.9-1.026c-1.147-1.251-.416-2.485.4-3.3a1.749,1.749,0,0,1,1.093-.387A4.169,4.169,0,0,1-265-751.2h3.4V-754a1.178,1.178,0,0,0-.55-.125c-.084,0-.167.006-.255.012s-.193.013-.295.013h-18.9a2.6,2.6,0,0,1-2.3-1.1c-.531-.707-1.144-1.421-1.686-2.051l-.214-.249c-2.3-.2-3-.88-2.9-2.8a2.319,2.319,0,0,1,2.6-2.1c1.521,0,2.2,1.018,2.2,3.3.188.219.371.442.565.679.42.511.853,1.04,1.335,1.522h20.6a17.024,17.024,0,0,0,0-3.2h-15a4.077,4.077,0,0,1-2.459,1.147,2.049,2.049,0,0,1-1.541-.747,2.307,2.307,0,0,1,0-3.4,2.145,2.145,0,0,1,1.572-.831,3.613,3.613,0,0,1,2.228,1.13h15.1v-3.1H-287c-.483.537-1,1.081-1.552,1.657-.49.514-.994,1.042-1.549,1.643a2.593,2.593,0,0,1-2.448,2.325,2.492,2.492,0,0,1-.352-.025,2.617,2.617,0,0,1-2-3.1c.182-1.184,1.151-1.863,2.66-1.863a5.966,5.966,0,0,1,.84.063c.546-.638,1.372-1.573,2.2-2.4a2.966,2.966,0,0,1,2.4-1h25.3V-772h-30.4a3.793,3.793,0,0,1-2.3,1.063,2.109,2.109,0,0,1-1.7-.963,2.626,2.626,0,0,1,.3-3.5,2.316,2.316,0,0,1,1.483-.6,3.57,3.57,0,0,1,2.518,1.5h9.9l-.314-.3c-1.731-1.635-3.52-3.325-5.687-5.3a2.337,2.337,0,0,1-2.4-2.5c0-1.59.679-2.3,2.2-2.3,2.047,0,2.6.658,2.7,3.2.768.736,1.523,1.451,2.323,2.207,1.676,1.586,3.406,3.222,5.177,4.993h16.2v-2.3h-7.1a3.955,3.955,0,0,1-2.181.813,2.307,2.307,0,0,1-1.819-.913,2.5,2.5,0,0,1,.4-3.4,1.965,1.965,0,0,1,1.353-.517A3.953,3.953,0,0,1-268.3-779.6h6.8v-2.6c-.7,0-1.4-.011-2.076-.022h-.02c-.665-.011-1.352-.022-2.03-.022-.768,0-1.446.015-2.074.044-.12.01-.239.015-.354.015A3.809,3.809,0,0,1-270.7-783.3c-.612-.516-1.235-1.042-1.858-1.568l-.036-.031-.024-.02c-1.269-1.072-2.581-2.18-3.782-3.182h-11.1a3.821,3.821,0,0,1-2.225.9,2.258,2.258,0,0,1-1.775-.9,2.4,2.4,0,0,1,.3-3.4,2.169,2.169,0,0,1,1.467-.691A4.194,4.194,0,0,1-287.2-790.8h9.7a4.947,4.947,0,0,1,3.6,1.4c1.155,1.087,2.46,2.137,3.722,3.152l.005,0c.588.474,1.2.963,1.773,1.443h6.8v-3.3h0c-.427,0-.873-.011-1.3-.022h-.009c-.446-.011-.907-.022-1.359-.022-.5,0-.938.015-1.326.044-.121.01-.242.015-.358.015A4.135,4.135,0,0,1-268.6-789.1c-.3-.248-.626-.5-.943-.744s-.656-.5-.957-.756c-2.475-.2-3.4-.9-3.3-2.5a2.4,2.4,0,0,1,2.4-2.3c1.538,0,2.4.934,2.5,2.7.4.3.8.629,1.2.947l.005.006h0c.392.319.8.649,1.2.948h4.9v-3.9h-1.7a4.179,4.179,0,0,1-2.368,1.115,2.126,2.126,0,0,1-1.632-.916,2.47,2.47,0,0,1,.1-3.4,2.159,2.159,0,0,1,1.548-.664A3.433,3.433,0,0,1-263.3-797.4h1.6a1.591,1.591,0,0,0,.133-1.071,3.816,3.816,0,0,1-.033-.429v-1.6c-.278.026-.573.039-.9.039-.368,0-.742-.015-1.1-.03h-.022c-.368-.016-.749-.032-1.126-.032a6.063,6.063,0,0,0-3.147.725,33.117,33.117,0,0,1-3.45,1.8l-.009,0c-.476.225-.968.458-1.442.694a2.739,2.739,0,0,1-1.3.2h-6.7a3.393,3.393,0,0,1-2.153,1.016A2.42,2.42,0,0,1-284.8-797.1a2.239,2.239,0,0,1-.56-1.687,2.618,2.618,0,0,1,.96-1.813,2.274,2.274,0,0,1,1.464-.611A3.312,3.312,0,0,1-280.6-799.8h6.5a1.908,1.908,0,0,0,.691-.164A3.688,3.688,0,0,1-273-800.1c.407-.2.813-.4,1.206-.586A31.183,31.183,0,0,0-268.9-802.2a7.905,7.905,0,0,1,4.186-1.119c.2,0,.406.006.613.018a6.389,6.389,0,0,0,.8.044c.264,0,.526-.01.8-.021h.007c.285-.011.58-.023.885-.023a6.634,6.634,0,0,0,.113-1.828c-.006-.217-.013-.441-.013-.672h-6.3a4.5,4.5,0,0,1-2.371,1.026,2.111,2.111,0,0,1-1.628-.926,2.57,2.57,0,0,1,.2-3.4,2.212,2.212,0,0,1,1.508-.632A3.846,3.846,0,0,1-267.7-808.6h6.2c0-.278.022-.558.045-.855.027-.352.055-.716.055-1.145h.39c12.982,0,23.18,5.081,30.31,15.1a37.827,37.827,0,0,1,7.45,19.975c.375,6.817-1.358,13.79-5.15,20.725a35.255,35.255,0,0,1-13.717,13.851A35.519,35.519,0,0,1-259.436-736.346ZM-258.3-753.6v13.8a5,5,0,0,0,.837.067,10.737,10.737,0,0,0,1.519-.141c.337-.047.682-.1,1.043-.126a46.344,46.344,0,0,0,7.4-13.6Zm14.4,0h0a59.069,59.069,0,0,1-5.7,12.2,32.115,32.115,0,0,0,16.4-12.2Zm3.2-17.9a63.294,63.294,0,0,1-2.1,14.4H-231a34.687,34.687,0,0,0,4-14.4h-13.7Zm-17.6,0v14.3h12a56.153,56.153,0,0,0,2.1-14.3Zm.1-17.9V-775h14.1a57.916,57.916,0,0,0-2.2-14.4Zm15.3-.1h0a66.084,66.084,0,0,1,2.2,14.4H-227a33.779,33.779,0,0,0-4.1-14.4Zm-6.8-15.6h0a61.9,61.9,0,0,1,5.8,12.2h10.7a32.838,32.838,0,0,0-16.5-12.2Zm-8.5-1.8c0,4.834,0,9.4.1,13.9h10.7a.366.366,0,0,1-.1-.3,50.125,50.125,0,0,0-6.9-12.7c-.039-.039-.077-.081-.117-.125a.858.858,0,0,0-.583-.375,29.352,29.352,0,0,0-3.1-.4Z" data-name="Subtraction 3" transform="translate(329 863)"/><g id="Group_7" clip-path="url(#clip-path)" data-name="Group 7"><path id="Path_13" fill="#42b883" d="M134.7,86.1h-5.3a1.854,1.854,0,0,1-.2-.7,3.509,3.509,0,0,0-3-2.7,3.906,3.906,0,0,0-3.9,1.5,9.013,9.013,0,0,0-1.2,6.6,6.931,6.931,0,0,0,.9,3.1,3.844,3.844,0,0,0,7.1-.8c.1-.2.1-.5.2-.7a.1.1,0,0,1,.1-.1h5.1a7.049,7.049,0,0,1-4.7,6.7,12.661,12.661,0,0,1-7.2.6c-4.3-1-6.9-4.4-7.2-9a12.923,12.923,0,0,1,1.2-6.7A9.814,9.814,0,0,1,127,79c2.7.4,5.1,1.3,6.6,3.8A8.044,8.044,0,0,1,134.7,86.1Z" data-name="Path 13"/></g><g id="Group_8" clip-path="url(#clip-path)" data-name="Group 8"><path id="Path_14" fill="#42b883" d="M227.6,99.5h-6.5c-2.4-6.7-4.9-13.4-7.3-20.2h5.8c1.6,5.2,3.2,10.5,4.9,16.1,1.7-5.5,3.3-10.8,4.9-16.1H235C232.5,86,230.1,92.7,227.6,99.5Z" data-name="Path 14"/></g><path id="Subtraction_1" fill="#42b883" d="M-87.046-762.961c-.288,0-.575-.013-.854-.04a7.589,7.589,0,0,1-5.9-3.075A9.135,9.135,0,0,1-95.2-772a8.181,8.181,0,0,1,2.776-5.719,8.385,8.385,0,0,1,5.408-1.87,9.761,9.761,0,0,1,1.316.09,7.454,7.454,0,0,1,5.332,3.025,7.631,7.631,0,0,1,1.3,2.984A8.523,8.523,0,0,1-79.1-770H-89.9a3.046,3.046,0,0,0,1.9,3.3,3.959,3.959,0,0,0,.964.13A2.954,2.954,0,0,0-84.4-768.5h5a5.176,5.176,0,0,1-2.367,3.89A9.2,9.2,0,0,1-87.046-762.961ZM-87.2-776c-1.415,0-2.3.923-2.5,2.6h5.1C-84.892-775.246-85.645-776-87.2-776Z" data-name="Subtraction 1" transform="translate(329 863)"/><path id="Subtraction_2" fill="#42b883" d="M-41.379-763.053c-.338,0-.682-.016-1.021-.047a7.83,7.83,0,0,1-5.533-2.932A9.06,9.06,0,0,1-49.3-773.1a7.53,7.53,0,0,1,2.831-4.737,8.832,8.832,0,0,1,5.409-1.77A10.532,10.532,0,0,1-39-779.4a6.989,6.989,0,0,1,4.477,3.18A7.9,7.9,0,0,1-33.4-770.1H-44.2c0,1.753.748,2.987,2,3.3a3.959,3.959,0,0,0,.963.13A2.954,2.954,0,0,0-38.6-768.6h5a5.8,5.8,0,0,1-2.574,4.052A9.224,9.224,0,0,1-41.379-763.053Zm.12-12.955c-.077,0-.159,0-.241.008-1.387,0-2.3.984-2.5,2.7h5.1C-39.181-775.172-39.908-776.008-41.259-776.008Z" data-name="Subtraction 2" transform="translate(329 863)"/><g id="Group_11" clip-path="url(#clip-path)" data-name="Group 11"><path id="Path_17" fill="#42b882" d="M190.7,99.4h-5.2V97.2c-.4,0-.4.3-.5.4-1.4,2.1-3.6,2.8-6.3,2.1a4.673,4.673,0,0,1-3.8-4.8c-.1-3.1,0-6.2,0-9.3V83.8h5.2c.2.3.1.6.1,1v7.4a14.92,14.92,0,0,0,.2,2.1,2.23,2.23,0,0,0,1.8,2,2.377,2.377,0,0,0,2.8-1.2,4.645,4.645,0,0,0,.6-2.3V83.9h5.2C190.7,89,190.7,94.2,190.7,99.4Z" data-name="Path 17"/></g><g id="Group_12" clip-path="url(#clip-path)" data-name="Group 12"><path id="Path_18" fill="#42b883" d="M277.9,88.3h-5.1a5.3,5.3,0,0,0-.6-1,1.5,1.5,0,0,0-1.5-.6.987.987,0,0,0-.9,1c-.1.6.3,1,.8,1.3a12.129,12.129,0,0,0,3.2,1.1,8.265,8.265,0,0,1,2.2.8,4.58,4.58,0,0,1,.1,8,10.2,10.2,0,0,1-9.6-.1,4.764,4.764,0,0,1-2.6-4.1h5.2c.4.9.9,1.7,1.9,1.9a1.774,1.774,0,0,0,2.1-.9c.2-.9-.4-1.4-1.1-1.7-1.5-.5-3-.9-4.5-1.4a4.333,4.333,0,0,1-2.8-5.5,4.464,4.464,0,0,1,2.4-2.8,9.517,9.517,0,0,1,7.4-.4A5.287,5.287,0,0,1,277.9,88.3Z" data-name="Path 18"/></g><g id="Group_13" clip-path="url(#clip-path)" data-name="Group 13"><path id="Path_19" fill="#42b883" d="M172.9,89.7h-5l-.3-.9a2.439,2.439,0,0,0-2.3-1.9,2.257,2.257,0,0,0-2.4,1.8,8.869,8.869,0,0,0,0,5.8,2.178,2.178,0,0,0,2.4,1.7,2.426,2.426,0,0,0,2.3-1.7,6.89,6.89,0,0,0,.3-.8H173a6.648,6.648,0,0,1-3.8,5.3,9.688,9.688,0,0,1-7.1.4,7.336,7.336,0,0,1-5-6.3c-.3-2.9.2-5.6,2.4-7.8,3.5-3.2,10-2.6,12.4,1.2A7.078,7.078,0,0,1,172.9,89.7Z" data-name="Path 19"/></g><g id="Group_14" clip-path="url(#clip-path)" data-name="Group 14"><path id="Path_20" fill="#42b882" d="M212.4,83.9v3.3h-3.3a6.473,6.473,0,0,0-.1,2.4V94c0,1.9.4,2.3,2.3,2.4a1.7,1.7,0,0,1,.7.1v3.2a11.873,11.873,0,0,1-6.2-.2c-1.6-.5-2.1-1.8-2.1-3.4-.1-2.6,0-5.1,0-7.7V87.2h-2.4V84c.7-.3,1.5,0,2.4-.2V79.9H209v3.9C210.1,83.9,211.2,83.9,212.4,83.9Z" data-name="Path 20"/></g><g id="Group_15" clip-path="url(#clip-path)" data-name="Group 15"><path id="Path_21" fill="#42b883" d="M145.5,99.4V83.8h5.2v2.6c1.1-2.2,2.8-3.4,5.4-3v4.3a2.462,2.462,0,0,1-1.2.1c-2.4.1-3.5,1.2-3.9,3.5-.4,2-.1,4.1-.2,6.1v2.1C149,99.4,147.3,99.4,145.5,99.4Z" data-name="Path 21"/></g><g id="Group_16" clip-path="url(#clip-path)" data-name="Group 16"><path id="Path_22" fill="#42b883" d="M257.9,99.5h-5.3V83.8h5.2c.3.8,0,1.8.2,2.8.7-1,.9-2.1,2-2.7a4.676,4.676,0,0,1,3.3-.5v4.2c-.4.3-.8.1-1.2.2a3.725,3.725,0,0,0-4,3.5,54.292,54.292,0,0,0-.2,5.7C257.9,97.8,257.9,98.6,257.9,99.5Z" data-name="Path 22"/></g><g id="Group_17" clip-path="url(#clip-path)" data-name="Group 17"><path id="Path_23" fill="#42b882" d="M142.3,99.5h-5.2V83.9h5.2Z" data-name="Path 23"/></g><g id="Group_18" clip-path="url(#clip-path)" data-name="Group 18"><path id="Path_24" fill="#42b882" d="M194.3,83.8h5.2V99.5h-5.2Z" data-name="Path 24"/></g><g id="Group_19" clip-path="url(#clip-path)" data-name="Group 19"><path id="Path_25" fill="#42b883" d="M139.6,82.5a2.558,2.558,0,1,1,2.8-2.5A2.494,2.494,0,0,1,139.6,82.5Z" data-name="Path 25"/></g><g id="Group_20" clip-path="url(#clip-path)" data-name="Group 20"><path id="Path_26" fill="#42b883" d="M196.8,77.4a2.445,2.445,0,0,1,2.7,2.6,2.472,2.472,0,0,1-2.7,2.5,2.561,2.561,0,1,1,0-5.1Z" data-name="Path 26"/></g></g></svg>