<svg version="1.1" id="Layer_1" xmlns="http://www.w3.org/2000/svg" x="0" y="0" viewBox="0 0 639.2 103.2" xml:space="preserve"><style>.st0{fill:#fff;stroke:#fff;stroke-miterlimit:10}</style><path class="st0" d="M390.3 7.5c-1.8 0-3.3-1.5-3.3-3.3s1.5-3.3 3.3-3.3 3.3 1.5 3.3 3.3c0 1.8-1.5 3.3-3.3 3.3zM334 7.5c-1.8 0-3.3-1.5-3.3-3.3S332.2.9 334 .9s3.3 1.5 3.3 3.3c0 1.8-1.5 3.3-3.3 3.3z"/><circle class="st0" cx="371.5" cy="79.3" r="3.3"/><path class="st0" d="M378.6 70.4c.5 0 1 .2 1.3.5.7.7.7 1.9 0 2.7-.7.7-1.9.7-2.7 0-.7-.7-.7-1.9 0-2.7.4-.3.9-.5 1.4-.5zm0-1.4c-1.8 0-3.3 1.4-3.3 3.2 0 1.8 1.4 3.3 3.2 3.3 1.8 0 3.3-1.4 3.3-3.2 0-.9-.3-1.7-.9-2.3-.6-.7-1.4-1-2.3-1z"/><path class="st0" d="M380.9 71.9l-2-2 10-9.9V2.8h2.8v58.3zM373 80.7h-20.8l-19.6-19.6V2.8h2.8V60l17.9 17.9H373zM548.6 30.9c-1.2 0-2.3-1-2.3-2.3 0-1.2 1-2.3 2.3-2.3 1.2 0 2.3 1 2.3 2.3 0 1.3-1 2.3-2.3 2.3zM510 82.4c-1.2 0-2.3-1-2.3-2.3s1-2.3 2.3-2.3c1.2 0 2.3 1 2.3 2.3 0 1.3-1 2.3-2.3 2.3zM548.6 63.1c-1.2 0-2.3-1-2.3-2.3s1-2.3 2.3-2.3 2.3 1 2.3 2.3c0 1.3-1 2.3-2.3 2.3zM545.1 52.5c1.1 0 1.9.9 1.9 1.9 0 1.1-.9 1.9-1.9 1.9-1.1 0-1.9-.9-1.9-1.9-.1-1 .8-1.9 1.9-1.9zm0-1c-1.6 0-2.9 1.3-2.9 2.9 0 1.6 1.3 2.9 2.9 2.9 1.6 0 2.9-1.3 2.9-2.9 0-1.6-1.3-2.9-2.9-2.9z"/><path class="st0" d="M549.6 81.1h-40.5v-2h38.5V59.9h2zM543.1 55.4h-20.6l-13.4-13.5V27.7h40.5v2H511v11.5l12.3 12.2h19.8zM456.6 82.1c-1.2 0-2.3-1-2.3-2.3 0-1.2 1-2.3 2.3-2.3 1.2 0 2.3 1 2.3 2.3 0 1.3-1 2.3-2.3 2.3zM495.2 82.1c-1.2 0-2.3-1-2.3-2.3 0-1.2 1-2.3 2.3-2.3 1.2 0 2.3 1 2.3 2.3 0 1.3-1 2.3-2.3 2.3z"/><circle transform="rotate(-22.661 456.59 28.34)" class="st0" cx="456.6" cy="28.3" r="2.3"/><path class="st0" d="M463.1 30.6c-1.2 0-2.3-1-2.3-2.3 0-1.2 1-2.3 2.3-2.3 1.2 0 2.3 1 2.3 2.3-.1 1.3-1.1 2.3-2.3 2.3zM488.8 56.4c-1.2 0-2.3-1-2.3-2.2s1-2.3 2.2-2.3 2.3 1 2.3 2.2c0 1.2-1 2.3-2.2 2.3zM466.6 52.2c1.1 0 1.9.9 1.9 1.9 0 1.1-.9 1.9-1.9 1.9s-1.9-.9-1.9-1.9c0-1.1.8-1.9 1.9-1.9zm0-1c-1.6 0-2.9 1.3-2.9 2.9 0 1.6 1.3 2.9 2.9 2.9s2.9-1.3 2.9-2.9c0-1.6-1.3-2.9-2.9-2.9z"/><path class="st0" d="M496.2 55.1h-8.4v-2h6.4V41.6L482 29.4h-19.9v-2h20.7l13.4 13.4zM455.7 27.4h1.9v53.4h-1.9zM494.2 80.8V67.4L482 55.1h-13.5v-2h14.2l13.5 13.5v14.2zM444.2 81.1c-1.2 0-2.3-1-2.3-2.3 0-1.2 1-2.3 2.3-2.3 1.2 0 2.3 1 2.3 2.3 0 1.3-1 2.3-2.3 2.3zM405.7 33.9c-1.2 0-2.3-1-2.3-2.3 0-1.2 1-2.3 2.3-2.3 1.2 0 2.3 1 2.3 2.3-.1 1.3-1.1 2.3-2.3 2.3zM409.9 26.1c.7 0 1.3.6 1.3 1.3s-.6 1.3-1.3 1.3c-.7 0-1.3-.6-1.3-1.3 0-.7.5-1.3 1.3-1.3zm0-.9c-1.2 0-2.3 1-2.3 2.2s1 2.3 2.2 2.3 2.3-1 2.3-2.2c0-1.3-1-2.3-2.2-2.3zM415.6 51.2c1.1 0 1.9.9 1.9 1.9 0 1.1-.9 1.9-1.9 1.9s-1.9-.9-1.9-1.9.9-1.9 1.9-1.9zm0-1c-1.6 0-2.9 1.3-2.9 2.9 0 1.6 1.3 2.9 2.9 2.9s2.9-1.3 2.9-2.9c0-1.6-1.3-2.9-2.9-2.9z"/><path class="st0" d="M445.2 79.8h-40.5V32.9h1.9v45h38.6z"/><path class="st0" d="M445.2 54.1h-27.6v-1.9h25.7V40.7L431 28.4h-19.9v-1.9h20.7l13.4 13.4zM600.6 82.6c-1.2 0-2.3-1-2.3-2.3s1-2.3 2.3-2.3 2.3 1 2.3 2.3c-.1 1.3-1.1 2.3-2.3 2.3zM562 35.4c-1.2 0-2.3-1-2.3-2.3 0-1.2 1-2.3 2.3-2.3 1.2 0 2.3 1 2.3 2.3-.1 1.3-1.1 2.3-2.3 2.3zM566.2 27.7c.7 0 1.3.6 1.3 1.3s-.6 1.3-1.3 1.3-1.3-.6-1.3-1.3c0-.7.6-1.3 1.3-1.3zm0-1c-1.2 0-2.3 1-2.3 2.2s1 2.3 2.2 2.3 2.3-1 2.3-2.2c0-1.3-1-2.3-2.2-2.3zM572 52.7c1.1 0 1.9.9 1.9 1.9 0 1.1-.9 1.9-1.9 1.9-1.1 0-1.9-.9-1.9-1.9-.1-1 .8-1.9 1.9-1.9zm0-.9c-1.6 0-2.9 1.3-2.9 2.9 0 1.6 1.3 2.9 2.9 2.9 1.6 0 2.9-1.3 2.9-2.9-.1-1.6-1.4-2.9-2.9-2.9z"/><path class="st0" d="M601.5 81.3H561V34.4h2v45h38.5z"/><path class="st0" d="M601.5 55.6h-27.6v-1.9h25.7V42.2l-12.3-12.3h-19.8V28h20.6l13.4 13.4zM245 30.3c-1.3 0-2.3-1-2.3-2.3s1-2.3 2.3-2.3 2.3 1 2.3 2.3c0 1.3-1 2.3-2.3 2.3zM206 30.3c-1.3 0-2.3-1-2.3-2.3s1-2.3 2.3-2.3 2.3 1 2.3 2.3c0 1.3-1 2.3-2.3 2.3z"/><circle class="st0" cx="232" cy="80" r="2.3"/><path class="st0" d="M236.9 73.8c.3 0 .7.1.9.4.5.5.5 1.3 0 1.8s-1.3.6-1.8.1-.6-1.3-.1-1.8l.1-.1c.2-.3.5-.4.9-.4zm0-1c-1.3.1-2.2 1.1-2.1 2.4.1 1.2 1 2.1 2.1 2.1 1.3.1 2.3-.9 2.4-2.1.1-1.3-.9-2.3-2.1-2.4h-.3z"/><path class="st0" d="M238.5 74.9l-1.4-1.4 6.9-6.9V27h2v40.4zM233 81h-14.4L205 67.4V27h2v39.6L219.4 79H233zM282.9 30.3c-1.3 0-2.3-1-2.3-2.3s1-2.3 2.3-2.3 2.3 1 2.3 2.3c0 1.3-1.1 2.3-2.3 2.3zM321.9 30.3c-1.3 0-2.3-1-2.3-2.3s1-2.3 2.3-2.3 2.3 1 2.3 2.3c-.1 1.3-1.1 2.3-2.3 2.3z"/><circle class="st0" cx="302.4" cy="80" r="2.3"/><path class="st0" d="M302.4 30.9c.7 0 1.3.6 1.3 1.3s-.6 1.3-1.3 1.3c-.7 0-1.3-.6-1.3-1.3 0-.7.6-1.3 1.3-1.3zm0-.9c-1.3 0-2.3 1-2.3 2.3s1 2.3 2.3 2.3 2.3-1 2.3-2.3c-.1-1.3-1.1-2.3-2.3-2.3zM281.9 27h40.9v2h-40.9z"/><path class="st0" d="M301.4 33.5h2v47.4h-2zM104.5 82.3c-1.3 0-2.3-1-2.3-2.3s1-2.3 2.3-2.3 2.3 1 2.3 2.3-1 2.3-2.3 2.3zM143.5 82.3c-1.3 0-2.3-1-2.3-2.3s1-2.3 2.3-2.3 2.3 1 2.3 2.3c0 1.3-1 2.3-2.3 2.3z"/><circle class="st0" cx="104.5" cy="27.9" r="2.3"/><path class="st0" d="M111 30.3c-1.3 0-2.3-1-2.3-2.3s1-2.3 2.3-2.3 2.3 1 2.3 2.3-1.1 2.3-2.3 2.3zM137 56.3c-1.3 0-2.3-1-2.3-2.3s1-2.3 2.3-2.3 2.3 1 2.3 2.3c-.1 1.3-1.1 2.3-2.3 2.3zM114.6 52.1c1.1 0 2 .9 2 1.9 0 1.1-.9 2-1.9 2-1.1 0-2-.9-2-1.9-.1-1.2.8-2 1.9-2zm0-1c-1.6 0-2.9 1.3-2.9 2.9 0 1.6 1.3 2.9 2.9 2.9s2.9-1.3 2.9-2.9-1.3-2.9-2.9-2.9z"/><path class="st0" d="M144.4 55H136v-2h6.5V41.4L130.1 29H110v-2h20.9l13.5 13.6zM103.5 27h2v53.9h-2zM142.5 81V67.4L130.1 55h-13.6v-2h14.4l13.5 13.6V81zM89.8 30.3c-1.3 0-2.3-1-2.3-2.3s1-2.3 2.3-2.3 2.3 1 2.3 2.3c0 1.3-1.1 2.3-2.3 2.3zM76.8 30.3c-1.3 0-2.3-1-2.3-2.3s1-2.3 2.3-2.3 2.3 1 2.3 2.3c0 1.3-1.1 2.3-2.3 2.3zM76.8 82.3c-1.3 0-2.3-1-2.3-2.3s1-2.3 2.3-2.3 2.3 1 2.3 2.3c0 1.3-1.1 2.3-2.3 2.3zM89.8 82.3c-1.3 0-2.3-1-2.3-2.3s1-2.3 2.3-2.3 2.3 1 2.3 2.3c0 1.3-1.1 2.3-2.3 2.3zM83.3 30.9c.7 0 1.3.6 1.3 1.3s-.6 1.3-1.3 1.3c-.7 0-1.3-.6-1.3-1.3s.6-1.3 1.3-1.3zm0-.9C82 30 81 31 81 32.3s1 2.3 2.3 2.3 2.3-1 2.3-2.3c0-1.3-1-2.3-2.3-2.3zM83.3 74.5c.7 0 1.3.6 1.3 1.3 0 .7-.6 1.3-1.3 1.3-.7 0-1.3-.6-1.3-1.3 0-.8.6-1.3 1.3-1.3zm0-1c-1.3 0-2.3 1-2.3 2.3s1 2.3 2.3 2.3 2.3-1 2.3-2.3c0-1.3-1.1-2.3-2.3-2.3z"/><path class="st0" d="M82.3 33.5h2v40.9h-2zM75.8 27h14.9v2H75.8zM75.8 79h14.9v2H75.8zM58.2 6.8c-1.8 0-3.3-1.5-3.3-3.3S56.4.2 58.2.2s3.3 1.5 3.3 3.3-1.5 3.3-3.3 3.3zM58.2 81.9c-1.8 0-3.3-1.5-3.3-3.3s1.5-3.3 3.3-3.3 3.3 1.5 3.3 3.3c0 1.8-1.5 3.3-3.3 3.3z"/><path class="st0" d="M59.7 80H.5V21.7L20.1 2.1h39.6v2.8H21.3l-18 18v54.3h56.4zM193.6 31.1c-1.3 0-2.3-1-2.3-2.3s1-2.3 2.3-2.3 2.3 1 2.3 2.3c0 1.3-1 2.3-2.3 2.3zM193.6 83.1c-1.3 0-2.3-1-2.3-2.3s1-2.3 2.3-2.3 2.3 1 2.3 2.3c0 1.3-1 2.3-2.3 2.3z"/><path class="st0" d="M194.6 81.8h-41V41.4l13.6-13.6h27.4v2H168l-12.4 12.4v37.6h39zM270.4 30.3c-1.3 0-2.3-1-2.3-2.3s1-2.3 2.3-2.3 2.3 1 2.3 2.3c0 1.3-1 2.3-2.3 2.3zM257.4 30.3c-1.3 0-2.3-1-2.3-2.3s1-2.3 2.3-2.3c1.3 0 2.3 1 2.3 2.3 0 1.3-1 2.3-2.3 2.3zM257.4 82.3c-1.3 0-2.3-1-2.3-2.3s1-2.3 2.3-2.3 2.3 1 2.3 2.3c0 1.3-1 2.3-2.3 2.3zM270.4 82.3c-1.3 0-2.3-1-2.3-2.3s1-2.3 2.3-2.3 2.3 1 2.3 2.3c0 1.3-1 2.3-2.3 2.3zM263.9 30.9c.7 0 1.3.6 1.3 1.3s-.6 1.3-1.3 1.3-1.3-.6-1.3-1.3.6-1.3 1.3-1.3zm0-.9c-1.3 0-2.3 1-2.3 2.3s1 2.3 2.3 2.3 2.3-1 2.3-2.3c0-1.3-1-2.3-2.3-2.3zM263.9 74.5c.7 0 1.3.6 1.3 1.3 0 .7-.6 1.3-1.3 1.3-.7 0-1.3-.6-1.3-1.3 0-.8.6-1.3 1.3-1.3zm0-1c-1.3 0-2.3 1-2.3 2.3s1 2.3 2.3 2.3 2.3-1 2.3-2.3c0-1.3-1-2.3-2.3-2.3z"/><path class="st0" d="M262.9 33.5h2v40.9h-2zM256.4 27h14.9v2h-14.9zM256.4 79h14.9v2h-14.9z"/></svg>