<svg xmlns="http://www.w3.org/2000/svg" width="110" height="110"><path fill="#fff" stroke="#000" paint-order="fill stroke markers" d="M25 5h60v100H25V5z" stroke-miterlimit="10" stroke-width="3"/><path fill="none" stroke="gray" paint-order="fill stroke markers" d="M73 52V17zM73 58v35zM37 52V17zM37 58v35zM38 17h34zM38 55h34zM40 93h32zM75 95h2v2h-2v-2z" stroke-miterlimit="10" stroke-width="5"/><path fill="green" paint-order="stroke fill markers" d="M38 5a3 3 0 110-.003zM48 5a3 3 0 110-.003zM68 5a3 3 0 110-.003zM78 5a3 3 0 110-.003zM38 105a3 3 0 110-.003zM48 105a3 3 0 110-.003zM68 105a3 3 0 110-.003zM78 105a3 3 0 110-.003z"/></svg>