<svg width="17" height="16" viewBox="0 0 17 16" fill="none" xmlns="http://www.w3.org/2000/svg">
  <path
    d="M13.8333 8L14.1869 7.64645L14.5405 8L14.1869 8.35355L13.8333 8ZM3.83334 8.5C3.5572 8.5 3.33334 8.27614 3.33334 8C3.33334 7.72386 3.5572 7.5 3.83334 7.5V8.5ZM9.83334 4L10.1869 3.64645L14.1869 7.64645L13.8333 8L13.4798 8.35355L9.47979 4.35355L9.83334 4ZM13.8333 8L14.1869 8.35355L10.1869 12.3536L9.83334 12L9.47979 11.6464L13.4798 7.64645L13.8333 8ZM13.8333 8V8.5H3.83334V8V7.5H13.8333V8Z"
    fill="white" />
</svg>
  