<?xml version="1.0" standalone="no"?>
<!DOCTYPE svg PUBLIC "-//W3C//DTD SVG 20010904//EN"
 "http://www.w3.org/TR/2001/REC-SVG-20010904/DTD/svg10.dtd">
<svg version="1.0" xmlns="http://www.w3.org/2000/svg"
 width="301.000000pt" height="271.000000pt" viewBox="0 0 301.000000 271.000000"
 preserveAspectRatio="xMidYMid meet">
<metadata>
Created by potrace 1.15, written by Peter Selinger 2001-2017
</metadata>
<g transform="translate(0.000000,271.000000) scale(0.100000,-0.100000)"
fill="#000000" stroke="none">
<path d="M1260 2590 c-68 -8 -150 -29 -235 -60 -397 -143 -684 -479 -771 -900
-25 -124 -23 -345 5 -467 99 -436 394 -760 814 -897 551 -180 1174 89 1429
617 39 79 72 174 94 262 21 89 30 345 15 441 -72 467 -415 848 -881 978 -120
33 -316 44 -470 26z m353 -757 c43 -20 92 -56 132 -94 l65 -62 174 5 c115 3
179 1 186 -6 13 -13 13 -59 0 -72 -7 -7 -68 -9 -171 -6 l-160 5 12 -29 c7 -16
15 -47 18 -69 l6 -40 195 1 c107 0 207 4 222 8 20 6 31 3 47 -13 27 -27 27
-45 0 -72 -15 -15 -27 -19 -42 -13 -12 4 -111 10 -220 11 -155 3 -198 1 -201
-9 -11 -42 -28 -106 -33 -125 -5 -23 -5 -23 124 -23 79 0 133 4 140 11 18 18
66 6 79 -19 27 -54 -23 -100 -76 -69 -23 14 -55 17 -169 17 l-141 0 -57 -55
c-65 -63 -152 -109 -241 -126 -121 -25 -276 22 -380 115 l-53 46 -112 0 c-83
-1 -117 -4 -131 -15 -31 -23 -73 -19 -92 10 -34 52 13 107 72 85 14 -6 68 -10
121 -10 86 0 94 2 89 17 -4 9 -15 43 -24 75 l-17 58 -168 0 c-102 0 -176 -4
-189 -11 -58 -31 -119 66 -64 103 16 11 70 10 82 -2 7 -7 72 -9 175 -8 l164 3
6 40 c3 22 9 52 14 68 l7 27 -95 0 c-53 0 -99 -4 -102 -10 -3 -5 -22 -10 -40
-10 -47 0 -73 37 -55 79 14 35 46 43 90 24 20 -8 71 -13 131 -13 l99 0 32 37
c50 55 69 71 123 107 82 55 126 66 250 63 101 -2 116 -5 178 -34z"/>
<path d="M1309 1787 c-117 -40 -184 -100 -234 -210 -67 -145 -28 -321 93 -428
56 -49 90 -68 157 -85 204 -55 412 65 471 270 46 162 -44 359 -195 427 -117
53 -192 60 -292 26z m259 -271 c4 -16 -117 -224 -142 -245 -15 -13 -42 -6 -49
12 -3 7 -29 46 -60 88 -30 43 -63 91 -73 109 -19 31 -19 32 0 46 11 8 25 14
32 14 7 0 38 -36 68 -80 31 -44 58 -80 61 -80 2 0 20 28 41 63 70 117 73 120
98 104 11 -8 22 -22 24 -31z"/>
</g>
</svg>
