<svg version="1.0" xmlns="http://www.w3.org/2000/svg" width="401.333" height="361.333" viewBox="0 0 301 271"><path d="M126 12c-6.8.8-15 2.9-23.5 6-39.7 14.3-68.4 47.9-77.1 90-2.5 12.4-2.3 34.5.5 46.7 9.9 43.6 39.4 76 81.4 89.7 55.1 18 117.4-8.9 142.9-61.7 3.9-7.9 7.2-17.4 9.4-26.2 2.1-8.9 3-34.5 1.5-44.1-7.2-46.7-41.5-84.8-88.1-97.8-12-3.3-31.6-4.4-47-2.6zm35.3 75.7c4.3 2 9.2 5.6 13.2 9.4l6.5 6.2 17.4-.5c11.5-.3 17.9-.1 18.6.6 1.3 1.3 1.3 5.9 0 7.2-.7.7-6.8.9-17.1.6l-16-.5 1.2 2.9c.7 1.6 1.5 4.7 1.8 6.9l.6 4 19.5-.1c10.7 0 20.7-.4 22.2-.8 2-.6 3.1-.3 4.7 1.3 2.7 2.7 2.7 4.5 0 7.2-1.5 1.5-2.7 1.9-4.2 1.3-1.2-.4-11.1-1-22-1.1-15.5-.3-19.8-.1-20.1.9-1.1 4.2-2.8 10.6-3.3 12.5-.5 2.3-.5 2.3 12.4 2.3 7.9 0 13.3-.4 14-1.1 1.8-1.8 6.6-.6 7.9 1.9 2.7 5.4-2.3 10-7.6 6.9-2.3-1.4-5.5-1.7-16.9-1.7H180l-5.7 5.5c-6.5 6.3-15.2 10.9-24.1 12.6-12.1 2.5-27.6-2.2-38-11.5l-5.3-4.6H95.7c-8.3.1-11.7.4-13.1 1.5-3.1 2.3-7.3 1.9-9.2-1-3.4-5.2 1.3-10.7 7.2-8.5 1.4.6 6.8 1 12.1 1 8.6 0 9.4-.2 8.9-1.7-.4-.9-1.5-4.3-2.4-7.5l-1.7-5.8H80.7c-10.2 0-17.6.4-18.9 1.1-5.8 3.1-11.9-6.6-6.4-10.3 1.6-1.1 7-1 8.2.2.7.7 7.2.9 17.5.8l16.4-.3.6-4c.3-2.2.9-5.2 1.4-6.8l.7-2.7h-9.5c-5.3 0-9.9.4-10.2 1-.3.5-2.2 1-4 1-4.7 0-7.3-3.7-5.5-7.9 1.4-3.5 4.6-4.3 9-2.4 2 .8 7.1 1.3 13.1 1.3h9.9l3.2-3.7c5-5.5 6.9-7.1 12.3-10.7 8.2-5.5 12.6-6.6 25-6.3 10.1.2 11.6.5 17.8 3.4z"/><path d="M130.9 92.3c-11.7 4-18.4 10-23.4 21-6.7 14.5-2.8 32.1 9.3 42.8 5.6 4.9 9 6.8 15.7 8.5 20.4 5.5 41.2-6.5 47.1-27 4.6-16.2-4.4-35.9-19.5-42.7-11.7-5.3-19.2-6-29.2-2.6zm25.9 27.1c.4 1.6-11.7 22.4-14.2 24.5-1.5 1.3-4.2.6-4.9-1.2-.3-.7-2.9-4.6-6-8.8-3-4.3-6.3-9.1-7.3-10.9-1.9-3.1-1.9-3.2 0-4.6 1.1-.8 2.5-1.4 3.2-1.4.7 0 3.8 3.6 6.8 8 3.1 4.4 5.8 8 6.1 8 .2 0 2-2.8 4.1-6.3 7-11.7 7.3-12 9.8-10.4 1.1.8 2.2 2.2 2.4 3.1z"/></svg>