<svg width="20" height="20" viewBox="0 0 20 20" fill="none" xmlns="http://www.w3.org/2000/svg">
  <path
    d="M15.8333 2.5H4.16667C3.24619 2.5 2.5 3.24619 2.5 4.16667V15.8333C2.5 16.7538 3.24619 17.5 4.16667 17.5H15.8333C16.7538 17.5 17.5 16.7538 17.5 15.8333V4.16667C17.5 3.24619 16.7538 2.5 15.8333 2.5Z"
    stroke="#71717A" stroke-width="1.5" stroke-linecap="round" stroke-linejoin="round" />
  <path
    d="M9.1665 7.5H12.4998C12.9419 7.5 13.3658 7.3244 13.6783 7.01184C13.9909 6.69928 14.1665 6.27536 14.1665 5.83333V2.5"
    stroke="#71717A" stroke-width="1.5" stroke-linecap="round" stroke-linejoin="round" />
  <path
    d="M7.50016 9.16665C8.42064 9.16665 9.16683 8.42045 9.16683 7.49998C9.16683 6.57951 8.42064 5.83331 7.50016 5.83331C6.57969 5.83331 5.8335 6.57951 5.8335 7.49998C5.8335 8.42045 6.57969 9.16665 7.50016 9.16665Z"
    stroke="#71717A" stroke-width="1.5" stroke-linecap="round" stroke-linejoin="round" />
  <path
    d="M5.8335 17.5V14.1667C5.8335 13.7246 6.00909 13.3007 6.32165 12.9882C6.63421 12.6756 7.05814 12.5 7.50016 12.5H10.8335"
    stroke="#71717A" stroke-width="1.5" stroke-linecap="round" stroke-linejoin="round" />
  <path
    d="M12.5002 14.1666C13.4206 14.1666 14.1668 13.4205 14.1668 12.5C14.1668 11.5795 13.4206 10.8333 12.5002 10.8333C11.5797 10.8333 10.8335 11.5795 10.8335 12.5C10.8335 13.4205 11.5797 14.1666 12.5002 14.1666Z"
    stroke="#71717A" stroke-width="1.5" stroke-linecap="round" stroke-linejoin="round" />
</svg>
  