<svg xmlns="http://www.w3.org/2000/svg" xmlns:xlink="http://www.w3.org/1999/xlink" xmlns:svgjs="http://svgjs.com/svgjs" version="1.1" width="17.969" height="17.969" x="0" y="0" viewBox="0 0 18 18" style="enable-background:new 0 0 18 18" xml:space="preserve" class=""><g transform="matrix(0.0376016025387,0,0,0.0376016025387,-0.050780385535574624,-0.05125030662807717)"><path d="M341.333,85.333H51.2c-28.277,0-51.2,22.923-51.2,51.2v290.133c0,28.277,22.923,51.2,51.2,51.2h290.133    c28.277,0,51.2-22.923,51.2-51.2V136.533C392.533,108.256,369.61,85.333,341.333,85.333z M358.4,426.667    c0,9.426-7.641,17.067-17.067,17.067H51.2c-9.426,0-17.067-7.641-17.067-17.067V136.533c0-9.426,7.641-17.067,17.067-17.067    h290.133c9.426,0,17.067,7.641,17.067,17.067V426.667z" fill="#ffffff" data-original="#000000" style="" class=""/><path d="M426.667,0h-307.2c-28.277,0-51.2,22.923-51.2,51.2c0,9.426,7.641,17.067,17.067,17.067S102.4,60.626,102.4,51.2    s7.641-17.067,17.067-17.067h307.2c9.426,0,17.067,7.641,17.067,17.067v307.2c0,9.426-7.641,17.067-17.067,17.067    s-17.067,7.641-17.067,17.067s7.641,17.067,17.067,17.067c28.277,0,51.2-22.923,51.2-51.2V51.2    C477.867,22.923,454.944,0,426.667,0z" fill="#ffffff" data-original="#000000" style="" class=""/></g></svg>
