<svg xmlns="http://www.w3.org/2000/svg" width="56.941" height="57" viewBox="0 0 56.941 57"><defs><style>.a{fill:#ffd15c;}.b{fill:#f8b64c;}.c{fill:#40596b;}.d{fill:#f2f2f2;}.e{fill:#cdd6e0;}.f{fill:#ff7058;}</style></defs><g transform="translate(-0.261 0)"><path class="a" d="M57.2,209.778a2.414,2.414,0,0,1-.712,1.779,2.571,2.571,0,0,1-1.661.593H2.634a2.835,2.835,0,0,1-1.661-.593,2.414,2.414,0,0,1-.712-1.779V175.02H57.2Z" transform="translate(0 -155.15)"/><path class="b" d="M62.047,310.669a2.571,2.571,0,0,1-1.661.593H8.191a2.835,2.835,0,0,1-1.661-.593l27.759-23.844Z" transform="translate(-5.557 -254.262)"/><path class="c" d="M57.2,19.87l-8.067,5.813L30.273,39.206a2.669,2.669,0,0,1-3.2,0L8.328,25.683.261,19.87l8.067-5.813L25.884,1.483l1.3-.949a2.669,2.669,0,0,1,3.2,0l1.3.949,8.422,6.05L44.271,10.5l4.864,3.559Z" transform="translate(0)"/><path class="d" d="M112.121,20.416V37.261L93.26,50.784a2.669,2.669,0,0,1-3.2,0L71.314,37.261V15.434a2.379,2.379,0,0,1,2.373-2.373h30.961Z" transform="translate(-62.986 -11.578)"/><path class="e" d="M365.974,18.518a1.874,1.874,0,0,0,1.9,1.9h5.457l-7.355-7.355v5.457Z" transform="translate(-324.194 -11.578)"/><path class="f" d="M188.565,116.565h1.9a6.267,6.267,0,0,1-2.847,2.966,10.461,10.461,0,0,1-5.338,1.186,11.7,11.7,0,0,1-5.22-1.068,7,7,0,0,1-3.322-3.084,9.237,9.237,0,0,1-1.068-4.389,9.843,9.843,0,0,1,1.186-4.864,7.49,7.49,0,0,1,3.322-3.322,10.849,10.849,0,0,1,4.864-1.068,9.307,9.307,0,0,1,4.152.949,5.823,5.823,0,0,1,2.728,2.61,7.706,7.706,0,0,1,.949,3.677,7.107,7.107,0,0,1-1.424,4.271,5.335,5.335,0,0,1-4.626,2.373,2.976,2.976,0,0,1-1.186-.237,1.2,1.2,0,0,1-.475-.83,3.414,3.414,0,0,1-2.491,1.068,3.064,3.064,0,0,1-2.491-1.068,3.848,3.848,0,0,1-1.068-2.847,7.25,7.25,0,0,1,1.186-4.033,4.412,4.412,0,0,1,3.8-2.135,2.937,2.937,0,0,1,2.491,1.3l.237-1.068h2.491l-1.424,6.643a3.13,3.13,0,0,0-.119.83.436.436,0,0,0,.119.356c.119.119.119.119.237.119a2.685,2.685,0,0,0,1.186-.593,4.95,4.95,0,0,0,1.542-1.9,6.374,6.374,0,0,0,.593-2.491,4.932,4.932,0,0,0-1.661-3.8,6.242,6.242,0,0,0-4.626-1.542,8.151,8.151,0,0,0-4.27,1.068,6.7,6.7,0,0,0-2.61,2.847,8.6,8.6,0,0,0-.83,3.915,7.247,7.247,0,0,0,.949,3.559,5.884,5.884,0,0,0,2.728,2.373,10.64,10.64,0,0,0,4.033.712,12.142,12.142,0,0,0,3.8-.593A7.076,7.076,0,0,0,188.565,116.565Zm-10.083-3.8a2.651,2.651,0,0,0,.475,1.779,1.647,1.647,0,0,0,1.186.593,2.234,2.234,0,0,0,.949-.237,3.144,3.144,0,0,0,.712-.593,4.332,4.332,0,0,0,.83-1.661,6.579,6.579,0,0,0,.356-2.017,2.51,2.51,0,0,0-.475-1.661,1.647,1.647,0,0,0-1.186-.593,2.189,2.189,0,0,0-1.424.593,3.259,3.259,0,0,0-1.068,1.779A6.585,6.585,0,0,0,178.482,112.769Z" transform="translate(-152.835 -91.238)"/></g></svg>