<svg xmlns="http://www.w3.org/2000/svg" width="56.941" height="57"><path d="M56.939 54.628a2.414 2.414 0 01-.712 1.779 2.571 2.571 0 01-1.661.593H2.373a2.835 2.835 0 01-1.661-.593A2.414 2.414 0 010 54.628V19.87h56.939z" fill="#ffd15c"/><path d="M56.229 56.407a2.571 2.571 0 01-1.661.593H2.373a2.835 2.835 0 01-1.661-.593l27.759-23.844z" fill="#f8b64c"/><path d="M56.939 19.87l-8.067 5.813-18.86 13.523a2.669 2.669 0 01-3.2 0L8.067 25.683 0 19.87l8.067-5.813L25.623 1.483l1.3-.949a2.669 2.669 0 013.2 0l1.3.949 8.422 6.05L44.01 10.5l4.864 3.559z" fill="#40596b"/><path d="M48.874 8.838v16.845L30.013 39.206a2.669 2.669 0 01-3.2 0L8.067 25.683V3.856a2.379 2.379 0 012.373-2.373h30.961z" fill="#f2f2f2"/><path d="M41.519 6.94a1.874 1.874 0 001.9 1.9h5.457l-7.355-7.355v5.457z" fill="#cdd6e0"/><path d="M35.469 25.327h1.9a6.267 6.267 0 01-2.847 2.966 10.461 10.461 0 01-5.338 1.186 11.7 11.7 0 01-5.22-1.068 7 7 0 01-3.322-3.084 9.237 9.237 0 01-1.068-4.389 9.843 9.843 0 011.186-4.864 7.49 7.49 0 013.322-3.322 10.849 10.849 0 014.864-1.068 9.307 9.307 0 014.152.949 5.823 5.823 0 012.728 2.61 7.706 7.706 0 01.949 3.677 7.107 7.107 0 01-1.424 4.271 5.335 5.335 0 01-4.626 2.373 2.976 2.976 0 01-1.186-.237 1.2 1.2 0 01-.475-.83 3.414 3.414 0 01-2.491 1.068 3.064 3.064 0 01-2.491-1.068 3.848 3.848 0 01-1.068-2.847 7.25 7.25 0 011.186-4.033 4.412 4.412 0 013.8-2.135 2.937 2.937 0 012.491 1.3l.237-1.068h2.491l-1.424 6.643a3.13 3.13 0 00-.119.83.436.436 0 00.119.356c.119.119.119.119.237.119a2.685 2.685 0 001.186-.593 4.95 4.95 0 001.542-1.9 6.374 6.374 0 00.593-2.491 4.932 4.932 0 00-1.661-3.8 6.242 6.242 0 00-4.626-1.542 8.151 8.151 0 00-4.27 1.068 6.7 6.7 0 00-2.61 2.847 8.6 8.6 0 00-.83 3.915 7.247 7.247 0 00.949 3.559 5.884 5.884 0 002.728 2.373 10.64 10.64 0 004.033.712 12.142 12.142 0 003.8-.593 7.076 7.076 0 002.603-1.89zm-10.083-3.8a2.651 2.651 0 00.475 1.779 1.647 1.647 0 001.186.593 2.234 2.234 0 00.949-.237 3.144 3.144 0 00.712-.593 4.332 4.332 0 00.83-1.661 6.579 6.579 0 00.356-2.017 2.51 2.51 0 00-.475-1.661 1.647 1.647 0 00-1.186-.593 2.189 2.189 0 00-1.424.593 3.259 3.259 0 00-1.068 1.779 6.585 6.585 0 00-.355 2.022z" fill="#ff7058"/></svg>