<svg xmlns="http://www.w3.org/2000/svg" width="19.575" height="16.969" viewBox="0 0 19.575 16.969"><defs><style>.a{fill:#fff}</style></defs><g><g><g><path d="M5.025,52.154,1.639,49.416l3.386-2.738a.63.63,0,0,0,0-.907.67.67,0,0,0-.93,0L.187,48.93a.728.728,0,0,0,0,.972L4.1,53.061a.67.67,0,0,0,.93,0A.63.63,0,0,0,5.025,52.154Zm9.3-11.319a.659.659,0,0,0-.891.234L5.282,56.783a.592.592,0,0,0,.239.874c.421.122.711.072.891-.234l8.155-15.714A.632.632,0,0,0,14.327,40.836Zm5.06,8.095L15.48,45.77a.67.67,0,0,0-.93,0,.63.63,0,0,0,0,.907l3.386,2.738L14.55,52.153a.63.63,0,0,0,0,.907.67.67,0,0,0,.93,0L19.389,49.9a.726.726,0,0,0,0-.971Z" class="a" transform="translate(0 -40.75) translate(0 40.75) translate(0 0) translate(0 -40.75)"/></g></g></g></svg>