<svg xmlns="http://www.w3.org/2000/svg" width="578" height="675" viewBox="0 0 578 675"><defs><style>.a{fill:#f2f2f2}.b{fill:#fff}.c{fill:#e6e6e6}.d{fill:#42b983}.e{fill:#ccc}</style></defs><g transform="translate(0 0)"><path d="M694,112.5H324a13.014,13.014,0,0,0-13,13v500a13.015,13.015,0,0,0,13,13H694a13.015,13.015,0,0,0,13-13v-500a13.015,13.015,0,0,0-13-13Z" class="a" transform="translate(-311 -112.5)"/><path d="M335.43,128.5a9.085,9.085,0,0,0-8.93,9.212V613.288a9.085,9.085,0,0,0,8.93,9.212H682.57a9.085,9.085,0,0,0,8.93-9.212V137.712a9.085,9.085,0,0,0-8.93-9.212Z" class="b" transform="translate(-311 -112.5)"/><path d="M353.5,150.5c-3.309,0-6,3.037-6,6.771v65.457c0,3.734,2.691,6.771,6,6.771h311c3.309,0,6-3.037,6-6.771V157.271c0-3.734-2.691-6.771-6-6.771Z" class="c" transform="translate(-311 -112.5)"/><path d="M353.5,261.25a6.1,6.1,0,0,0-6,6.172V407.328a6.1,6.1,0,0,0,6,6.172h311a6.1,6.1,0,0,0,6-6.172V267.422a6.1,6.1,0,0,0-6-6.172Z" class="c" transform="translate(-311 -112.5)"/><rect width="246" height="14" class="b" transform="translate(75 47.25)"/><rect width="246" height="6.5" class="b" transform="translate(75.5 76.75)"/><rect width="246" height="6.5" class="b" transform="translate(75.5 88.25)"/><rect width="246" height="6.5" class="b" transform="translate(75.5 99.75)"/><path d="M532.163,413.75H645.374a3.645,3.645,0,0,0,2.577-6.221l-72.456-72.456a3.649,3.649,0,0,0-5.154,0L552.323,353.09a7.643,7.643,0,0,1-10.81,0l-56.435-56.435a3.649,3.649,0,0,0-5.154,0L369.549,407.029a3.644,3.644,0,0,0,2.577,6.221H532.308Z" class="b" transform="translate(-311 -112.5)"/><circle cx="14" cy="14" r="14" class="b" transform="translate(72.5 167.75)"/><path d="M353.5,446.25a6.1,6.1,0,0,0-6,6.172V592.328a6.1,6.1,0,0,0,6,6.172h311a6.1,6.1,0,0,0,6-6.172V452.422a6.1,6.1,0,0,0-6-6.172Z" class="c" transform="translate(-311 -112.5)"/><path d="M532.163,598.75H645.374a3.645,3.645,0,0,0,2.577-6.222l-72.456-72.456a3.65,3.65,0,0,0-5.154,0L552.323,538.09a7.641,7.641,0,0,1-10.81,0l-56.435-56.435a3.651,3.651,0,0,0-5.154,0L369.549,592.028a3.645,3.645,0,0,0,2.577,6.222H532.308Z" class="b" transform="translate(-311 -112.5)"/><circle cx="14" cy="14" r="14" class="b" transform="translate(72.5 352.75)"/><path d="M454,227.5a9.01,9.01,0,0,0-9,9v500a9.01,9.01,0,0,0,9,9H824a9.01,9.01,0,0,0,9-9v-500a9.01,9.01,0,0,0-9-9Z" class="c" transform="translate(-311 -112.5)"/><path d="M464.93,241.5a9.085,9.085,0,0,0-8.93,9.212V726.288a9.085,9.085,0,0,0,8.93,9.212H812.07a9.085,9.085,0,0,0,8.93-9.212V250.712a9.085,9.085,0,0,0-8.93-9.212Z" class="b" transform="translate(-311 -112.5)"/><path d="M519.25,310.683a4,4,0,0,0-4,4v18.359a4,4,0,0,0,4,4h236a4,4,0,0,0,4-4V314.683a4,4,0,0,0-4-4Z" class="d" transform="translate(-311 -112.5)"/><path d="M517.75,371.439a1,1,0,0,0-1,1v7.167a1,1,0,0,0,1,1h240a1,1,0,0,0,1-1v-7.167a1,1,0,0,0-1-1Z" class="e" transform="translate(-311 -112.5)"/><path d="M517.75,394.734a1,1,0,0,0-1,1V402.9a1,1,0,0,0,1,1h240a1,1,0,0,0,1-1v-7.167a1,1,0,0,0-1-1Z" class="e" transform="translate(-311 -112.5)"/><path d="M517.75,418.029a1,1,0,0,0-1,1V426.2a1,1,0,0,0,1,1h240a1,1,0,0,0,1-1v-7.167a1,1,0,0,0-1-1Z" class="e" transform="translate(-311 -112.5)"/><path d="M517.25,464.561a1,1,0,0,0-1,1v7.167a1,1,0,0,0,1,1h240a1,1,0,0,0,1-1v-7.167a1,1,0,0,0-1-1Z" class="e" transform="translate(-311 -112.5)"/><path d="M517.25,487.856a1,1,0,0,0-1,1v7.167a1,1,0,0,0,1,1h240a1,1,0,0,0,1-1v-7.167a1,1,0,0,0-1-1Z" class="e" transform="translate(-311 -112.5)"/><path d="M517.25,511.15a1,1,0,0,0-1,1v7.167a1,1,0,0,0,1,1h240a1,1,0,0,0,1-1V512.15a1,1,0,0,0-1-1Z" class="e" transform="translate(-311 -112.5)"/><path d="M517.25,534.561a1,1,0,0,0-1,1v7.167a1,1,0,0,0,1,1h240a1,1,0,0,0,1-1v-7.167a1,1,0,0,0-1-1Z" class="e" transform="translate(-311 -112.5)"/><path d="M517.25,557.855a1,1,0,0,0-1,1v7.167a1,1,0,0,0,1,1h240a1,1,0,0,0,1-1v-7.167a1,1,0,0,0-1-1Z" class="e" transform="translate(-311 -112.5)"/><path d="M517.25,581.15a1,1,0,0,0-1,1v7.167a1,1,0,0,0,1,1h240a1,1,0,0,0,1-1V582.15a1,1,0,0,0-1-1Z" class="e" transform="translate(-311 -112.5)"/><path d="M517.25,604.561a1,1,0,0,0-1,1v7.167a1,1,0,0,0,1,1h240a1,1,0,0,0,1-1v-7.167a1,1,0,0,0-1-1Z" class="e" transform="translate(-311 -112.5)"/><path d="M517.25,627.855a1,1,0,0,0-1,1v7.167a1,1,0,0,0,1,1h240a1,1,0,0,0,1-1v-7.167a1,1,0,0,0-1-1Z" class="e" transform="translate(-311 -112.5)"/><path d="M517.25,651.15a1,1,0,0,0-1,1v7.167a1,1,0,0,0,1,1h240a1,1,0,0,0,1-1V652.15a1,1,0,0,0-1-1Z" class="e" transform="translate(-311 -112.5)"/><circle cx="73" cy="73" r="73" class="d" transform="translate(432 529)"/><path d="M498.044,632.815l-21.85-28.092,12.706-9.884,10.346,13.3L534.2,571.248l11.687,11.072Z" class="b"/></g></svg>