<svg xmlns="http://www.w3.org/2000/svg" width="11.026" height="17.969" viewBox="0 0 11.026 17.969"><defs><style>.a{fill:#fff}</style></defs><g><path d="M17.522,4.479A2.027,2.027,0,1,0,14.01,5.848c-.253,1.071-.876,1.279-2.227,1.618a7.983,7.983,0,0,0-2.19.8V3.742a2.027,2.027,0,1,0-2.137,0V14.226a2.027,2.027,0,1,0,2.137,0V12.172c.265-2.013,1.24-2.261,2.712-2.632,1.35-.34,3.182-.808,3.766-3.127A2.021,2.021,0,0,0,17.522,4.479Zm-9-3.41a.958.958,0,1,1-.959.959A.96.96,0,0,1,8.525,1.07Zm0,15.83a.958.958,0,1,1,.958-.959A.961.961,0,0,1,8.525,16.9ZM15.5,5.438a.958.958,0,1,1,.959-.958A.959.959,0,0,1,15.5,5.438Z" class="a" transform="translate(-6.497)"/></g></svg>