<svg version="1.1" id="Layer_1" xmlns="http://www.w3.org/2000/svg" xmlns:xlink="http://www.w3.org/1999/xlink" x="0px" y="0px"
	 width="100%" viewBox="0 0 119 119" enable-background="new 0 0 119 119" xml:space="preserve">
<path fill="#FDFEFF" opacity="1.000000" stroke="none" 
	d="
M71.000000,120.000000 
	C47.333332,120.000000 24.166666,120.000000 1.000000,120.000000 
	C1.000000,80.333336 1.000000,40.666668 1.000000,1.000000 
	C40.666668,1.000000 80.333336,1.000000 120.000000,1.000000 
	C120.000000,40.666668 120.000000,80.333336 120.000000,120.000000 
	C103.833336,120.000000 87.666664,120.000000 71.000000,120.000000 
M68.524872,110.747208 
	C71.133125,112.189011 73.918526,113.386436 76.313469,115.122505 
	C81.618355,118.967964 86.846619,116.789696 87.773689,110.075172 
	C89.302559,99.002045 95.744659,92.125206 106.034363,88.510246 
	C108.344177,87.698769 110.711342,87.051338 113.047897,86.315033 
	C117.342407,84.961739 118.716942,80.388092 115.897163,76.855316 
	C107.517273,66.356514 107.321732,53.497856 115.920029,43.493114 
	C118.074547,40.986176 117.513641,39.270195 116.609009,36.875961 
	C115.652451,34.344315 114.509193,33.028038 111.338722,32.770390 
	C98.972656,31.765469 89.570251,22.859800 87.872917,11.213285 
	C86.671410,2.968867 82.423019,1.606240 75.327179,5.826486 
	C70.346382,8.788810 64.254417,11.704490 58.780724,11.492293 
	C53.547497,11.289419 48.112228,7.539463 43.462158,4.337330 
	C40.672726,2.416468 38.700371,3.048381 36.712852,4.244037 
	C35.161625,5.177228 33.380295,7.070479 33.189240,8.710463 
	C31.609842,22.267653 22.699701,31.151297 8.825277,33.074043 
	C7.080119,33.315887 4.928107,35.331192 4.223175,37.043079 
	C3.520782,38.748798 3.646966,41.674606 4.709570,43.089043 
	C13.124350,54.290031 13.269573,66.283821 4.729631,77.038116 
	C1.739992,80.802963 3.915188,86.624802 8.615935,87.439682 
	C24.248102,90.149529 30.672787,96.718086 33.081188,112.452782 
	C33.602486,115.858559 40.140888,118.644203 42.736412,116.372017 
	C50.080128,109.943176 58.350132,107.847229 68.524872,110.747208 
z"/>
<path fill="#2397F3" opacity="1.000000" stroke="none" 
	d="
M68.152649,110.603622 
	C58.350132,107.847229 50.080128,109.943176 42.736412,116.372017 
	C40.140888,118.644203 33.602486,115.858559 33.081188,112.452782 
	C30.672787,96.718086 24.248102,90.149529 8.615935,87.439682 
	C3.915188,86.624802 1.739992,80.802963 4.729631,77.038116 
	C13.269573,66.283821 13.124350,54.290031 4.709570,43.089043 
	C3.646966,41.674606 3.520782,38.748798 4.223175,37.043079 
	C4.928107,35.331192 7.080119,33.315887 8.825277,33.074043 
	C22.699701,31.151297 31.609842,22.267653 33.189240,8.710463 
	C33.380295,7.070479 35.161625,5.177228 36.712852,4.244037 
	C38.700371,3.048381 40.672726,2.416468 43.462158,4.337330 
	C48.112228,7.539463 53.547497,11.289419 58.780724,11.492293 
	C64.254417,11.704490 70.346382,8.788810 75.327179,5.826486 
	C82.423019,1.606240 86.671410,2.968867 87.872917,11.213285 
	C89.570251,22.859800 98.972656,31.765469 111.338722,32.770390 
	C114.509193,33.028038 115.652451,34.344315 116.609009,36.875961 
	C117.513641,39.270195 118.074547,40.986176 115.920029,43.493114 
	C107.321732,53.497856 107.517273,66.356514 115.897163,76.855316 
	C118.716942,80.388092 117.342407,84.961739 113.047897,86.315033 
	C110.711342,87.051338 108.344177,87.698769 106.034363,88.510246 
	C95.744659,92.125206 89.302559,99.002045 87.773689,110.075172 
	C86.846619,116.789696 81.618355,118.967964 76.313469,115.122505 
	C73.918526,113.386436 71.133125,112.189011 68.152649,110.603622 
M52.655254,33.839397 
	C38.076321,38.671482 30.026344,52.532356 33.640995,66.579147 
	C37.233376,80.539398 50.570507,89.702400 63.878269,87.353065 
	C79.829147,84.537102 90.257881,70.644356 87.449455,55.952480 
	C84.275459,39.348171 70.312027,30.161463 52.655254,33.839397 
z"/>
<path fill="#FCFCFC" opacity="1.000000" stroke="none" 
	d="
M53.057091,33.714558 
	C70.312027,30.161463 84.275459,39.348171 87.449455,55.952480 
	C90.257881,70.644356 79.829147,84.537102 63.878269,87.353065 
	C50.570507,89.702400 37.233376,80.539398 33.640995,66.579147 
	C30.026344,52.532356 38.076321,38.671482 53.057091,33.714558 
M76.075653,62.129501 
	C77.288933,53.238384 70.829971,46.513813 64.794106,44.906559 
	C57.607548,42.992897 50.221405,45.766262 46.682827,52.005856 
	C43.454178,57.698959 43.542416,63.499420 47.115395,68.999947 
	C50.859406,74.763771 56.548225,77.046776 63.081543,75.858955 
	C70.055725,74.590996 74.457924,70.032921 76.075653,62.129501 
z"/>
<path fill="#FF9003" opacity="1.000000" stroke="none" 
	d="
M76.046867,62.550827 
	C74.457924,70.032921 70.055725,74.590996 63.081543,75.858955 
	C56.548225,77.046776 50.859406,74.763771 47.115395,68.999947 
	C43.542416,63.499420 43.454178,57.698959 46.682827,52.005856 
	C50.221405,45.766262 57.607548,42.992897 64.794106,44.906559 
	C70.829971,46.513813 77.288933,53.238384 76.046867,62.550827 
z"/>
</svg>