<svg xmlns="http://www.w3.org/2000/svg" width="55.687" height="55.687" viewBox="0 0 14.734 14.734"><g fill-rule="evenodd"><path fill="#4285f4" d="M14.733852 7.5343583c0-.5223811-.04783-1.0246749-.136692-1.5068716H7.5172557v2.8496614h4.0456573c-.174259.9208651-.703888 1.7010889-1.500035 2.2234709v1.848431h2.429443c1.421448-1.282518 2.241515-3.1711274 2.241515-5.4146917z"/><path fill="#34a853" d="M7.5172716 14.733852c2.0296616 0 3.7313004-.659674 4.9750654-1.784802l-2.429444-1.848431c-.6731398.442015-1.534208.703209-2.5456214.703209-1.9579096 0-3.6151252-1.295911-4.2062565-3.0371844H.79956303v1.9087024c1.23693327 2.407646 3.77913647 4.058506 6.71770857 4.058506z"/><path fill="#fbbc05" d="M3.3110151 8.7666436c-.1503296-.4420156-.2357543-.9141672-.2357543-1.3997176 0-.4855474.085425-.9576988.2357543-1.3997143V4.0585088H.79956303C.29043738 5.0530445 0 6.1781724 0 7.366926c0 1.1887566.29043106 2.3138845.79956303 3.30842z"/><path fill="#ea4335" d="M7.5172716 2.9300302c1.1036725 0 2.0945856.3716923 2.8736484 1.1016901l2.156087-2.112969C11.245153.7299978 9.5435174 0 7.5172716 0 4.5786995 0 2.0364963 1.6508628.79956303 4.0585088L3.3110151 5.9672117C3.9021464 4.225938 5.559362 2.9300302 7.5172716 2.9300302z"/></g></svg>