<svg xmlns="http://www.w3.org/2000/svg" width="55.687" height="55.687" viewBox="0 0 55.687 55.687"><defs><style>.a{fill:#dc4e41;}.b{fill:#fff;}</style></defs><g transform="translate(0 0.001)"><g transform="translate(0 -0.001)"><circle class="a" cx="27.844" cy="27.844" r="27.844"/></g><g transform="translate(11.687 17.592)"><path class="a" d="M19.524,46.942A11.474,11.474,0,0,0,27.264,57.8c4.275,1.436,9.532.362,12.377-3.3,2.077-2.566,2.549-5.986,2.324-9.181-3.661-.033-7.323-.022-10.979-.016-.006,1.3,0,2.6.005,3.908,2.192.061,4.385.033,6.577.077a6.343,6.343,0,0,1-3.727,4.346,7.251,7.251,0,1,1-4.884-13.643c2.352-.827,4.774.1,6.786,1.327,1.019-.954,1.973-1.973,2.911-3a11.541,11.541,0,0,0-19.131,8.633Z" transform="translate(-19.517 -35.445)"/><path class="a" d="M75.748,48.668c-.011,1.091-.022,2.187-.028,3.278-1.1.011-2.187.016-3.278.022v3.267c1.091.005,2.187.011,3.278.022.011,1.091.011,2.181.022,3.278,1.085,0,2.176-.005,3.267,0,.006-1.1.011-2.187.022-3.283l3.278-.016V51.968c-1.09-.005-2.187-.011-3.278-.022-.006-1.091-.016-2.187-.022-3.278Z" transform="translate(-46.173 -42.105)"/><path class="b" d="M19.524,46.942a11.541,11.541,0,0,1,19.13-8.633c-.938,1.031-1.892,2.05-2.911,3-2.012-1.222-4.435-2.154-6.786-1.327a7.251,7.251,0,1,0,4.884,13.643,6.344,6.344,0,0,0,3.727-4.346c-2.192-.044-4.385-.016-6.577-.077-.005-1.3-.011-2.6-.005-3.908,3.656-.005,7.318-.016,10.979.016.225,3.2-.247,6.616-2.324,9.181-2.845,3.661-8.1,4.736-12.377,3.3A11.474,11.474,0,0,1,19.524,46.942Z" transform="translate(-19.517 -35.445)"/><path class="b" d="M75.748,48.668h3.261c.006,1.091.016,2.187.022,3.278,1.09.011,2.187.016,3.278.022v3.267l-3.278.016c-.011,1.1-.016,2.187-.022,3.283-1.09-.005-2.182,0-3.267,0-.01-1.1-.01-2.187-.022-3.278-1.09-.011-2.187-.016-3.278-.022V51.967q1.636-.008,3.278-.022C75.725,50.855,75.736,49.759,75.748,48.668Z" transform="translate(-46.173 -42.105)"/></g></g></svg>