<svg xmlns="http://www.w3.org/2000/svg" x="0px" y="0px" viewBox="0 0 25 25"><path fill="#F9AB00" d="M8.8,21.3l3.7,3.7l3.7-3.7h5.2v-5.2l3.7-3.7l-3.7-3.7V3.6h-5.2L12.5,0l-1,1L9.6,2.9L8.8,3.6H3.7v5.2L0,12.5 l2.9,2.9l0.8,0.8v5.2H8.8z"/><path fill="#E37400" d="M19.7,12.5c0,4-3.2,7.2-7.2,7.2s-7.2-3.2-7.2-7.2s3.2-7.2,7.2-7.2C16.5,5.3,19.7,8.5,19.7,12.5C19.7,12.5,19.7,12.5,19.7,12.5L19.7,12.5z"/><path fill="#FFFFFF" d="M11.2,15.5l1.8-6.6l1,0.3l-1.8,6.6L11.2,15.5z"/><path fill="#FFFFFF" d="M10,10l0.8,0.7l-1.5,1.7l1.5,1.7L10,14.7l-2.1-2.3C7.9,12.3,10,10,10,10z M15,10l2.1,2.3L15,14.6L14.3,14l1.5-1.7l-1.5-1.7C14.3,10.6,15,10,15,10z"/></svg>
