<svg id="Layer_1" data-name="Layer 1" xmlns="http://www.w3.org/2000/svg" viewBox="0 0 543.44 547.77"><defs><style>.cls-1{fill:#fbbc05;}.cls-2{fill:none;stroke:#fff;stroke-miterlimit:10;stroke-width:15.61px;}.cls-3{fill:#ea4335;}.cls-4{fill:#f9ab00;}.cls-5{fill:#e37400;}.cls-6{fill:#202124;}</style></defs><title>SeasonOfDocs_Logo</title><path class="cls-1" d="M166.9,447.31a34.93,34.93,0,0,1-34.81-34.82V134A34.91,34.91,0,0,1,166.9,99.19H328.36l82.23,81.31v232a34.93,34.93,0,0,1-34.82,34.82Z"/><ellipse class="cls-2" cx="271.34" cy="294.84" rx="94.5" ry="185.21" transform="translate(-103.24 437.12) rotate(-68.18)"/><circle class="cls-3" cx="131.75" cy="315.86" r="30.11"/><path class="cls-1" d="M132.09,265.13V134A34.91,34.91,0,0,1,166.9,99.19H328.36l82.23,81.31V304.77Z"/><path class="cls-4" d="M132.05,134.07v46.44H410.59L329.28,99.22H166.91a35,35,0,0,0-34.86,34.85Z"/><polygon class="cls-5" points="410.59 180.5 329.28 180.5 329.28 99.2 410.59 180.5"/><path class="cls-6" d="M246.77,354.26,279.6,232.59l18,4.87L264.81,359.13Z"/><path class="cls-6" d="M225.25,252.85l13.92,12.46-27.48,30.77,27.48,30.59-13.92,12.46L186.6,295.9Zm92.14-.18,38.83,43-38.65,43.05L303.65,326.3l27.48-30.59-27.48-30.59Z"/></svg>