<svg width="20" height="20" viewBox="0 0 20 20" fill="none" xmlns="http://www.w3.org/2000/svg">
  <path
    d="M3.33333 9.44419L0 7.50002L10 1.66669L20 7.50002V14.5834H18.3333V8.47252L16.6667 9.44419V15.0092L16.4808 15.2384C15.7005 16.2057 14.7133 16.9859 13.5917 17.5215C12.4702 18.0571 11.2429 18.3345 10 18.3334C8.75713 18.3345 7.52981 18.0571 6.40828 17.5215C5.28674 16.9859 4.29951 16.2057 3.51917 15.2384L3.33333 15.0092V9.44419ZM5 10.4167V14.41C5.62496 15.1202 6.39424 15.6888 7.25647 16.0779C8.11869 16.4671 9.05402 16.6678 10 16.6667C10.946 16.6678 11.8813 16.4671 12.7435 16.0779C13.6058 15.6888 14.375 15.1202 15 14.41V10.4167L10 13.3334L5 10.4167ZM3.30833 7.50002L10 11.4042L16.6917 7.50002L10 3.59585L3.30833 7.50002Z"
    fill="#71717A" />
</svg>
  