<svg xmlns="http://www.w3.org/2000/svg" width="656.684" height="524.87"><defs><style>.a{fill:#6c63ff}.a,.e{opacity:.1}.b{fill:#42b983}.c{fill:#46455b}.f{fill:#323444}.g{fill:#fbb3b2}.h{fill:#5b5583}.i{fill:#3c354c}.k{fill:#a8a8a8}.l{opacity:.2}</style></defs><rect class="a" width="59.55" height="18.003" rx="7.43" transform="translate(134.244 90.017)"/><rect class="a" width="59.55" height="18.003" rx="7.43" transform="translate(196.563 108.021)"/><rect class="a" width="59.55" height="18.003" rx="7.43" transform="translate(258.883 126.024)"/><rect class="a" width="59.55" height="18.003" rx="7.43" transform="translate(134.244 63.012)"/><rect class="a" width="59.55" height="18.003" rx="7.43" transform="translate(196.563 81.016)"/><rect class="a" width="59.55" height="18.003" rx="7.43" transform="translate(258.883 99.019)"/><rect class="a" width="59.55" height="18.003" rx="7.43" transform="translate(328.127 90.017)"/><rect class="a" width="59.55" height="18.003" rx="7.43" transform="translate(390.447 108.021)"/><rect class="a" width="59.55" height="18.003" rx="7.43" transform="translate(452.766 126.024)"/><rect class="a" width="59.55" height="18.003" rx="7.43" transform="translate(328.127 63.012)"/><rect class="a" width="59.55" height="18.003" rx="7.43" transform="translate(390.447 81.016)"/><rect class="a" width="59.55" height="18.003" rx="7.43" transform="translate(452.766 99.019)"/><rect class="a" width="59.55" height="18.003" rx="7.43" transform="translate(134.244 27.005)"/><rect class="a" width="59.55" height="18.003" rx="7.43" transform="translate(196.563 45.009)"/><rect class="a" width="59.55" height="18.003" rx="7.43" transform="translate(258.883 63.012)"/><rect class="a" width="59.55" height="18.003" rx="7.43" transform="translate(134.244)"/><rect class="a" width="59.55" height="18.003" rx="7.43" transform="translate(196.563 18.003)"/><rect class="a" width="59.55" height="18.003" rx="7.43" transform="translate(258.883 36.007)"/><rect class="a" width="59.55" height="18.003" rx="7.43" transform="translate(328.127 27.005)"/><rect class="a" width="59.55" height="18.003" rx="7.43" transform="translate(390.447 45.009)"/><rect class="a" width="59.55" height="18.003" rx="7.43" transform="translate(452.766 63.012)"/><rect class="a" width="59.55" height="18.003" rx="7.43" transform="translate(328.127)"/><rect class="a" width="59.55" height="18.003" rx="7.43" transform="translate(390.447 18.003)"/><rect class="a" width="59.55" height="18.003" rx="7.43" transform="translate(452.766 36.007)"/><rect class="a" width="59.55" height="18.003" rx="7.43" transform="translate(134.244 410.618)"/><rect class="a" width="59.55" height="18.003" rx="7.43" transform="translate(196.563 428.621)"/><rect class="a" width="59.55" height="18.003" rx="7.43" transform="translate(258.883 446.625)"/><rect class="a" width="59.55" height="18.003" rx="7.43" transform="translate(134.244 383.612)"/><rect class="a" width="59.55" height="18.003" rx="7.43" transform="translate(196.563 401.616)"/><rect class="a" width="59.55" height="18.003" rx="7.43" transform="translate(258.883 419.619)"/><rect class="a" width="59.55" height="18.003" rx="7.43" transform="translate(328.127 410.618)"/><rect class="a" width="59.55" height="18.003" rx="7.43" transform="translate(390.447 428.621)"/><rect class="a" width="59.55" height="18.003" rx="7.43" transform="translate(452.766 446.625)"/><rect class="a" width="59.55" height="18.003" rx="7.43" transform="translate(328.127 383.612)"/><rect class="a" width="59.55" height="18.003" rx="7.43" transform="translate(390.447 401.616)"/><rect class="a" width="59.55" height="18.003" rx="7.43" transform="translate(452.766 419.619)"/><rect class="a" width="59.55" height="18.003" rx="7.43" transform="translate(134.244 347.605)"/><rect class="a" width="59.55" height="18.003" rx="7.43" transform="translate(196.563 365.609)"/><rect class="a" width="59.55" height="18.003" rx="7.43" transform="translate(258.883 383.612)"/><rect class="a" width="59.55" height="18.003" rx="7.43" transform="translate(134.244 320.6)"/><rect class="a" width="59.55" height="18.003" rx="7.43" transform="translate(196.563 338.604)"/><rect class="a" width="59.55" height="18.003" rx="7.43" transform="translate(258.883 356.607)"/><rect class="a" width="59.55" height="18.003" rx="7.43" transform="translate(328.127 347.605)"/><rect class="a" width="59.55" height="18.003" rx="7.43" transform="translate(390.447 365.609)"/><rect class="a" width="59.55" height="18.003" rx="7.43" transform="translate(452.766 383.612)"/><rect class="a" width="59.55" height="18.003" rx="7.43" transform="translate(328.127 320.6)"/><rect class="a" width="59.55" height="18.003" rx="7.43" transform="translate(390.447 338.604)"/><rect class="a" width="59.55" height="18.003" rx="7.43" transform="translate(452.766 356.607)"/><ellipse class="a" cx="303.635" cy="24.928" rx="303.635" ry="24.928" transform="translate(30.377 475.015)"/><path class="b" d="M58.615 129.345c28.632 12.409 45.085 38.084 45.085 38.084s-29.976 5.54-58.615-6.862S0 122.483 0 122.483s29.98-5.543 58.615 6.862zM146.486 81.708c8.853-14.542 23.938-21.466 23.938-21.466s.692 16.577-8.136 31.077-23.949 21.417-23.949 21.417-.716-16.57 8.147-31.028z"/><path class="c" d="M81.383 97.267c6.336 22.615 23.8 37.5 23.8 37.5s7.194-21.791.859-44.413-23.806-37.5-23.806-37.5-7.196 21.791-.853 44.413z"/><rect width="504.79" height="252.741" rx="7.21" transform="translate(82.31 96.249)" fill="#3f3d56"/><path class="e" d="M82.31 333.757H587.1v10.241a4.992 4.992 0 01-4.992 4.992h-494.8a4.993 4.993 0 01-4.993-4.992z"/><rect class="b" width="37.392" height="18.696" rx="2.5" transform="translate(131.474 315.061)"/><rect class="b" width="25.62" height="2.77" rx="1.385" transform="translate(179.252 330.987)"/><path class="b" d="M156.506 145.676c18.273 3.372 36.914 0 55.111-2.285l55.305-6.924c2.237-.284 5.491-1.62 6.807 1.115.741 1.53.242 4.847.3 6.606.145 4.847.132 9.694 0 14.541-.249 9.265-.928 18.509-1.793 27.732-1.683 18.052-4.065 36.007-5.256 54.128-.609 9.223-.914 18.474-.644 27.7.062 2.2.152 4.4.284 6.6.145 2.458 1.246 6.107-1.433 7.748-1.53.942-4.542.893-6.294 1.17-2.77.436-5.54.782-8.365 1.066-18.62 1.863-37.482 1.087-56.171.976l-56.434-.291-13.766-.076c-1.246 0-5.74.748-6.509-.734-.325-.63.54-3.58.692-4.369q.319-1.953.693-3.9c1.606-9.106 3.5-18.156 5.415-27.2 4.106-19.388 8.309-38.874 10-58.677.838-9.937.284-19.963 1.309-29.879.478-4.6 1.046-14.881 7.174-15.289 5.193-.346 10.539 0 15.746 0a1.039 1.039 0 000-2.077c-4.916 0-9.84-.132-14.756-.035-3.268.062-5.54.838-7.1 3.843-3.982 7.714-3.573 18-3.7 26.424-.3 20.157-3.393 39.885-7.423 59.6-2.029 9.923-4.217 19.811-6.232 29.74-.949 4.743-1.856 9.5-2.687 14.271-.388 2.271-2.347 7.278-.623 9.362s7.028.963 9.4.976l16.522.1 31.658.18c20.455.118 40.979.692 61.426.09 9.763-.291 20.081-.692 29.588-3.026 2.832-.692 4.2-1.994 4.307-5.013.166-4.681-.6-9.507-.692-14.209-.692-40.231 8.759-79.9 7.79-120.146-.062-2.735.969-9.632-2.022-11.287-1.343-.748-3.088-.339-4.5-.173-2.7.312-5.394.692-8.095 1.011l-35.072 4.376c-11.211 1.385-22.414 2.881-33.646 4.155-11.889 1.385-23.9 2.209-35.744 0-1.309-.242-1.87 1.759-.554 2z"/><path class="b" d="M134.458 170.154l138.364-6.786c1.336-.069 1.343-2.147 0-2.077l-138.364 6.786c-1.33.061-1.336 2.139 0 2.077zM177.085 153.03a3.462 3.462 0 001.226 5.588c1.863.852 4.051.138 5.9-.326 2.77-.692 5.54-1.309 8.385-1.814a114.358 114.358 0 0118.758-1.745c2.867-.035 5.713.1 8.579.222 2.077.083 4.314.249 6.073-1.039 2.008-1.468 2.659-4.335.692-6.121-2.77-2.527-8.739-1.059-11.938-.8a267.712 267.712 0 00-34.525 5.152c-1.3.277-.755 2.285.554 2q11.266-2.43 22.705-3.905 5.623-.692 11.266-1.17c1.773-.145 3.545-.277 5.318-.381.693-.042 1.426-.118 2.133-.1 2.2.048 2.451-.346 1.136 2.306-1.17 2.347-.8 2.077-2.825 2-.859 0-1.717-.1-2.576-.138q-2.638-.111-5.276-.118-5.616 0-11.2.54c-3.158.3-6.308.734-9.431 1.288-1.953.346-3.892.748-5.823 1.191-.852.2-1.71.409-2.562.623-.409.111-.824.208-1.233.312q-2.271.789-3.871-2.077c.928-.962-.533-2.437-1.468-1.468zM202.165 182.583c-10.02-.388-20.843 2.32-27.441 10.387-5.166 6.308-8.108 17.131-2.638 24.235 5.879 7.617 18.772 6.273 26.548 3.026 8.226-3.462 17.228-10.6 19.7-19.534 3.081-11.155-6.924-19.589-17.346-19.714a1.039 1.039 0 000 2.077c5.941.069 11.771 2.617 14.541 8.15 2.9 5.83.4 11.952-3.462 16.619-6.19 7.43-15.871 13.032-25.731 12.872-5.92-.09-12.464-2.119-14.3-8.365-1.509-5.062-.36-10.594 2.271-15.081 5.692-9.694 17.276-12.976 27.9-12.561 1.336.048 1.336-2.029 0-2.077z"/><path class="b" d="M192.215 197.969a2.7 2.7 0 00-3.628 2.77c.208 2.7 3.185 3.462 5.422 3.3 1.932-.166 4.189-.879 3.511-3.3a3.1 3.1 0 00-1.69-1.953 3.912 3.912 0 00-1.953-.242c-.256 0-2.6.859-1.606-.173l-1.634-.215a1.7 1.7 0 01.5 1.385 1.046 1.046 0 001.558.893 1.385 1.385 0 011.876 1.62 1.046 1.046 0 001.9.8c.692-1.246 1.53-3.725.492-5.027-.692-.879-2.029-.616-2.86-.1a10.02 10.02 0 00-1.426 1.226c-.838.741-1.385 1.087-1.073-.332.519-2.583 2.984-4.639 5.235-5.671l-1.523-1.17a21.9 21.9 0 01-4.189 8.205l1.773.734a4.625 4.625 0 012.825-4.508h-1.024l.54.886c-.2 1.309 1.8 1.87 2 .547.263-1.71-.817-3.933-2.818-3.1-2.389 1-3.628 3.732-3.58 6.17 0 .831 1.177 1.475 1.78.741a24.416 24.416 0 004.716-9.133 1.053 1.053 0 00-1.53-1.17 11.613 11.613 0 00-5.041 4.39c-.845 1.385-1.9 3.545-1.046 5.138a2.2 2.2 0 003.012.852 8.1 8.1 0 001.738-1.385c.256-.228.54-.623.879-.692.3-.208.291-.09-.048.367a3.775 3.775 0 01-.6 2.022l1.9.8a3.462 3.462 0 00-4.923-3.968l1.565.9a3.774 3.774 0 00-.782-2.444 1.053 1.053 0 00-1.627-.215 2.717 2.717 0 00.069 4.023c.99.755 1.475 0 2.562-.173 3.691-.478 1.537 1.184.235 1.24a4.911 4.911 0 01-1.738-.125q-2.167-.734-.27-1.89c1.24.505 1.773-1.5.554-2z"/><path class="b" d="M190.546 201.763c.852 2.77-2.666 3.684-4.335 4.639a9.654 9.654 0 00-3 2.624c-1.745 2.34-2.4 5.318-2.971 8.122-.263 1.309 1.738 1.863 2.008.554a23.541 23.541 0 011.752-5.976c1.246-2.479 3.033-3.31 5.359-4.584s4.009-3.248 3.185-5.934c-.388-1.274-2.4-.727-2 .554z"/><path class="b" d="M194.008 200.372a2.008 2.008 0 00-1.731 2.077c0 .824.547 1.35.921 2.008a15.855 15.855 0 012.008 4.369c.332 1.489.658 4.155-.118 5.54-1.433 2.569-4.023 2.077-6.232 2.077-2.077 0-3.684.692-3.615-2.2.042-1.627 1.177-3.275 2.077-4.556l-1.9-.249a36.2 36.2 0 01.63 6.412c0 .962 1.475 1.5 1.932.519a40.112 40.112 0 002.638-7.3l-2.043-.277.36 5.263a1.046 1.046 0 001.932.526 2.355 2.355 0 00.519-.935c.069-.325-.568-2.521-.824-1.738l2.036.277.145-5-2.077.277a10.347 10.347 0 01.388 4.362c-.132 1.156 1.814 1.42 2.077.277l1.3-6.717-1.9.242a4.592 4.592 0 01.353 2.991c-.152 1.329 1.925 1.316 2.077 0a7.3 7.3 0 00-.637-4.037 1.046 1.046 0 00-1.9.249l-1.309 6.717 2.043.277a11.328 11.328 0 00-.464-4.909 1.039 1.039 0 00-2.036.27l-.145 5a1.044 1.044 0 002.043.277l.111-.339a1.052 1.052 0 00-.263-1.011c-2.154-2.34-2.59 1.385-3.338 2.417l1.939.526-.36-5.263a1.045 1.045 0 00-2.043-.277 37.233 37.233 0 01-2.424 6.807l1.939.526a39.15 39.15 0 00-.692-6.966c-.18-.956-1.433-.914-1.9-.249-1.385 1.994-3.781 6.35-1.932 8.739 1.613 2.077 6.689 1.274 8.856 1.143 3.421-.194 4.66-2.361 5.034-5.588a13.683 13.683 0 00-.256-4.626c-.187-.817-2.077-6-2.645-5.893 1.316-.242.755-2.25-.554-2.008z"/><path class="b" d="M189.985 205.039l-5.671 7.485 1.793 1.046 4.155-6.01-1.9-.8-2.07 7.9a1.046 1.046 0 001.9.8 36.506 36.506 0 013.164-4.452l-1.731-1.011a11.309 11.309 0 01-2.611 4.8l1.738 1.011a9.28 9.28 0 01.755-2.77c.533-1.2-1.156-2.257-1.793-1.052a24.379 24.379 0 01-2 3.144l1.9.249.422-1.974-1.9-.249.3 1.731a1.046 1.046 0 001.738.457 20.677 20.677 0 004.155-6.267h-1.783a9.328 9.328 0 01.976 2.77c.249 1.246 1.9.783 2.036-.277a56.3 56.3 0 00.457-6.994h-2.077v4.355c0 1.129 1.849 1.461 2.043.277a7.936 7.936 0 011.018-2.978h-1.821a4.618 4.618 0 01.692 2.354 1.039 1.039 0 102.077 0l.259-1.385h-2c.2 1.226.963 8.129-1.745 7.319-.457-.111-.589-.083-.395.076l.616-1.316 1.447-3.067-1.939-.526c.125 1.426.256 3.462-.6 4.681a3.587 3.587 0 01-3.912.8 6.926 6.926 0 01-1.807-1.9l-1.419 1.385c1.149.838 3.012 2.894 4.494 3.012 1.129.09 2.077-.845 2.818-1.593a12.069 12.069 0 003.386-8.884 1.039 1.039 0 10-2.077 0v2.368a1.039 1.039 0 002.077 0v-5.81a1.039 1.039 0 10-2.077 0 24.925 24.925 0 01-.36 4.155l2.043.277a47.865 47.865 0 01-.229-4.979 1.039 1.039 0 00-2.036-.277c-.312 1.323-.692 2.624-1.059 3.919l1.9-.249-.145-.554c-.1-1.323-2.174-1.329-2.077 0a3.8 3.8 0 00.429 1.606 1.05 1.05 0 001.9-.249c.395-1.3.748-2.6 1.059-3.919l-2.047-.275a47.832 47.832 0 00.229 4.979c.1 1.066 1.821 1.523 2.036.277a28.615 28.615 0 00.436-4.736h-2.077v5.81h2.077v-2.368h-2.077a9.985 9.985 0 01-2.527 7.118 8.507 8.507 0 01-.872.859c-.492.471-.942.4-1.336-.215a17.3 17.3 0 01-2.86-2.077c-.859-.616-2.036.6-1.426 1.42 1.593 2.119 3.968 4.48 6.924 3.462 3.109-1.1 3.531-5.311 3.3-8.081-.076-.921-1.454-1.544-1.932-.519-.692 1.461-1.385 2.915-2.077 4.383a3.873 3.873 0 00-.623 1.828c.229 1.558 2.119 1.3 3.282 1.212 4.508-.339 3.795-6.73 3.275-9.943-.173-1.066-1.724-.9-2 0a6.116 6.116 0 00-.339 1.966h2.077a8.233 8.233 0 00-.976-3.4 1.046 1.046 0 00-1.793 0 10.1 10.1 0 00-1.232 3.462l2.077.277v-4.355a1.039 1.039 0 10-2.077 0 56.282 56.282 0 01-.457 6.994l2.043-.277a11.887 11.887 0 00-1.184-3.241 1.046 1.046 0 00-1.793 0 18.945 18.945 0 01-3.829 5.844l1.738.457-.3-1.731c-.159-.921-1.461-.949-1.9-.249a4.556 4.556 0 00-.63 3.573c.173.983 1.419.879 1.9.249a24.294 24.294 0 002-3.137l-1.793-1.052a11.811 11.811 0 00-.969 3.261c-.125.914.963 1.87 1.738 1.011a13.849 13.849 0 003.144-5.72c.256-.942-1.046-1.835-1.738-1.011a39.669 39.669 0 00-3.462 4.847l1.9.8 2.112-7.873a1.046 1.046 0 00-1.9-.8l-4.155 6.017c-.776 1.115 1 2.077 1.793 1.046l5.65-7.478c.8-1.066-1-2.077-1.793-1.052zM278.327 230.029c8.309-5.082 14.915-12.665 22.255-19.008 7.963-6.876 16.321-13.281 24.928-19.347 16.715-11.772 34.269-22.3 51.808-32.808a1.039 1.039 0 00-1.046-1.793c-17.54 10.5-35.1 21.016-51.815 32.808-7.887 5.54-15.587 11.411-22.968 17.643-8.036 6.786-15.185 15.234-24.236 20.711-1.143.692-.1 2.493 1.046 1.793z"/><path class="b" d="M404.136 126.613c-9 .914-18.7 3.206-24.235 11.079-4.785 6.772-4.681 18.585-.187 25.537 5.1 7.9 15.531 8.185 23.633 5.63s16.487-7.035 16.411-16.715c-.042-5.193-1.918-10.6-3.988-15.31-1.787-4.065-4.951-7.617-9.743-7.167-1.323.125-1.336 2.2 0 2.077 6.419-.6 8.482 7.028 10.006 11.841 1.385 4.494 2.666 9.812.492 14.278s-7.416 6.744-11.9 8.379c-4.847 1.759-10.172 2.832-15.234 1.385-10.027-2.8-12.8-15.511-9.909-24.526 3.324-10.387 15.1-13.44 24.685-14.41 1.316-.132 1.33-2.209 0-2.077zM417.985 206.936c-9 .914-18.7 3.206-24.236 11.079-4.785 6.772-4.681 18.585-.187 25.537 5.1 7.9 15.531 8.185 23.633 5.63s16.487-7.035 16.411-16.716c-.042-5.193-1.918-10.6-3.989-15.31-1.785-4.067-4.95-7.616-9.74-7.167-1.322.125-1.336 2.2 0 2.077 6.419-.6 8.482 7.028 10.006 11.841 1.385 4.494 2.666 9.812.492 14.278s-7.416 6.744-11.9 8.379c-4.847 1.759-10.172 2.832-15.234 1.385-10.027-2.8-12.8-15.511-9.909-24.526 3.324-10.387 15.1-13.44 24.686-14.41 1.316-.132 1.329-2.209 0-2.077z"/><path class="b" d="M390.558 146.839l6.557 7.478a1.046 1.046 0 001.731-.464c1.385-3.642 1.122-7.416 1.447-11.245a37.025 37.025 0 012.943-11.474 38.727 38.727 0 0115.5-17.761c1.143-.692.1-2.493-1.046-1.793a40.66 40.66 0 00-15.67 17.214 39.79 39.79 0 00-3.462 10.989c-.692 4.494-.062 9.2-1.724 13.516l1.738-.464-6.523-7.465c-.886-1-2.347.471-1.468 1.468zM281.672 238.12q53.574-1.634 107.176-.692a1.039 1.039 0 000-2.077q-53.588-.956-107.176.692c-1.337.045-1.344 2.123 0 2.077zM396.312 217.641a214.6 214.6 0 0135.086 17.63c1.136.692 2.181-1.087 1.046-1.793a216.9 216.9 0 00-35.55-17.837c-1.24-.492-1.78 1.516-.547 2z"/><path class="b" d="M418.484 208.231a84.824 84.824 0 00-20.365 51.608c-.055 1.336 2.022 1.336 2.077 0a82.5 82.5 0 0119.755-50.14c.866-1.011-.6-2.486-1.468-1.468zM141.542 230.583l77.394-1.011 8.9-.118c1.6 0 3.2-.055 4.8-.062a3.816 3.816 0 013.725 4.155c-.1 4.847-3.151 4.674-7.139 4.847l-9.618.436-39.164 1.724c-7.014.312-14.036.692-21.05.935-6.329.194-18.364-1.87-15.552-11.079.388-1.281-1.613-1.828-2.008-.554-1.385 4.529 1.066 9.126 5.013 11.5 5.6 3.365 12.983 2.223 19.167 1.946l48.083-2.181 11.675-.519c2.991-.138 7.153.471 9.9-.921 3.227-1.627 3.795-8.088 1.759-10.809-1.046-1.385-2.514-1.51-4.155-1.572-4.307-.166-8.69.118-13 .173l-23.972.319-54.779.692a1.039 1.039 0 000 2.077z"/><g transform="translate(444.507 155.537)"><path class="f" d="M9.727 329.518c-1.745 1.094-3.739 1.71-5.539 2.673s-3.552 2.41-4.065 4.4a2.769 2.769 0 00.09 1.883 3.656 3.656 0 001.939 1.537 29.422 29.422 0 0023.273.263 30.657 30.657 0 014.016-1.593 26.105 26.105 0 015.145-.526 39.535 39.535 0 005.408-.692 4.757 4.757 0 002.451-1.018 4.55 4.55 0 001.1-2.645 21.778 21.778 0 00-3.462-15.428 5.212 5.212 0 00-1.509-1.6 5.822 5.822 0 00-2.4-.644c-3.462-.422-7.091-1.2-10.587-1.281-2.507-.055-3.767 1.135-5.54 2.86-3.665 3.668-5.809 8.993-10.32 11.811zM60.754 329.006c0 3.393.409 6.987 2.465 9.694a12.807 12.807 0 003.365 2.943c4.348 2.77 10.109 3.788 14.693 1.44a4.363 4.363 0 001.828-1.537c.693-1.2.326-2.707-.062-4.037l-6.634-22.989c-4.286.658-10.587 1.122-14.4 3.3-2.758 1.568-1.255 8.153-1.255 11.186z"/><path class="g" d="M5.836 187.45c-.4 1.267-1.856 1.856-2.652 2.922-.935 1.253-.838 2.991-.5 4.515a11.937 11.937 0 003.04 5.99 7.181 7.181 0 006.228 2.118 5.193 5.193 0 004.231-4.66 8.823 8.823 0 00-.651-3l-4.723-13.655a.517.517 0 00-.852-.374c-1.115.526-3.351 1.08-4 2.237s.349 2.652-.121 3.907z"/><path class="f" d="M3.627 186.765c1.724-.27 3.234-1.281 4.847-1.946s3.635-.921 4.992.187c.388.319.762.755 1.267.748a49.584 49.584 0 00-3.1-9.86.77.77 0 00-.27-.381.783.783 0 00-.588 0l-4.66 1.219c-1.724.45-1.925.312-1.794 2.008.033.754.421 8.025-.694 8.025z"/><path class="h" d="M3.115 88.16a6.564 6.564 0 00-.692 3.649 124.065 124.065 0 00.969 18.357c.215 1.454.485 2.908.623 4.376a50.474 50.474 0 01.1 6.142l-.695 26.658c-.083 3.261-.249 6.765-2.264 9.327a4.459 4.459 0 00-.81 2.957c.526 6.689 1.634 13.323 2.735 19.935a12.319 12.319 0 0111.176.533 123.017 123.017 0 005.74-33.93c.159-5.671-.083-11.377.789-16.979 1.461-9.431.866-19.1-.208-28.591-.339-3.005-1.059-6.1-2.984-8.427a12.776 12.776 0 00-6.924-3.989c-2.563-.669-4.855.024-7.555-.018z"/><path class="e" d="M3.115 88.16a6.564 6.564 0 00-.692 3.649 124.065 124.065 0 00.969 18.357c.215 1.454.485 2.908.623 4.376a50.474 50.474 0 01.1 6.142l-.695 26.658c-.083 3.261-.249 6.765-2.264 9.327a4.459 4.459 0 00-.81 2.957c.526 6.689 1.634 13.323 2.735 19.935a12.319 12.319 0 0111.176.533 123.017 123.017 0 005.74-33.93c.159-5.671-.083-11.377.789-16.979 1.461-9.431.866-19.1-.208-28.591-.339-3.005-1.059-6.1-2.984-8.427a12.776 12.776 0 00-6.924-3.989c-2.563-.669-4.855.024-7.555-.018z"/><path class="i" d="M11.576 165.472a122.292 122.292 0 007.284 70.8 19.2 19.2 0 011.69 5.235c.381 3.393-1.184 6.654-2.077 9.937-2.077 7.464-.879 15.414.45 23.051q.831 4.778 1.71 9.549c.575 3.1 1.129 6.474-.312 9.286 1.24 5.166 1.973 10.283 3.213 15.448a2.936 2.936 0 01.118 1.267 3.732 3.732 0 01-1.267 1.7 7.575 7.575 0 00-1.932 7.25c3.165-2.271 7.575-1.475 11.19 0s7.174 3.462 11.079 3.462c-.568-4.584-1.115-9.4.575-13.7.983-2.493 2.714-4.847 2.666-7.513-.048-2.389-1.51-4.522-1.863-6.883a17.424 17.424 0 01.166-4.4c.928-8.475-.125-17.034-1.177-25.5a15.234 15.234 0 00-1.163-4.847c-.492-1-1.226-1.953-1.212-3.068 0-1.295 1.046-2.347 1.433-3.58.692-2.271-.582-5.359 1.336-6.765 5.055-3.711 3.116-12.575 3.005-18.841q-.131-8.108-.692-16.2a69.016 69.016 0 013.822 27.933c-.222 3.1-.63 6.364.582 9.23.928 2.2 2.77 4.016 3.268 6.35a26.563 26.563 0 01.159 4.4 4.53 4.53 0 001.835 3.808c.1 6.675.692 13.814.8 20.489a50.552 50.552 0 00.831 10.179 12.978 12.978 0 01.512 3.282 13.718 13.718 0 01-1.094 4.037 23.148 23.148 0 003.462 21.362c1.634-2.9 5.041-4.439 8.365-4.681s6.606.6 9.826 1.44a19.244 19.244 0 012.3-11.7 9.576 9.576 0 001.212-2.6c.374-1.759-.5-3.511-.969-5.249-.769-2.77-.5-5.754-.319-8.649a136.852 136.852 0 00-1.286-29.042 24.591 24.591 0 00-1.323-5.54c-.249-.637-.554-1.246-.762-1.89a14.9 14.9 0 01-.554-3.545l-.8-11.079c-.561-7.762 1.987-15.428 3.767-23 .8-3.393 1.662-6.779 2.2-10.227.727-4.695.845-9.493 1.911-14.126.956-4.155 2.68-8.205 3.04-12.464.554-6.6-2.188-12.976-4.847-19.028-1.108-2.493-5.3-2.244-7.991-2.687-19.1-3.137-39.227-3.158-57.244 3.912a14.244 14.244 0 00-4.923 3.397z"/><path class="g" d="M25.349 42.571l2.119 8.24a22.026 22.026 0 01.949 5.823 4.3 4.3 0 01-.464 2.077 4.952 4.952 0 01-1.316 1.343c-1.447 1.1-2.451 3.67-4.106 4.432.852 1.482 2.029.519 3.566 1.26 2.707 1.316 5.186 3.206 8.122 3.857 2.77.609 5.678.035 8.427-.692a29.1 29.1 0 0010.913-5.076c3.137-2.555 4.923-4.812 4.909-8.849-3.462.409-6.544-3.088-8.074-6.232a16.936 16.936 0 01-1.163-3.732l-1.856-8.164c-2.022.443-3.67 1.89-5.6 2.645a20.337 20.337 0 01-6.363.921 68.551 68.551 0 00-11.328 1.468c-.513.1-1.156.429-1.032.928"/><path class="e" d="M25.349 42.571l2.119 8.24a22.026 22.026 0 01.949 5.823 4.3 4.3 0 01-.464 2.077 4.952 4.952 0 01-1.316 1.343c-1.447 1.1-2.451 3.67-4.106 4.432.852 1.482 2.029.519 3.566 1.26 2.707 1.316 5.186 3.206 8.122 3.857 2.77.609 5.678.035 8.427-.692a29.1 29.1 0 0010.913-5.076c3.137-2.555 4.923-4.812 4.909-8.849-3.462.409-6.544-3.088-8.074-6.232a16.936 16.936 0 01-1.163-3.732l-1.856-8.164c-2.022.443-3.67 1.89-5.6 2.645a20.337 20.337 0 01-6.363.921 68.551 68.551 0 00-11.328 1.468c-.513.1-1.156.429-1.032.928"/><circle class="g" cx="18.336" cy="18.336" r="18.336" transform="translate(16.112 10.441)"/><path class="f" d="M39.496 59.002a16.619 16.619 0 014.155-5.54c2.583-2.264 6.114-4.1 6.724-7.478L55.97 52.5a3.011 3.011 0 01.693 1.066 2.686 2.686 0 01-.526 2.154c-1.385 2.209-3.566 3.788-5.629 5.387a170.972 170.972 0 00-13.565 11.965 1.385 1.385 0 01-.727.443 1.309 1.309 0 01-.755-.215 31.5 31.5 0 01-9.673-7.866c-.2-.242-.45-.519-.776-.5a1 1 0 00-.519.27c-1.863 1.523-3.9 3.344-6.287 3.109 3.1-2.223 4.847-5.934 5.5-9.694a18.311 18.311 0 01.789-3.788 3.954 3.954 0 012.7-2.562c-1.51 2.306-.478 5.574 1.551 7.437a15.289 15.289 0 006.869 3.331c2.35.445 3.038-2.221 3.881-4.035zM15.641 167.355c2.611.644 5.083 1.738 7.617 2.548a36.4 36.4 0 0014.3 1.5 7.722 7.722 0 004.155-1.323c.325-.263.623-.575.969-.817a6.781 6.781 0 011.863-.769c6.35-1.987 11.668-6.273 16.826-10.47.166-.138.353-.312.339-.533a.693.693 0 00-.208-.395l-2.715-3.112c-7.118 1.212-14.41.755-21.632.575a31.426 31.426 0 00-4.446.118c-1.426.166-2.832.526-4.238.831-5.339 1.163-10.8 1.606-16.2 2.368a2.5 2.5 0 00-1.073.332 2.416 2.416 0 00-.575.637l-1.9 2.666a8.386 8.386 0 00-1.593 3.054c-.443 2.077.485 2.77 2.25 2.5a16.439 16.439 0 016.261.29z"/><path class="h" d="M36.864 69.901a33.727 33.727 0 00-7.139-5.574 10.117 10.117 0 00-3.462-1.385 4.321 4.321 0 00-3.545.872c-.616.547-1 1.309-1.6 1.883a7.955 7.955 0 01-2.534 1.433 44.954 44.954 0 00-8.9 5.076 20.428 20.428 0 00-4.037 3.725c-3.137 4.016-3.608 9.48-3.525 14.576.062 3.545 3.462 6.177 5.8 8.829a65.07 65.07 0 015.941 8.309c1.26 1.994 2.576 4.155 2.417 6.53-.132 1.946-1.267 3.774-1.087 5.713.062.692.284 1.329.346 2 .125 1.385-.422 2.77-.561 4.155-.187 1.96.45 3.905.485 5.879a18.682 18.682 0 01-.512 4.009c-1.329 6.329-3 12.692-2.659 19.153l-3.836.692a3.241 3.241 0 01-.741 5.173c5.99 2 12.464.99 18.813.983 5.256 0 10.491.692 15.739.6s10.664-1.046 14.991-4.016c1.177-.8 2.257-1.745 3.5-2.444a17.25 17.25 0 015.3-1.731 52.564 52.564 0 0110.387-.928c1.7 0 3.559.069 4.916-.956 1.5-1.136 1.876-3.192 2.077-5.055a70.9 70.9 0 00.36-5.913 25.5 25.5 0 00-.242-4.6 30.107 30.107 0 00-.81-3.3l-2.61-9.2c-1.08-3.795.422-7.956.741-11.889a2.982 2.982 0 00-.623-2.6c-.256-.215-.609-.36-.692-.692a1.184 1.184 0 01.166-.928 51.256 51.256 0 015.359-7.714 157.638 157.638 0 008.863-13.62 43.825 43.825 0 00-11.73-26.23 12.693 12.693 0 00-4.919-3.619 14.543 14.543 0 00-3.905-.63c-5.429-.367-11.079-.692-15.808-3.421a3.008 3.008 0 00-1.129-.478c-1.046-.118-1.807.914-2.486 1.731-1.745 2.077-4.314 3.268-6.571 4.8-4.209 2.859-7.501 6.792-10.538 10.802z"/><path class="h" d="M94.413 89.781c1.08 3.421.976 7.077 1.329 10.643a41.437 41.437 0 001.129 6.377 10.18 10.18 0 001.316 3.247 14.287 14.287 0 011.911 2.687 6.489 6.489 0 01.284 2.16l.083 4.778a17.183 17.183 0 01-1.129 7.437l-2.984 9.078c-1.613 4.916-3.268 9.909-6.177 14.188a4.093 4.093 0 01-1.78 1.669 8.651 8.651 0 01-1.794.277 4.612 4.612 0 00-3.8 4.48 10.521 10.521 0 00-2.555-2.61l-6.073-4.847a25.956 25.956 0 00-6.765-4.383 18.343 18.343 0 0012.755-15.414 6.926 6.926 0 01.692-3.033c.505-.817 1.44-1.44 1.51-2.4.083-1.212-1.288-2.126-1.288-3.338 0-.8.6-1.468.859-2.223a5.58 5.58 0 000-2.846l-.838-4.653a3.553 3.553 0 00-.415-1.329 8.605 8.605 0 00-1.039-1.094c-1.44-1.613-.8-4.155 0-6.142a58.711 58.711 0 017.077-12.415 42.441 42.441 0 002.818-4.03c.734-1.274.9-3.04 1.676-4.155.996 2.617 2.346 5.197 3.198 7.891z"/><path class="f" d="M67.193 145.247a3.337 3.337 0 00-.789.831 7 7 0 01-3.137 2.237c.692.5 1.323.99 1.974 1.5a86.474 86.474 0 0113.156 12.582c.436-1.558 3.047-1.447 3.684-2.936a2.874 2.874 0 00.138-1.329 40.54 40.54 0 00-1-6.924 7.837 7.837 0 00-1.385-3.241 8.309 8.309 0 00-3.919-2.216c-2.178-.769-6.506-1.842-8.722-.504z"/><path class="g" d="M58.538 150.688c-2.077 1.537-3.9 3.462-6.232 4.515-1.648.748-3.525 1.073-4.965 2.188a4.934 4.934 0 004.709 2.548 11.192 11.192 0 005.27-1.932c1.239-.762 2.693-1.648 4.044-1.115.208 1.053-.692 2.043-.692 3.109a3.134 3.134 0 001.759 2.4c4.155 2.68 9.5 2.458 14.451 2.147a1.3 1.3 0 00.8-.235 1.254 1.254 0 00.3-.914 68.86 68.86 0 00.1-3.275 4.7 4.7 0 00-2.008-4.626 56.518 56.518 0 00-8.656-6.128c-3.057-1.763-6.145-.718-8.88 1.318z"/><path class="i" d="M40.888 21.112c-3.074.367-5.311 2.77-5 5.38s3.054 4.411 6.128 4.037 5.311-2.77 5-5.373-3.054-4.411-6.128-4.044zm1.046 8.7c-2.6.312-4.923-1.219-5.193-3.421s1.634-4.238 4.231-4.549 4.923 1.219 5.193 3.421-1.634 4.238-4.231 4.549zM25.903 22.912c-3.074.367-5.311 2.77-5 5.373s3.054 4.411 6.128 4.044 5.311-2.77 5-5.38-3.054-4.404-6.128-4.037zm1.046 8.69c-2.6.312-4.923-1.219-5.186-3.414s1.627-4.238 4.231-4.556 4.923 1.219 5.186 3.421-1.634 4.238-4.231 4.549z"/><path class="i" d="M14.775 24.248l6.682 1.426-.658 1.759-6.3-1.849zM52.022 19.775l-6.163 2.971 1.059 1.551 5.685-3.289zM31.415 25.232l4.69-.561-.242 1.163-4.023.27z"/><path d="M22.323 23.66a7.438 7.438 0 00.692-3.026 6.467 6.467 0 01.319-1.842 5.153 5.153 0 011.51-1.932 13.966 13.966 0 018.309-2.9 19.209 19.209 0 019.611 2.077 7.479 7.479 0 012.389 1.773c.969 1.184 1.177 2.714 2.153 3.885a5.657 5.657 0 005.3 1.662c.339-1.2-.1-2.479.069-3.712a17.962 17.962 0 011.1-3.074c1.073-3.164-.492-6.834-3.718-8.725-1.129-.692-2.465-1.142-3.31-2.077A15.657 15.657 0 0145.12 2.93C43.576.458 39.58-.698 36.541.444c-.956.36-1.8.907-2.77 1.295a22.83 22.83 0 01-5.831 1.122 17.859 17.859 0 00-5.65 1.482 6.328 6.328 0 00-3.538 3.822c-.187.748-.145 1.523-.332 2.264-.956 3.76-7.125 5.588-7.471 9.424a5.5 5.5 0 001.572 3.843c.651.769 2.209 2.825 3.31 3.123s1.939-.748 2.991-1.108c1.666-.521 2.67-.632 3.501-2.051z" fill="#cbceda"/></g><path class="c" d="M544.944 423.082c0 34.788 21.826 62.943 48.8 62.943"/><path class="b" d="M593.741 486.031c0-35.183 24.36-63.649 54.461-63.649M562.629 426.239c0 33.05 13.918 59.792 31.112 59.792"/><path class="c" d="M593.741 486.031c0-44.953 28.155-81.334 62.943-81.334"/><ellipse class="a" cx="12.132" cy="2.05" rx="12.132" ry="2.05" transform="translate(579.497 493.953)"/><path class="k" d="M583.479 486.474s6.924-.215 9-1.7 10.643-3.261 11.162-.879 10.387 11.848 2.583 11.91-18.156-1.219-20.233-2.486-2.512-6.845-2.512-6.845z"/><path class="l" d="M606.371 494.978c-7.811.062-18.149-1.219-20.233-2.486-1.586-.963-2.216-4.432-2.43-6.024h-.229s.436 5.581 2.52 6.848 12.422 2.548 20.233 2.486c2.257 0 3.033-.824 2.991-2.008-.311.72-1.135 1.17-2.852 1.184z"/><path class="c" d="M15.573 443.412c0 27.7 17.359 50.077 38.818 50.077"/><path class="b" d="M54.391 493.489c0-27.988 19.388-50.638 43.326-50.638M29.637 445.932c0 26.313 11.079 47.571 24.755 47.571"/><path class="c" d="M54.391 493.489c0-35.765 22.4-64.709 50.077-64.709"/><ellipse class="a" cx="9.653" cy="1.634" rx="9.653" ry="1.634" transform="translate(43.056 499.79)"/><path class="k" d="M46.227 493.842s5.5-.173 7.16-1.385 8.475-2.6 8.884-.692 8.275 9.424 2.077 9.473-14.444-.969-16.1-1.974-2.021-5.422-2.021-5.422z"/><path class="l" d="M64.438 500.635c-6.232.048-14.444-.969-16.1-1.98-1.26-.762-1.759-3.525-1.932-4.792h-.18s.346 4.439 2 5.45 9.888 2.022 16.1 1.973c1.793 0 2.417-.651 2.382-1.6-.248.557-.933.908-2.27.949z"/></svg>