<svg xmlns="http://www.w3.org/2000/svg" width="440.424" height="488.069"><defs><style>.a{fill:#3f3d56}.b{opacity:.1}.d{fill:#fff}.e{fill:#d0cde1}.f{fill:#42b983}.h{fill:#2f2e41}.i{fill:#a0616a}</style></defs><g><path class="a" d="M299.584 302.367c240.142 160.677 162.095 220.55-149.792 166.019C68.3 454.138 0 394.057 0 302.367s67.064-166.019 149.792-166.019 73.586 115.031 149.792 166.019z"/><ellipse class="b" cx="94.868" cy="8.488" rx="94.868" ry="8.488" transform="translate(226.186 441.924)"/><ellipse class="b" cx="50.283" cy="8.488" rx="50.283" ry="8.488" transform="translate(83.67 162.139)"/><path class="b" d="M131.315 191.523a114.359 114.359 0 00-103.176 65 114.361 114.361 0 01187.87 126.168 114.345 114.345 0 00-84.694-191.168z"/><path d="M227.184 332.826a113.851 113.851 0 01-11.174 49.361A114.364 114.364 0 0128.15 256.003a114.344 114.344 0 01199.033 76.823z" fill="#026e57" opacity=".3"/><path class="d" d="M131.317 420.266a115.033 115.033 0 01-114.9-114.9 114.824 114.824 0 01114.9-114.9 114.903 114.903 0 11-.008 229.806zm0-228.682a114.44 114.44 0 00-102.66 64.661 112.7 112.7 0 00-11.119 49.118 113.779 113.779 0 10113.78-113.779z"/><path class="e" d="M392.91 421.719c-8.3 10.861-7.355 25.539-7.355 25.539s14.414-2.931 22.719-13.792 7.355-25.539 7.355-25.539-14.415 2.931-22.719 13.792z"/><path class="f" d="M398.352 424.158c-1.611 13.577-12.521 23.443-12.521 23.443s-8.3-12.146-6.685-25.723 12.521-23.443 12.521-23.443 8.296 12.147 6.685 25.723z"/><circle cx="47.181" cy="47.181" r="47.181" transform="translate(49.917 11.76)" fill="#ff6584"/><path class="f" d="M199.389 107.045c.023 47.128-27.986 63.594-62.544 63.611q-1.2 0-2.4-.026-2.4-.051-4.755-.217c-31.19-2.193-55.433-19.479-55.454-63.308C74.214 61.747 132.156 4.48 136.502.245h.008l.25-.242s62.607 59.918 62.629 107.042z"/><path class="a" d="M134.565 163.448l22.87-31.988-22.926 35.5-.06 3.672q-2.4-.051-4.755-.217l2.443-47.148-.019-.365.042-.069.232-4.455-23.018-35.566 23.085 32.227.058.945 1.842-35.622-19.7-36.753 19.947 30.492 1.9-73.855.008-.246v.242l-.294 58.242 19.587-23.1-19.67 28.117-.5 31.9 18.293-30.618-18.371 35.303-.279 17.736 26.548-42.62-26.649 48.807z"/><path class="h" d="M321.897 134.046c-6-10.133-17.862-10.606-17.862-10.606s-11.562-1.479-18.979 13.955c-6.913 14.385-16.454 28.274-1.536 31.642l2.695-8.387 1.669 9.011a58.374 58.374 0 006.383.109c15.976-.516 31.19.151 30.7-5.582-.653-7.62 2.699-20.391-3.07-30.142z"/><path class="i" d="M295.438 229.133l1.543 15.426 35.738-3.856.771-11.57z"/><path class="h" d="M291.582 237.617l-1.029 9s-11.827 16.455-10.8 44.737-16.2 154.01-3.857 155.038 34.453 2.571 35.481-1.286 3.091-150.152 3.091-150.152 5.4 150.335 14.655 150.849 40.366 1.543 40.366-2.314-27.257-176.045-27.257-176.045l-4.371-14.4-4.371-17.741s-27.254 4.628-34.71 2.828-7.198-.514-7.198-.514z"/><circle class="i" cx="16.455" cy="16.455" r="16.455" transform="translate(287.467 133.488)"/><path class="i" d="M332.719 177.196l-3.124 4.546-2 2.908-3.36 4.888-16.712 1.286s-4.06-1.311-8.744-3.227c-1.73-.71-3.548-1.5-5.276-2.342-6.7-3.255-12.082-7.227-6.034-9.858a20.078 20.078 0 003.083-1.656 15.661 15.661 0 002.471-2 13.477 13.477 0 003.7-12.028l16.2-2.314c-.471 4.109 3.615 8.59 8.194 12.249a64.265 64.265 0 004.533 3.3c3.847 2.577 7.069 4.248 7.069 4.248z"/><path class="e" d="M310.608 182.082s-15.812-2.7-19.412-8.356c0 0-15.555 1.928-14.27 10.156s14.141 53.222 14.141 53.222 32.139-6.171 43.966-1.543l7.2-57.336s-2.571-5.656-7.456-4.114-6.813.129-6.813.129-5.527 7.842-17.356 7.842z"/><path class="i" d="M325.006 272.328s11.056 12.341 4.885 14.4-13.627-8.228-13.627-8.228z"/><path class="i" d="M328.606 273.356s-9 6.171-5.656 10.284 14.912-3.6 14.912-5.142-9.256-5.142-9.256-5.142z"/><path class="h" d="M306.494 239.932l-7.456 1.286-4.886-36.253a130.159 130.159 0 00-.651-19.71c-.545-4.371-1.455-8.572-2.952-11.513a15.661 15.661 0 002.471-2 38.258 38.258 0 015.757 15.856 25.551 25.551 0 010 5.284c-1.286 12.084-1.028 14.4-1.028 14.4z"/><path class="e" d="M289.267 175.911s-12.084-3.34-13.113 3.86.257 25.711 3.085 32.653 12.6 29.568 12.6 29.568 17.741 22.626 18.512 28.025 4.628 11.056 4.628 11.056l12.342-7.97-24.167-40.885-10.542-28.282s4.369-25.711-3.345-28.025zM336.574 176.939l5.656 1.286s5.142 22.112 3.085 33.939-2.314 15.941-2.314 15.941l-1.8 33.682s.514 21.6-3.085 18.255-10.8-4.885-10.8-4.885.771-9.513 3.6-11.827c0 0 3.342-17.741 1.286-25.454s4.372-60.937 4.372-60.937z"/><path class="h" d="M338.633 201.879l-6.556 37.924-3.985-1.671 6.942-36.253-7.439-17.227-6.479-15a64.265 64.265 0 004.533 3.3l3.947 8.793zM319.244 133.069l-11.722-6.14-16.188 2.512-3.346 14.792 8.337-.321 2.329-5.434v5.345l3.847-.148 2.233-8.652 1.4 9.21 13.676-.279z"/><ellipse class="h" cx="7.989" cy="2.996" rx="7.989" ry="2.996" transform="translate(288.099 444.42)"/><ellipse class="h" cx="7.989" cy="2.996" rx="7.989" ry="2.996" transform="translate(342.025 444.42)"/><path class="d" d="M148.065 364.504a56.071 56.071 0 01-55.5 3.233l1.237-2.522a53.654 53.654 0 10-29.97-46.468l-2.808.086a56.465 56.465 0 1187.044 45.671z"/><path class="d" d="M122.655 313.704c-8.307 1.839-19.362 2.959-27.417 1.789l10.112 7.7-28.309 18.258 1.523 2.361 28.313-18.258 2.846 12.39c2.254-7.82 7.832-17.429 12.932-24.24z"/></g></svg>