<svg xmlns="http://www.w3.org/2000/svg" width="440.424" height="488.069" viewBox="0 0 440.424 488.069"><defs><style>.a{fill:#3f3d56;}.b{opacity:0.1;}.c{fill:#026e57;opacity:0.3;}.d{fill:#fff;}.e{fill:#d0cde1;}.f{fill:#42b983;}.g{fill:#ff6584;}.h{fill:#2f2e41;}.i{fill:#a0616a;}</style></defs><g transform="translate(0 0)"><path class="a" d="M507.62,424.344c240.142,160.677,162.095,220.55-149.792,166.019-81.492-14.248-149.792-74.329-149.792-166.019S275.1,258.325,357.828,258.325,431.414,373.356,507.62,424.344Z" transform="translate(-208.036 -121.977)"/><ellipse class="b" cx="94.868" cy="8.488" rx="94.868" ry="8.488" transform="translate(226.186 441.924)"/><ellipse class="b" cx="50.283" cy="8.488" rx="50.283" ry="8.488" transform="translate(83.67 162.139)"/><path class="b" d="M361.3,356.532a114.359,114.359,0,0,0-103.176,65A114.361,114.361,0,0,1,445.994,547.7,114.345,114.345,0,0,0,361.3,356.532Z" transform="translate(-229.985 -165.009)"/><path class="c" d="M448.461,518.865a113.851,113.851,0,0,1-11.174,49.361A114.364,114.364,0,0,1,249.427,442.042a114.344,114.344,0,0,1,199.033,76.823Z" transform="translate(-221.277 -186.039)"/><path class="d" d="M352.155,584.448a115.033,115.033,0,0,1-114.9-114.9,114.824,114.824,0,0,1,114.9-114.9,114.9,114.9,0,1,1-.008,229.806Zm0-228.682a114.44,114.44,0,0,0-102.66,64.661,112.7,112.7,0,0,0-11.119,49.118,113.779,113.779,0,1,0,113.78-113.779Z" transform="translate(-220.838 -164.182)"/><path class="e" d="M901.63,755.511c-8.3,10.861-7.355,25.539-7.355,25.539s14.414-2.931,22.719-13.792,7.355-25.539,7.355-25.539S909.934,744.65,901.63,755.511Z" transform="translate(-508.72 -333.792)"/><path class="f" d="M901.938,750.547c-1.611,13.577-12.521,23.443-12.521,23.443s-8.3-12.146-6.685-25.723,12.521-23.443,12.521-23.443S903.549,736.971,901.938,750.547Z" transform="translate(-503.586 -326.389)"/><circle class="g" cx="47.181" cy="47.181" r="47.181" transform="translate(49.917 11.76)"/><path class="f" d="M465.328,122.678c.023,47.128-27.986,63.594-62.544,63.611q-1.2,0-2.4-.026-2.4-.051-4.755-.217c-31.19-2.193-55.433-19.479-55.454-63.308-.022-45.358,57.92-102.625,62.266-106.86,0,0,0,0,.008,0,.165-.161.25-.242.25-.242S465.306,75.554,465.328,122.678Z" transform="translate(-265.939 -15.633)"/><path class="a" d="M427.906,179.081l22.87-31.988-22.926,35.5-.06,3.672q-2.4-.051-4.755-.217l2.443-47.148-.019-.365.042-.069.232-4.455L402.715,98.445,425.8,130.672l.058.945L427.7,95.995,408,59.242l19.947,30.492,1.9-73.855.008-.246v.242l-.294,58.242,19.587-23.1L429.478,79.134l-.5,31.9,18.293-30.618L428.9,115.719l-.279,17.736,26.548-42.62-26.649,48.807Z" transform="translate(-293.341 -15.633)"/><path class="h" d="M744.9,245.925c-6-10.133-17.862-10.606-17.862-10.606s-11.562-1.479-18.979,13.955c-6.913,14.385-16.454,28.274-1.536,31.642l2.695-8.387,1.669,9.011a58.374,58.374,0,0,0,6.383.109c15.976-.516,31.19.151,30.7-5.582C747.317,268.447,750.669,255.676,744.9,245.925Z" transform="translate(-423.003 -111.879)"/><path class="i" d="M525.862,407.843l1.543,15.426,35.738-3.856.771-11.57Z" transform="translate(-230.424 -178.71)"/><path class="h" d="M711.314,436.773l-1.029,9s-11.827,16.455-10.8,44.737-16.2,154.01-3.857,155.038,34.453,2.571,35.481-1.286S734.2,494.11,734.2,494.11s5.4,150.335,14.655,150.849,40.366,1.543,40.366-2.314S761.964,466.6,761.964,466.6l-4.371-14.4-4.371-17.741s-27.254,4.628-34.71,2.828S711.314,436.773,711.314,436.773Z" transform="translate(-419.732 -199.156)"/><circle class="i" cx="16.455" cy="16.455" r="16.455" transform="translate(287.467 133.488)"/><path class="i" d="M762.911,315.591l-3.124,4.546-2,2.908-3.36,4.888-16.712,1.286s-4.06-1.311-8.744-3.227c-1.73-.71-3.548-1.5-5.276-2.342-6.7-3.255-12.082-7.227-6.034-9.858a20.078,20.078,0,0,0,3.083-1.656,15.661,15.661,0,0,0,2.471-2,13.477,13.477,0,0,0,3.7-12.028l16.2-2.314c-.471,4.109,3.615,8.59,8.194,12.249,1.5,1.206,3.065,2.319,4.533,3.3C759.689,313.92,762.911,315.591,762.911,315.591Z" transform="translate(-430.192 -138.395)"/><path class="e" d="M734.571,333.21s-15.812-2.7-19.412-8.356c0,0-15.555,1.928-14.27,10.156s14.141,53.222,14.141,53.222,32.139-6.171,43.966-1.543l7.2-57.336s-2.571-5.656-7.456-4.114-6.813.129-6.813.129S746.4,333.21,734.571,333.21Z" transform="translate(-423.963 -151.128)"/><path class="i" d="M779.709,500.36s11.056,12.341,4.885,14.4-13.627-8.228-13.627-8.228Z" transform="translate(-454.703 -228.032)"/><path class="i" d="M787.942,502.19s-9,6.171-5.656,10.284,14.912-3.6,14.912-5.142S787.942,502.19,787.942,502.19Z" transform="translate(-459.336 -228.834)"/><path class="h" d="M741.142,389.512l-7.456,1.286L728.8,354.545a130.159,130.159,0,0,0-.651-19.71c-.545-4.371-1.455-8.572-2.952-11.513a15.661,15.661,0,0,0,2.471-2,38.258,38.258,0,0,1,5.757,15.856,25.551,25.551,0,0,1,0,5.284c-1.286,12.084-1.028,14.4-1.028,14.4Z" transform="translate(-434.648 -149.58)"/><path class="e" d="M712.413,328.14S700.329,324.8,699.3,332s.257,25.711,3.085,32.653,12.6,29.568,12.6,29.568,17.741,22.626,18.512,28.025,4.628,11.056,4.628,11.056l12.342-7.97L726.3,384.447l-10.542-28.282S720.127,330.454,712.413,328.14Z" transform="translate(-423.146 -152.229)"/><path class="e" d="M799.9,330.574l5.656,1.286s5.142,22.112,3.085,33.939-2.314,15.941-2.314,15.941l-1.8,33.682s.514,21.6-3.085,18.255-10.8-4.885-10.8-4.885.771-9.513,3.6-11.827c0,0,3.342-17.741,1.286-25.454S799.9,330.574,799.9,330.574Z" transform="translate(-463.326 -153.635)"/><path class="h" d="M797.12,349.827l-6.556,37.924-3.985-1.671,6.942-36.253L786.082,332.6l-6.479-15c1.5,1.206,3.065,2.319,4.533,3.3l3.947,8.793Z" transform="translate(-458.487 -147.948)"/><path class="h" d="M543.856,232.066l-11.722-6.14-16.188,2.512L512.6,243.23l8.337-.321,2.329-5.434v5.345l3.847-.148,2.233-8.652,1.4,9.21,13.676-.279Z" transform="translate(-224.612 -98.997)"/><ellipse class="h" cx="7.989" cy="2.996" rx="7.989" ry="2.996" transform="translate(288.099 444.42)"/><ellipse class="h" cx="7.989" cy="2.996" rx="7.989" ry="2.996" transform="translate(342.025 444.42)"/><path class="d" d="M403.671,583.375a56.071,56.071,0,0,1-55.5,3.233l1.237-2.522a53.654,53.654,0,1,0-29.97-46.468l-2.808.086a56.465,56.465,0,1,1,87.044,45.671Z" transform="translate(-255.606 -218.871)"/><path class="d" d="M390.778,574.008c-8.307,1.839-19.362,2.959-27.417,1.789l10.112,7.7-28.309,18.258,1.523,2.361L375,585.858l2.846,12.39C380.1,590.428,385.678,580.819,390.778,574.008Z" transform="translate(-268.123 -260.304)"/></g></svg>