<svg version="1.0" xmlns="http://www.w3.org/2000/svg" width="493.333" height="526.667" viewBox="0 0 370 395"><path d="M166.8 32.3c-3.1 1.4-7.9 4.3-10.5 6.5-2.6 2.2-35.7 35-73.4 72.9-54.1 54.2-69.2 69.9-71.3 74-5.1 10.3-5.1 23.3 0 33.7 2.1 4 17.9 20.4 74.2 76.9 67.8 67.9 72.1 72 79 75.4 6.7 3.4 8.2 3.7 15.6 3.7 7.1 0 9-.4 15-3.2 6.5-3 10.8-7.2 79-75.7 57.7-58 72.7-73.7 75.1-78.2 2.8-5.2 3-6.5 3-15.7 0-16.8 4.8-11-77.8-93.9-82-82.4-76.8-78-93.2-78.5-7.6-.2-9.9.1-14.7 2.1zm31.7 108.3c4.4 1.6 10.6 4.7 13.7 6.8 7.7 5.1 17.7 16 21.3 23.2 1.6 3.3 3 6.1 3.1 6.2.1.2 11.8.3 25.9.3 21.1-.2 26-.4 27.2-1.6 2.6-2.6 8.1-2.2 10.6.7 2.3 2.7 2.2 7.3-.3 9.8-2.1 2.1-8.4 2.8-9.5 1-1-1.6-50.5-1.3-50.5.2 0 .7.3 3 .6 5l.7 3.8h38.9c34.9 0 39.3-.2 41.9-1.7 3.6-2.2 7.8-.9 9.7 2.9 2.7 5.6-3.9 11.8-9.2 8.6-1.6-1-10.7-1.2-41.7-1l-39.7.2-.4 4-.4 4h24.3c17.3 0 24.9-.3 26.3-1.2 2.7-1.7 7.2 0 8.8 3.4 2.8 5.8-4 11.8-9.4 8.3-1.9-1.2-6.4-1.5-27.1-1.5h-24.8l-4 8.2c-8 16.6-26 30.6-44 34.3-28.4 5.9-57.6-7.8-70.8-33.2l-3.2-6.3H89.8c-23.4 0-27 .2-29.6 1.7-5.8 3.3-12.2-1.6-10-7.8 1.3-3.7 5.6-5.2 9.3-3.3 2.1 1.1 8.3 1.4 28.7 1.4h26l-.6-2.3c-.3-1.2-.6-3.4-.6-5V207l-37.7.3c-20.8.2-39.4.7-41.5 1.2-2.9.6-4 .3-5.7-1.4-2.7-2.7-2.7-6.1 0-9 1.8-1.9 2.7-2.2 5.8-1.6 2 .5 20.3 1 40.7 1.2l37.2.3.6-2.2c.3-1.3.6-3.3.6-4.5v-2.2l-23.7-.3c-18.8-.2-24.3 0-26.1 1.1-5 3.1-11.6-3.5-8.8-9 1.7-3.5 6-4.7 9.5-2.6 2.5 1.5 6.1 1.7 27.3 1.7h24.4l3-6.2c7.8-16.7 23.5-29.8 41.4-34.7 11.2-3.1 27.5-2.5 38.5 1.5z"/><path d="M160.9 148.9c-22.5 7.2-38.9 28.8-38.9 51.1 0 42.2 42.6 68.9 79.9 50.1 11.2-5.7 24.3-20.4 25.6-29 .4-2 1.3-4.9 2.2-6.5 2.7-5 2.1-21.3-1.1-30.6-6-17.1-18.4-29.3-35.5-34.9-8.4-2.7-24-2.8-32.2-.2zm45.4 28.2c1.4 2.3-25.6 58.4-29.2 60.7-2.2 1.5-2.5 1.5-4.5-1.1-5.2-6.5-33-54.1-33.1-56.5 0-3 2.7-4.1 5-2.2.8.7 7.6 11.4 15.1 23.9 7.5 12.4 14.2 23.2 14.9 23.9.9 1 3.7-4 12.9-23 6.5-13.4 12.6-25.1 13.4-26.1 1.8-2.1 4-1.9 5.5.4z"/></svg>