<?xml version="1.0" standalone="no"?>
<!DOCTYPE svg PUBLIC "-//W3C//DTD SVG 20010904//EN"
 "http://www.w3.org/TR/2001/REC-SVG-20010904/DTD/svg10.dtd">
<svg version="1.0" xmlns="http://www.w3.org/2000/svg"
 width="370.000000pt" height="395.000000pt" viewBox="0 0 370.000000 395.000000"
 preserveAspectRatio="xMidYMid meet">
<metadata>
Created by potrace 1.15, written by Peter Selinger 2001-2017
</metadata>
<g transform="translate(0.000000,395.000000) scale(0.100000,-0.100000)"
fill="#000000" stroke="none">
<path d="M1668 3627 c-31 -14 -79 -43 -105 -65 -26 -22 -357 -350 -734 -729
-541 -542 -692 -699 -713 -740 -51 -103 -51 -233 0 -337 21 -40 179 -204 742
-769 678 -679 721 -720 790 -754 67 -34 82 -37 156 -37 71 0 90 4 150 32 65
30 108 72 790 757 577 580 727 737 751 782 28 52 30 65 30 157 0 168 48 110
-778 939 -820 824 -768 780 -932 785 -76 2 -99 -1 -147 -21z m317 -1083 c44
-16 106 -47 137 -68 77 -51 177 -160 213 -232 16 -33 30 -61 31 -62 1 -2 118
-3 259 -3 211 2 260 4 272 16 26 26 81 22 106 -7 23 -27 22 -73 -3 -98 -21
-21 -84 -28 -95 -10 -10 16 -505 13 -505 -2 0 -7 3 -30 6 -50 l7 -38 389 0
c349 0 393 2 419 17 36 22 78 9 97 -29 27 -56 -39 -118 -92 -86 -16 10 -107
12 -417 10 l-397 -2 -4 -40 -4 -40 243 0 c173 0 249 3 263 12 27 17 72 0 88
-34 28 -58 -40 -118 -94 -83 -19 12 -64 15 -271 15 l-248 0 -40 -82 c-80 -166
-260 -306 -440 -343 -284 -59 -576 78 -708 332 l-32 63 -267 0 c-234 0 -270
-2 -296 -17 -58 -33 -122 16 -100 78 13 37 56 52 93 33 21 -11 83 -14 287 -14
l260 0 -6 23 c-3 12 -6 34 -6 50 l0 27 -377 -3 c-208 -2 -394 -7 -415 -12 -29
-6 -40 -3 -57 14 -27 27 -27 61 0 90 18 19 27 22 58 16 20 -5 203 -10 407 -12
l372 -3 6 22 c3 13 6 33 6 45 l0 22 -237 3 c-188 2 -243 0 -261 -11 -50 -31
-116 35 -88 90 17 35 60 47 95 26 25 -15 61 -17 273 -17 l244 0 30 62 c78 167
235 298 414 347 112 31 275 25 385 -15z"/>
<path d="M1609 2461 c-225 -72 -389 -288 -389 -511 0 -422 426 -689 799 -501
112 57 243 204 256 290 4 20 13 49 22 65 27 50 21 213 -11 306 -60 171 -184
293 -355 349 -84 27 -240 28 -322 2z m454 -282 c14 -23 -256 -584 -292 -607
-22 -15 -25 -15 -45 11 -52 65 -330 541 -331 565 0 30 27 41 50 22 8 -7 76
-114 151 -239 75 -124 142 -232 149 -239 9 -10 37 40 129 230 65 134 126 251
134 261 18 21 40 19 55 -4z"/>
</g>
</svg>
