<svg xmlns="http://www.w3.org/2000/svg" width="525.992" height="435.232" viewBox="0 0 525.992 435.232"><defs><style>.a{fill:#e6e6e6;}.b{fill:#fff;}.c{fill:#f2f2f2;}.d{fill:#3f3d56;}.e{fill:#2f2e41;}.f{fill:#42b983;}</style></defs><g transform="translate(0 0)"><path class="a" d="M569.645,655.818a6.786,6.786,0,0,1-3.347-.886l-193.5-109.4a6.828,6.828,0,0,1-2.58-9.293l152.4-269.566a6.818,6.818,0,0,1,9.292-2.58l193.5,109.4a6.828,6.828,0,0,1,2.581,9.292l-152.4,269.566a6.776,6.776,0,0,1-4.112,3.216,6.856,6.856,0,0,1-1.834.25Z" transform="translate(-202.882 -220.586)"/><rect class="b" width="1.58" height="234.918" transform="matrix(0.492, -0.871, 0.871, 0.492, 313.567, 58.027)"/><rect class="b" width="1.58" height="234.918" transform="matrix(0.492, -0.871, 0.871, 0.492, 299.571, 82.783)"/><rect class="b" width="1.58" height="234.918" transform="matrix(0.492, -0.871, 0.871, 0.492, 285.574, 107.539)"/><rect class="b" width="1.58" height="234.918" transform="matrix(0.492, -0.871, 0.871, 0.492, 271.578, 132.295)"/><rect class="b" width="1.58" height="234.918" transform="matrix(0.492, -0.871, 0.871, 0.492, 257.582, 157.051)"/><rect class="b" width="1.58" height="234.918" transform="matrix(0.492, -0.871, 0.871, 0.492, 243.586, 181.807)"/><rect class="b" width="1.58" height="234.918" transform="matrix(0.492, -0.871, 0.871, 0.492, 229.59, 206.563)"/><rect class="b" width="1.58" height="234.918" transform="matrix(0.492, -0.871, 0.871, 0.492, 215.594, 231.318)"/><rect class="b" width="1.58" height="234.918" transform="matrix(0.492, -0.871, 0.871, 0.492, 201.598, 256.075)"/><rect class="b" width="1.58" height="234.918" transform="matrix(0.492, -0.871, 0.871, 0.492, 187.602, 280.831)"/><rect class="b" width="1.58" height="234.918" transform="matrix(0.492, -0.871, 0.871, 0.492, 173.606, 305.587)"/><path class="c" d="M551.645,614.818a6.786,6.786,0,0,1-3.347-.886l-193.5-109.4a6.828,6.828,0,0,1-2.58-9.293l152.4-269.566a6.818,6.818,0,0,1,9.292-2.58l193.5,109.4a6.828,6.828,0,0,1,2.581,9.292l-152.4,269.566a6.776,6.776,0,0,1-4.112,3.216A6.853,6.853,0,0,1,551.645,614.818Z" transform="translate(-202.882 -220.586)"/><rect class="b" width="1.58" height="234.918" transform="matrix(0.492, -0.871, 0.871, 0.492, 295.567, 17.027)"/><rect class="b" width="1.58" height="234.918" transform="matrix(0.492, -0.871, 0.871, 0.492, 281.571, 41.783)"/><rect class="b" width="1.58" height="234.918" transform="matrix(0.492, -0.871, 0.871, 0.492, 267.574, 66.54)"/><rect class="b" width="1.58" height="234.918" transform="matrix(0.492, -0.871, 0.871, 0.492, 253.578, 91.295)"/><rect class="b" width="1.58" height="234.918" transform="matrix(0.492, -0.871, 0.871, 0.492, 239.582, 116.051)"/><rect class="b" width="1.58" height="234.918" transform="matrix(0.492, -0.871, 0.871, 0.492, 225.586, 140.807)"/><rect class="b" width="1.58" height="234.918" transform="matrix(0.492, -0.871, 0.871, 0.492, 211.59, 165.563)"/><rect class="b" width="1.58" height="234.918" transform="matrix(0.492, -0.871, 0.871, 0.492, 197.594, 190.319)"/><rect class="b" width="1.58" height="234.918" transform="matrix(0.492, -0.871, 0.871, 0.492, 183.598, 215.075)"/><rect class="b" width="1.58" height="234.918" transform="matrix(0.492, -0.871, 0.871, 0.492, 169.602, 239.831)"/><rect class="b" width="1.58" height="234.918" transform="matrix(0.492, -0.871, 0.871, 0.492, 155.606, 264.587)"/><path class="d" d="M532.363,220.586H223.126v430H532.363a4.188,4.188,0,0,0,4.188-4.188V224.774a4.188,4.188,0,0,0-4.188-4.188ZM240.577,638.719a7.679,7.679,0,1,1,7.679-7.679,7.679,7.679,0,0,1-7.679,7.679Zm0-39.091a7.679,7.679,0,1,1,7.679-7.679,7.679,7.679,0,0,1-7.679,7.679Zm0-39.091a7.679,7.679,0,1,1,7.679-7.679,7.679,7.679,0,0,1-7.679,7.679Zm0-39.091a7.679,7.679,0,1,1,7.679-7.679,7.679,7.679,0,0,1-7.679,7.679Zm0-39.091a7.679,7.679,0,1,1,7.679-7.679,7.679,7.679,0,0,1-7.679,7.679Zm0-39.091a7.679,7.679,0,1,1,7.679-7.679,7.679,7.679,0,0,1-7.679,7.679Zm0-39.091a7.679,7.679,0,1,1,7.679-7.679,7.679,7.679,0,0,1-7.679,7.679Zm0-39.091a7.679,7.679,0,1,1,7.679-7.679,7.679,7.679,0,0,1-7.679,7.679Zm0-39.091a7.679,7.679,0,1,1,7.679-7.679,7.679,7.679,0,0,1-7.679,7.679Zm0-39.091a7.679,7.679,0,1,1,7.679-7.679,7.679,7.679,0,0,1-7.679,7.679Zm0-39.091a7.679,7.679,0,1,1,7.679-7.679,7.679,7.679,0,0,1-7.679,7.679Z" transform="translate(-202.882 -220.586)"/><path class="e" d="M223.126,244.32c-2.072,0-20.243-.1-20.243-3.49s18.171-3.49,20.243-3.49v1.4c-10.7,0-17.643,1.2-18.76,2.094,1.118.9,8.057,2.094,18.76,2.094,10.679,0,17.612-1.193,18.753-2.088-.543-.383-2.761-1.187-8.711-1.7l.12-1.391c10.081.871,10.081,2.48,10.081,3.086C243.369,244.222,225.2,244.32,223.126,244.32Z" transform="translate(-202.882 -220.586)"/><path class="e" d="M223.126,282.712c-2.072,0-20.243-.1-20.243-3.49s18.171-3.49,20.243-3.49v1.4c-10.7,0-17.643,1.2-18.76,2.094,1.118.9,8.057,2.094,18.76,2.094,10.679,0,17.612-1.193,18.753-2.088-.543-.383-2.761-1.187-8.711-1.7l.12-1.391c10.081.871,10.081,2.48,10.081,3.086C243.369,282.615,225.2,282.712,223.126,282.712Z" transform="translate(-202.882 -220.586)"/><path class="e" d="M223.126,321.8c-2.072,0-20.243-.1-20.243-3.49s18.171-3.49,20.243-3.49v1.4c-10.7,0-17.643,1.2-18.76,2.094,1.118.9,8.057,2.094,18.76,2.094,10.679,0,17.612-1.193,18.753-2.088-.543-.383-2.761-1.187-8.711-1.7l.12-1.391c10.081.871,10.081,2.48,10.081,3.086C243.369,321.7,225.2,321.8,223.126,321.8Z" transform="translate(-202.882 -220.586)"/><path class="e" d="M223.126,360.894c-2.072,0-20.243-.1-20.243-3.49s18.171-3.49,20.243-3.49v1.4c-10.7,0-17.643,1.2-18.76,2.094,1.118.9,8.057,2.094,18.76,2.094,10.679,0,17.612-1.193,18.753-2.088-.543-.383-2.761-1.187-8.711-1.7l.12-1.391c10.081.871,10.081,2.48,10.081,3.086C243.369,360.8,225.2,360.894,223.126,360.894Z" transform="translate(-202.882 -220.586)"/><path class="e" d="M223.126,399.985c-2.072,0-20.243-.1-20.243-3.49S221.054,393,223.126,393v1.4c-10.7,0-17.643,1.2-18.76,2.094,1.118.9,8.057,2.094,18.76,2.094,10.679,0,17.612-1.193,18.753-2.088-.543-.383-2.761-1.187-8.711-1.7l.12-1.391c10.081.871,10.081,2.48,10.081,3.086C243.369,399.887,225.2,399.985,223.126,399.985Z" transform="translate(-202.882 -220.586)"/><path class="e" d="M223.126,439.076c-2.072,0-20.243-.1-20.243-3.49s18.171-3.49,20.243-3.49v1.4c-10.7,0-17.643,1.2-18.76,2.094,1.118.9,8.057,2.094,18.76,2.094,10.679,0,17.612-1.193,18.753-2.088-.543-.383-2.761-1.187-8.711-1.7l.12-1.391c10.081.871,10.081,2.48,10.081,3.086C243.369,438.978,225.2,439.076,223.126,439.076Z" transform="translate(-202.882 -220.586)"/><path class="e" d="M223.126,478.167c-2.072,0-20.243-.1-20.243-3.49s18.171-3.49,20.243-3.49v1.4c-10.7,0-17.643,1.2-18.76,2.094,1.118.9,8.057,2.094,18.76,2.094,10.679,0,17.612-1.193,18.753-2.088-.543-.383-2.761-1.187-8.711-1.7l.12-1.391c10.081.871,10.081,2.48,10.081,3.086C243.369,478.069,225.2,478.167,223.126,478.167Z" transform="translate(-202.882 -220.586)"/><path class="e" d="M223.126,517.258c-2.072,0-20.243-.1-20.243-3.49s18.171-3.49,20.243-3.49v1.4c-10.7,0-17.643,1.2-18.76,2.094,1.118.9,8.057,2.094,18.76,2.094,10.679,0,17.612-1.193,18.753-2.088-.543-.383-2.761-1.187-8.711-1.7l.12-1.391c10.081.871,10.081,2.48,10.081,3.086C243.369,517.16,225.2,517.258,223.126,517.258Z" transform="translate(-202.882 -220.586)"/><path class="e" d="M223.126,556.349c-2.072,0-20.243-.1-20.243-3.49s18.171-3.49,20.243-3.49v1.4c-10.7,0-17.643,1.2-18.76,2.094,1.118.9,8.057,2.094,18.76,2.094,10.679,0,17.612-1.193,18.753-2.088-.543-.383-2.761-1.187-8.711-1.7l.12-1.391c10.081.871,10.081,2.48,10.081,3.086C243.369,556.251,225.2,556.349,223.126,556.349Z" transform="translate(-202.882 -220.586)"/><path class="e" d="M223.126,595.44c-2.072,0-20.243-.1-20.243-3.49s18.171-3.49,20.243-3.49v1.4c-10.7,0-17.643,1.2-18.76,2.094,1.118.9,8.057,2.094,18.76,2.094,10.679,0,17.612-1.193,18.753-2.088-.543-.383-2.761-1.187-8.711-1.7l.12-1.391c10.081.871,10.081,2.48,10.081,3.086C243.369,595.342,225.2,595.44,223.126,595.44Z" transform="translate(-202.882 -220.586)"/><path class="e" d="M223.126,634.531c-2.072,0-20.243-.1-20.243-3.49s18.171-3.49,20.243-3.49v1.4c-10.7,0-17.643,1.2-18.76,2.094,1.118.9,8.057,2.094,18.76,2.094,10.679,0,17.612-1.193,18.753-2.088-.543-.383-2.761-1.187-8.711-1.7l.12-1.391c10.081.871,10.081,2.48,10.081,3.086C243.369,634.433,225.2,634.531,223.126,634.531Z" transform="translate(-202.882 -220.586)"/><path class="b" d="M469.189,384.977H315.618a4.542,4.542,0,0,1-4.537-4.537V320.407a4.543,4.543,0,0,1,4.537-4.537H469.189a4.543,4.543,0,0,1,4.537,4.537V380.44A4.542,4.542,0,0,1,469.189,384.977Z" transform="translate(-202.882 -220.586)"/><path class="f" d="M411.949,336.462H372.858a3.49,3.49,0,0,1,0-6.981h39.091a3.49,3.49,0,1,1,0,6.981Z" transform="translate(-202.882 -220.586)"/><path class="f" d="M433.589,353.914H351.218a3.49,3.49,0,1,1,0-6.981h82.371a3.49,3.49,0,0,1,0,6.981Z" transform="translate(-202.882 -220.586)"/><path class="f" d="M433.589,371.365H351.218a3.49,3.49,0,1,1,0-6.981h82.371a3.49,3.49,0,1,1,0,6.981Z" transform="translate(-202.882 -220.586)"/></g></svg>