<svg xmlns="http://www.w3.org/2000/svg" width="112.945" height="204.467" viewBox="0 0 112.945 204.467"><defs><style>.a{fill:#ebeef2;}.b{fill:#d3d8df;}.c{fill:#7fb7ea;}.d{fill:#e39f6e;}.e{fill:#627687;}.f{fill:#455e6d;}.g{fill:#f8c298;}.h{fill:#aa5b26;}</style></defs><g transform="translate(0 0)"><path class="a" d="M111.674,348.606v45.234a4.113,4.113,0,0,1-4.114,4.114H4.114A4.114,4.114,0,0,1,0,393.841V348.606a26.477,26.477,0,0,1,26.477-26.477H85.2A26.477,26.477,0,0,1,111.674,348.606Zm0,0" transform="translate(0 -193.487)"/><path class="b" d="M226.248,348.6v45.239a4.114,4.114,0,0,1-4.115,4.114h-4.908V348.6a26.483,26.483,0,0,0-26.479-26.48h9.026A26.475,26.475,0,0,1,226.248,348.6Zm0,0" transform="translate(-114.572 -193.482)"/><path class="c" d="M54.012,449.488H122.55v24.964H54.012Zm0,0" transform="translate(-32.442 -269.985)"/><path class="d" d="M127.838,307.8a9.025,9.025,0,0,1-9.026-9.026V273.461h18.05v25.316a9.025,9.025,0,0,1-9.024,9.026Zm0,0" transform="translate(-71.365 -164.254)"/><path class="e" d="M115.538,51.532a50.63,50.63,0,0,1-.6,7.508q-.2,1.285-.46,2.575L111.96,73.9H16.465L13.948,61.615a51.326,51.326,0,0,1,100.575-20.54c.041.209.086.423.123.636a50.262,50.262,0,0,1,.847,7.3c.037.839.055,1.679.045,2.521Zm0,0" transform="translate(-7.739)"/><g transform="translate(11.604 25.834)"><path class="f" d="M38.283,139.995h0a39.807,39.807,0,0,1-6.113-.51,3.084,3.084,0,0,0-.527,6.126,44.09,44.09,0,0,0,11.3.342v-6.181a41.474,41.474,0,0,1-4.65.223Zm0,0" transform="translate(-29.057 -109.615)"/><path class="f" d="M225.543,137.174v6.191a56.786,56.786,0,0,0,17.128-5.995,50.967,50.967,0,0,0,.588-6.964,53.751,53.751,0,0,1-17.716,6.767Zm0,0" transform="translate(-147.077 -104.163)"/><path class="f" d="M241.508,80.568l-15.991-10.19a3.087,3.087,0,0,1,3.32-5.206l10.1,6.435a51.015,51.015,0,0,1,2.452,8.322c.041.211.086.424.123.638Zm0,0" transform="translate(-146.206 -64.69)"/></g><path class="d" d="M237.76,178.819a12.151,12.151,0,1,1-12.15-12.15A12.151,12.151,0,0,1,237.76,178.819Zm0,0" transform="translate(-128.213 -100.109)"/><path class="d" d="M32.814,178.819a12.151,12.151,0,1,1-12.15-12.15A12.151,12.151,0,0,1,32.814,178.819Zm0,0" transform="translate(-5.112 -100.109)"/><path class="g" d="M83.442,183.066a32.751,32.751,0,0,1-32.5-28.691L44.9,105.98h77.085l-6.045,48.395a32.75,32.75,0,0,1-32.5,28.691Zm0,0" transform="translate(-26.968 -63.657)"/><path class="e" d="M31.172,102.727A39.736,39.736,0,0,0,63.1,96.271s34.129,24.2,67.337.758a2.894,2.894,0,0,0-.1-4.809L109.706,79.071H31.172Zm0,0" transform="translate(-18.723 -47.494)"/><path class="h" d="M90.563,190.9a3.084,3.084,0,0,1-3.082-3l-.053-1.927A3.085,3.085,0,0,1,93.6,185.8l.053,1.927a3.085,3.085,0,0,1-3,3.168C90.621,190.9,90.592,190.9,90.563,190.9Zm0,0" transform="translate(-52.513 -109.8)"/><path class="h" d="M179.774,190.9a3.084,3.084,0,0,1-3.082-3l-.053-1.927a3.086,3.086,0,0,1,6.17-.168l.051,1.927a3.085,3.085,0,0,1-3,3.168C179.832,190.9,179.8,190.9,179.774,190.9Zm0,0" transform="translate(-106.097 -109.8)"/><path class="d" d="M118.894,228.214a16.507,16.507,0,0,1-13.328-6.812,3.085,3.085,0,0,1,5-3.619,10.274,10.274,0,0,0,16.66,0,3.085,3.085,0,0,1,5,3.619,16.507,16.507,0,0,1-13.328,6.812Zm0,0" transform="translate(-63.056 -130.045)"/><path class="b" d="M52.456,403.857v41.334H46.285V403.857a3.086,3.086,0,0,1,6.171,0Zm0,0" transform="translate(-27.801 -240.725)"/><path class="b" d="M224.085,403.857v41.334h-6.171V403.857a3.086,3.086,0,0,1,6.171,0Zm0,0" transform="translate(-130.89 -240.725)"/></g></svg>