<?xml version="1.0" encoding="utf-8"?>
<!-- Generator: Adobe Illustrator 21.0.2, SVG Export Plug-In . SVG Version: 6.00 Build 0)  -->
<svg version="1.1" id="Layer_1" xmlns="http://www.w3.org/2000/svg" xmlns:xlink="http://www.w3.org/1999/xlink" x="0px" y="0px"
	 viewBox="0 0 150.1 255.3" style="enable-background:new 0 0 150.1 255.3;" xml:space="preserve">
<style type="text/css">
	.st0{fill:#666666;}
	.st1{fill:#B3B3B3;}
	.st2{fill:#DEAA87;}
	.st3{fill:#C8B7B7;}
	.st4{fill:#D08553;}
	.st5{fill:#E3DBDB;}
	.st6{fill:#DEAA87;stroke:#DEAA87;stroke-width:0.6;}
	.st7{fill:#DADADA;}
</style>
<g id="surface1">
	<path class="st0" d="M4,243.1h142.2v12.1H4V243.1z"/>
	<path class="st0" d="M36.6,170.6h76.9c18,0,32.6,14.4,32.6,32.2v6.4c0,17.8-14.6,32.2-32.6,32.2H36.6c-18,0-32.6-14.4-32.6-32.2
		v-6.4C4,185,18.6,170.6,36.6,170.6z"/>
	<path class="st0" d="M4,201.3h142.2v43H4V201.3z"/>
	<path class="st1" d="M53.8,170.5h41.5v84.9H53.8V170.5z"/>
	<path class="st2" d="M65,9h20.2c27.6,0,49.9,22,49.9,49.2v50.2c0,27.2-22.4,49.2-49.9,49.2H65c-27.6,0-49.9-22-49.9-49.2V58.2
		C15.1,31,37.4,9,65,9z"/>
	<path class="st2" d="M65,9h20.6c27.6,0,49.9,22,49.9,49.2v50.2c0,27.2-22.4,49.2-49.9,49.2H65c-27.6,0-49.9-22-49.9-49.2V58.2
		C15.1,31,37.4,9,65,9z"/>
	<path class="st3" d="M133,25.6c-8.3,0-15,6.7-15,15s6.7,15,15,15c0.7,0,1.4-0.1,2.1-0.2V62c2.1,0,4.2,0.4,6.2,1.3V53.1
		c4.2-2.8,6.7-7.5,6.7-12.5C148,32.3,141.3,25.6,133,25.6z"/>
	<path class="st3" d="M15.6,28.2c-8.3,0-15,6.7-15,15c0,6.1,3.6,11.5,9.2,13.9v6.2c1.9-0.9,4-1.3,6.2-1.3v-3.8
		c8.1-0.2,14.6-6.9,14.6-15C30.6,34.9,23.9,28.2,15.6,28.2z"/>
	<path class="st2" d="M135,62c8.4,0,15.1,6.6,15.1,14.8c0,7.6-5.8,13.9-13.5,14.7l-1.6,0.1V62z"/>
	<path class="st2" d="M15.1,62C6.8,62,0,68.6,0,76.8c0,7.6,5.8,13.9,13.5,14.7l1.6,0.1V62z"/>
	<path class="st2" d="M15.1,62C6.8,62,0,68.6,0,76.8c0,7.6,5.8,13.9,13.5,14.7l1.6,0.1V62z"/>
	<path class="st4" d="M14.8,68.3c-4.8,0-8.7,3.8-8.7,8.5c0,4.4,3.4,8,7.8,8.5l0.9,0.1V68.3z"/>
	<path class="st4" d="M135.1,68.3c4.8,0,8.7,3.8,8.7,8.5c0,4.4-3.4,8-7.8,8.5l-0.9,0.1V68.3z"/>
	<path class="st2" d="M65,9h20.6c27.6,0,49.9,22,49.9,49.2v50.2c0,27.2-22.4,49.2-49.9,49.2H65c-27.6,0-49.9-22-49.9-49.2V58.2
		C15.1,31,37.4,9,65,9z"/>
	<path class="st4" d="M14.8,68.3c-4.8,0-8.7,3.8-8.7,8.5c0,4.4,3.4,8,7.8,8.5l0.9,0.1V68.3z"/>
	<path class="st2" d="M135,62c8.4,0,15.1,6.6,15.1,14.8c0,7.6-5.8,13.9-13.5,14.7l-1.6,0.1V62z"/>
	<path class="st4" d="M135.1,68.3c4.8,0,8.7,3.8,8.7,8.5c0,4.4-3.4,8-7.8,8.5l-0.9,0.1V68.3z"/>
	<path class="st5" d="M145.2,24.9c0.3-11.3-8.6-20.7-19.9-21s-20.6,8.6-20.9,19.9c-0.3,11.3,8.6,20.7,19.9,21
		C135.6,45.1,144.9,36.2,145.2,24.9z"/>
	<path class="st5" d="M121.7,15c0.2-7.8-5.9-14.2-13.7-14.4S93.9,6.5,93.7,14.3c-0.2,7.8,5.9,14.2,13.6,14.4
		C115.1,28.9,121.5,22.8,121.7,15z"/>
	<path class="st5" d="M56.2,14.7c0.2-7.9-6-14.5-13.8-14.7C34.5-0.2,28,6.1,27.8,14s6,14.5,13.8,14.7C49.5,28.9,56,22.6,56.2,14.7z"
		/>
	<path class="st5" d="M47,26.3c0.3-12.5-9.5-22.9-22-23.2C12.5,2.8,2.2,12.7,1.8,25.2s9.5,22.9,22,23.2C36.3,48.7,46.7,38.8,47,26.3
		z"/>
	<path class="st5" d="M69.2,101.7c-5.1,0-9.5,2.8-10.9,6.9v0c-0.2,0.5-0.4,1.1-0.6,1.6c-0.6,1.3-1.6,2.4-2.7,3.4
		c-0.3,0.2-0.6,0.5-0.9,0.7c-1.3,0.9-2.8,1.5-4.3,1.9c-0.8,0.2-1.6,0.3-2.4,0.4c-0.3,0-0.6,0-0.9,0c-2.6,0-5.1-0.7-7.2-2
		c2.3,7.7,10.8,13.1,20.4,13.1c10.7,0,19.6-6.5,20.9-15.2l-0.1,0c0,0,0,0,0,0c0.1-0.4,0.1-0.8,0.1-1.2
		C80.6,105.9,75.5,101.7,69.2,101.7z M80.3,113.2C80.3,113.3,80.3,113.3,80.3,113.2C80.3,113.3,80.3,113.3,80.3,113.2z M80,114.1
		C80,114.2,80,114.2,80,114.1C80,114.2,80,114.2,80,114.1z M79.6,115c0,0,0,0.1-0.1,0.1C79.6,115.1,79.6,115,79.6,115z M79.1,115.8
		c0,0-0.1,0.1-0.1,0.1C79,115.9,79.1,115.9,79.1,115.8z M78.5,116.6c0,0-0.1,0.1-0.1,0.1C78.4,116.7,78.4,116.7,78.5,116.6z
		 M77.8,117.4c0,0-0.1,0.1-0.1,0.1C77.7,117.4,77.8,117.4,77.8,117.4z M77,118C77,118.1,77,118.1,77,118C77,118.1,77,118.1,77,118z"
		/>
	<path class="st5" d="M81,101.7c5.1,0,9.5,2.8,10.9,6.9l0,0c0.1,0.5,0.4,1.1,0.6,1.6c0.6,1.3,1.6,2.4,2.7,3.4
		c0.3,0.2,0.6,0.5,0.9,0.7c1.3,0.9,2.8,1.5,4.3,1.9c0.8,0.2,1.6,0.3,2.4,0.4c0.3,0,0.6,0,0.9,0c2.6,0,5.1-0.7,7.2-2
		c-2.3,7.7-10.8,13.1-20.4,13.1c-10.7,0-19.6-6.5-20.9-15.2l0.1,0c0,0,0,0,0,0c-0.1-0.4-0.1-0.8-0.1-1.2
		C69.6,105.9,74.7,101.7,81,101.7L81,101.7z M69.9,113.2C69.9,113.3,69.9,113.3,69.9,113.2C69.9,113.3,69.9,113.3,69.9,113.2z
		 M70.2,114.1C70.2,114.2,70.2,114.2,70.2,114.1C70.2,114.2,70.2,114.2,70.2,114.1z M70.6,115c0,0,0,0.1,0.1,0.1
		C70.7,115.1,70.6,115,70.6,115z M71.1,115.8c0,0,0.1,0.1,0.1,0.1C71.2,115.9,71.2,115.9,71.1,115.8z M71.7,116.6
		c0,0,0.1,0.1,0.1,0.1C71.8,116.7,71.8,116.7,71.7,116.6z M72.4,117.4c0,0,0.1,0.1,0.1,0.1C72.5,117.4,72.5,117.4,72.4,117.4z
		 M73.2,118C73.3,118.1,73.3,118.1,73.2,118C73.3,118.1,73.3,118.1,73.2,118z"/>
	<path class="st6" d="M58.2,154.5h33.4v15.7c0,0-2.2,6.5-17.4,6.3c-14.8-0.3-16-6.7-16-6.7V154.5z"/>
	<path class="st2" d="M57.1,170.4l17.6,40l18-39.8L57.1,170.4z"/>
	<path class="st1" d="M57.9,181.1h31.9v20.4H57.9V181.1z"/>
	<path d="M78.6,178.6h-7.6l-2.6-0.2l-4.4,56.3h14.7"/>
	<path d="M71.2,178.6h7.6l2.6-0.2l4.4,56.3H71.2"/>
	<path class="st0" d="M53.3,170.6L97,255.3H34.6L53.3,170.6z"/>
	<path d="M75.5,173.2h-5.8l-5.3,10.4h11.1"/>
	<path d="M74.6,173.2h5.8l5.3,10.4H74.6"/>
	<path class="st0" d="M97.4,170.6l-43.7,84.8h62.4L97.4,170.6z"/>
	<path class="st7" d="M79.6,172.4l6.8,15.7l14.2-16.7l-7.8-6.1L79.6,172.4z"/>
	<path class="st7" d="M70.9,172.1l-6.8,15.7l-14.3-16.7l7.8-6.1L70.9,172.1z"/>
</g>
</svg>
