<svg version="1.1" id="Layer_1" xmlns="http://www.w3.org/2000/svg" x="0" y="0" viewBox="0 0 150.1 255.3" xml:space="preserve"><style>.st0{fill:#666}.st1{fill:#b3b3b3}.st2{fill:#deaa87}.st3{fill:#c8b7b7}.st4{fill:#d08553}.st5{fill:#e3dbdb}.st7{fill:#dadada}</style><g id="surface1"><path class="st0" d="M4 243.1h142.2v12.1H4v-12.1zM36.6 170.6h76.9c18 0 32.6 14.4 32.6 32.2v6.4c0 17.8-14.6 32.2-32.6 32.2H36.6C18.6 241.4 4 227 4 209.2v-6.4c0-17.8 14.6-32.2 32.6-32.2z"/><path class="st0" d="M4 201.3h142.2v43H4v-43z"/><path class="st1" d="M53.8 170.5h41.5v84.9H53.8v-84.9z"/><path class="st2" d="M65 9h20.2c27.6 0 49.9 22 49.9 49.2v50.2c0 27.2-22.4 49.2-49.9 49.2H65c-27.6 0-49.9-22-49.9-49.2V58.2C15.1 31 37.4 9 65 9z"/><path class="st2" d="M65 9h20.6c27.6 0 49.9 22 49.9 49.2v50.2c0 27.2-22.4 49.2-49.9 49.2H65c-27.6 0-49.9-22-49.9-49.2V58.2C15.1 31 37.4 9 65 9z"/><path class="st3" d="M133 25.6c-8.3 0-15 6.7-15 15s6.7 15 15 15c.7 0 1.4-.1 2.1-.2V62c2.1 0 4.2.4 6.2 1.3V53.1c4.2-2.8 6.7-7.5 6.7-12.5 0-8.3-6.7-15-15-15zM15.6 28.2c-8.3 0-15 6.7-15 15 0 6.1 3.6 11.5 9.2 13.9v6.2c1.9-.9 4-1.3 6.2-1.3v-3.8c8.1-.2 14.6-6.9 14.6-15 0-8.3-6.7-15-15-15z"/><path class="st2" d="M135 62c8.4 0 15.1 6.6 15.1 14.8 0 7.6-5.8 13.9-13.5 14.7l-1.6.1V62zM15.1 62C6.8 62 0 68.6 0 76.8c0 7.6 5.8 13.9 13.5 14.7l1.6.1V62z"/><path class="st2" d="M15.1 62C6.8 62 0 68.6 0 76.8c0 7.6 5.8 13.9 13.5 14.7l1.6.1V62z"/><path class="st4" d="M14.8 68.3c-4.8 0-8.7 3.8-8.7 8.5 0 4.4 3.4 8 7.8 8.5l.9.1V68.3zM135.1 68.3c4.8 0 8.7 3.8 8.7 8.5 0 4.4-3.4 8-7.8 8.5l-.9.1V68.3z"/><path class="st2" d="M65 9h20.6c27.6 0 49.9 22 49.9 49.2v50.2c0 27.2-22.4 49.2-49.9 49.2H65c-27.6 0-49.9-22-49.9-49.2V58.2C15.1 31 37.4 9 65 9z"/><path class="st4" d="M14.8 68.3c-4.8 0-8.7 3.8-8.7 8.5 0 4.4 3.4 8 7.8 8.5l.9.1V68.3z"/><path class="st2" d="M135 62c8.4 0 15.1 6.6 15.1 14.8 0 7.6-5.8 13.9-13.5 14.7l-1.6.1V62z"/><path class="st4" d="M135.1 68.3c4.8 0 8.7 3.8 8.7 8.5 0 4.4-3.4 8-7.8 8.5l-.9.1V68.3z"/><path class="st5" d="M145.2 24.9c.3-11.3-8.6-20.7-19.9-21s-20.6 8.6-20.9 19.9c-.3 11.3 8.6 20.7 19.9 21 11.3.3 20.6-8.6 20.9-19.9z"/><path class="st5" d="M121.7 15C121.9 7.2 115.8.8 108 .6S93.9 6.5 93.7 14.3c-.2 7.8 5.9 14.2 13.6 14.4 7.8.2 14.2-5.9 14.4-13.7zM56.2 14.7C56.4 6.8 50.2.2 42.4 0 34.5-.2 28 6.1 27.8 14s6 14.5 13.8 14.7c7.9.2 14.4-6.1 14.6-14z"/><path class="st5" d="M47 26.3c.3-12.5-9.5-22.9-22-23.2-12.5-.3-22.8 9.6-23.2 22.1s9.5 22.9 22 23.2c12.5.3 22.9-9.6 23.2-22.1zM69.2 101.7c-5.1 0-9.5 2.8-10.9 6.9-.2.5-.4 1.1-.6 1.6-.6 1.3-1.6 2.4-2.7 3.4-.3.2-.6.5-.9.7-1.3.9-2.8 1.5-4.3 1.9-.8.2-1.6.3-2.4.4h-.9c-2.6 0-5.1-.7-7.2-2 2.3 7.7 10.8 13.1 20.4 13.1 10.7 0 19.6-6.5 20.9-15.2h-.1c.1-.4.1-.8.1-1.2 0-5.4-5.1-9.6-11.4-9.6zm11.1 11.5c0 .1 0 .1 0 0 0 .1 0 .1 0 0zm-.3.9c0 .1 0 .1 0 0 0 .1 0 .1 0 0zm-.4.9s0 .1-.1.1c.1 0 .1-.1.1-.1zm-.5.8l-.1.1s.1 0 .1-.1zm-.6.8l-.1.1.1-.1zm-.7.8l-.1.1c0-.1.1-.1.1-.1zm-.8.6c0 .1 0 .1 0 0 0 .1 0 .1 0 0z"/><path class="st5" d="M81 101.7c5.1 0 9.5 2.8 10.9 6.9.1.5.4 1.1.6 1.6.6 1.3 1.6 2.4 2.7 3.4.3.2.6.5.9.7 1.3.9 2.8 1.5 4.3 1.9.8.2 1.6.3 2.4.4h.9c2.6 0 5.1-.7 7.2-2-2.3 7.7-10.8 13.1-20.4 13.1-10.7 0-19.6-6.5-20.9-15.2h.1c-.1-.4-.1-.8-.1-1.2 0-5.4 5.1-9.6 11.4-9.6zm-11.1 11.5c0 .1 0 .1 0 0 0 .1 0 .1 0 0zm.3.9c0 .1 0 .1 0 0 0 .1 0 .1 0 0zm.4.9s0 .1.1.1l-.1-.1zm.5.8l.1.1-.1-.1zm.6.8l.1.1-.1-.1zm.7.8l.1.1c0-.1 0-.1-.1-.1zm.8.6c.1.1.1.1 0 0 .1.1.1.1 0 0z"/><path d="M58.2 154.5h33.4v15.7s-2.2 6.5-17.4 6.3c-14.8-.3-16-6.7-16-6.7v-15.3z" fill="#deaa87" stroke="#deaa87" stroke-width=".6"/><path class="st2" d="M57.1 170.4l17.6 40 18-39.8-35.6-.2z"/><path class="st1" d="M57.9 181.1h31.9v20.4H57.9v-20.4z"/><path d="M78.6 178.6H71l-2.6-.2-4.4 56.3h14.7"/><path d="M71.2 178.6h7.6l2.6-.2 4.4 56.3H71.2"/><path class="st0" d="M53.3 170.6L97 255.3H34.6l18.7-84.7z"/><path d="M75.5 173.2h-5.8l-5.3 10.4h11.1"/><path d="M74.6 173.2h5.8l5.3 10.4H74.6"/><path class="st0" d="M97.4 170.6l-43.7 84.8h62.4l-18.7-84.8z"/><path class="st7" d="M79.6 172.4l6.8 15.7 14.2-16.7-7.8-6.1-13.2 7.1zM70.9 172.1l-6.8 15.7-14.3-16.7 7.8-6.1 13.3 7.1z"/></g></svg>