<svg xmlns="http://www.w3.org/2000/svg" width="191.735" height="204.466" viewBox="0 0 191.735 204.466"><defs><style>.a{fill:#996459;}.b{fill:#4bb9ec;}.c{fill:#009bca;}.d{fill:#3482ac;}.e{fill:#b4b6bc;}.f{fill:#ffdcad;}.g{fill:#aeefff;}.h{fill:#fff;}.i{fill:#5c546a;}.j{fill:#868491;}.k{fill:#5d647f;}.l{fill:#68748d;}.m{fill:#ffe671;}.n{fill:#ffcd00;}</style></defs><g transform="translate(-15.936 0)"><g transform="translate(15.936 137.358)"><path class="a" d="M183.91,349.526l-29.977-5.6a3.363,3.363,0,0,0-.587-.053H70.261a3.366,3.366,0,0,0-.587.053l-30.249,5.667C24,353.91,15.936,369.1,15.936,381.878v17.51c0,6.391,5.733,11.59,12.782,11.59h166.17c7.049,0,12.782-5.2,12.782-11.59v-17.51C207.671,369.1,199.6,353.91,183.91,349.526Z" transform="translate(-15.936 -343.871)"/></g><g transform="translate(96.315 166.119)"><path class="b" d="M248.138,454.218l-5.946-35.675a3.194,3.194,0,0,0-3.152-2.672H226.258a3.194,3.194,0,0,0-3.152,2.672l-5.946,35.675Z" transform="translate(-217.16 -415.871)"/></g><g transform="translate(103.283 166.119)"><path class="c" d="M236.734,415.871a3.173,3.173,0,0,0-2.129.833l21.309,21.311-1.807-10.845-11.3-11.3Z" transform="translate(-234.605 -415.871)"/></g><g transform="translate(99 147.011)"><path class="d" d="M249.447,371.224a3.194,3.194,0,0,0-3.2-3.189H230.273a3.2,3.2,0,0,0-2.858,1.766l-3.2,6.391a3.155,3.155,0,0,0-.337,1.442l.022,6.316a9.6,9.6,0,0,0,9.587,9.584h6.391a9.6,9.6,0,0,0,9.587-9.593Z" transform="translate(-223.882 -368.035)"/></g><g transform="translate(67.786 121.38)"><path class="e" d="M191.294,320.319l-28.738-16.043a3.193,3.193,0,0,0-4.107.864l-12.061,15.978a3.193,3.193,0,0,0-.1,3.717l19.482,28.757a6.371,6.371,0,0,0,4.681,2.774c.206.019.412.028.615.028a6.369,6.369,0,0,0,4.509-1.866,3.092,3.092,0,0,0,.231-.259l13.241-16.44a2.985,2.985,0,0,0,.368-.571l3.174-6.326a3.17,3.17,0,0,0,.34-1.432v-6.391A3.2,3.2,0,0,0,191.294,320.319Z" transform="translate(-145.741 -303.869)"/></g><g transform="translate(108.586 121.38)"><path class="e" d="M249.52,320.319l28.738-16.043a3.193,3.193,0,0,1,4.107.864l12.061,15.978a3.193,3.193,0,0,1,.1,3.717l-19.482,28.757a6.371,6.371,0,0,1-4.681,2.774c-.206.019-.412.028-.615.028a6.369,6.369,0,0,1-4.509-1.866,3.084,3.084,0,0,1-.231-.259l-13.241-16.44a2.983,2.983,0,0,1-.368-.571l-3.174-6.326a3.171,3.171,0,0,1-.34-1.432v-6.391A3.2,3.2,0,0,1,249.52,320.319Z" transform="translate(-247.882 -303.869)"/></g><g transform="translate(63.848 51.735)"><path class="f" d="M228.554,138.511l-6.3-6.391s-21.658-5.859-67.195,0l-19.173,6.391V160.88c0,31.768,21.461,57.521,47.934,57.521s47.934-25.753,47.934-57.521V138.511C230.922,139.436,228.554,138.511,228.554,138.511Z" transform="translate(-135.882 -129.516)"/></g><g transform="translate(79.76 70.317)"><circle class="g" cx="12.782" cy="12.782" r="12.782"/></g><g transform="translate(83.64 70.317)"><path class="h" d="M194.419,176.035a12.736,12.736,0,0,0-8.99,3.7L203.5,197.808a12.777,12.777,0,0,0-9.078-21.773Z" transform="translate(-185.429 -176.035)"/></g><g transform="translate(118.107 70.317)"><circle class="g" cx="12.782" cy="12.782" r="12.782"/></g><g transform="translate(121.987 70.317)"><path class="h" d="M290.419,176.035a12.736,12.736,0,0,0-8.99,3.7L299.5,197.808a12.777,12.777,0,0,0-9.078-21.773Z" transform="translate(-281.429 -176.035)"/></g><g transform="translate(102.283 73.512)"><path class="i" d="M248.079,196.817a3.194,3.194,0,0,1-3.2-3.2,3.2,3.2,0,1,0-6.391,0,3.2,3.2,0,1,1-6.391,0,9.587,9.587,0,1,1,19.173,0A3.194,3.194,0,0,1,248.079,196.817Z" transform="translate(-232.101 -184.035)"/></g><g transform="translate(60.653 76.708)"><path class="i" d="M147.143,198.426H131.078a3.2,3.2,0,1,1,0-6.391h16.065a3.2,3.2,0,0,1,0,6.391Z" transform="translate(-127.882 -192.035)"/></g><g transform="translate(140.63 76.708)"><path class="i" d="M347.187,198.426H331.3a3.2,3.2,0,0,1,0-6.391h15.89a3.2,3.2,0,0,1,0,6.391Z" transform="translate(-328.101 -192.035)"/></g><g transform="translate(76.718 67.121)"><g transform="translate(0)"><path class="j" d="M184.079,199.991a15.978,15.978,0,1,1,15.978-15.978A16,16,0,0,1,184.079,199.991Zm0-25.565a9.587,9.587,0,1,0,9.587,9.587A9.6,9.6,0,0,0,184.079,174.426Z" transform="translate(-168.101 -168.035)"/></g></g><g transform="translate(115.065 67.121)"><path class="j" d="M280.079,199.991a15.978,15.978,0,1,1,15.978-15.978A16,16,0,0,1,280.079,199.991Zm0-25.565a9.587,9.587,0,1,0,9.587,9.587A9.6,9.6,0,0,0,280.079,174.426Z" transform="translate(-264.101 -168.035)"/></g><g transform="translate(92.63 104.225)"><path class="h" d="M213.484,269.594a5.914,5.914,0,0,1-4.834-2.281,3.2,3.2,0,0,1,4.962-4.032,18.057,18.057,0,0,0,3.161-.927c3.342-1.139,7.92-2.7,12.19.34a3.2,3.2,0,0,1-3.707,5.205c-1.489-1.064-3.42-.518-6.422.506A17.1,17.1,0,0,1,213.484,269.594Z" transform="translate(-207.935 -260.924)"/></g><g transform="translate(108.608 104.228)"><path class="h" d="M264.757,269.6a17.112,17.112,0,0,1-5.349-1.189c-3.005-1.021-4.937-1.57-6.422-.506a3.2,3.2,0,1,1-3.707-5.205c4.263-3.037,8.847-1.479,12.19-.34,1.114.381,2.793.983,3.327.84a3.1,3.1,0,0,1,4.413-.421,3.239,3.239,0,0,1,.384,4.537A5.9,5.9,0,0,1,264.757,269.6Z" transform="translate(-247.936 -260.93)"/></g><g transform="translate(98.978 118.185)"><path class="h" d="M249.41,298.867a3.2,3.2,0,0,0-3.189-3H227.085a3.194,3.194,0,0,0-3.189,3c-.059.955-1.342,23.567,10.314,37.411a3.2,3.2,0,0,0,4.887,0C250.752,322.434,249.469,299.822,249.41,298.867Z" transform="translate(-223.827 -295.871)"/></g><g transform="translate(172.52 38.542)"><g transform="translate(0)"><path class="i" d="M411.132,140.98a3.194,3.194,0,0,1-3.2-3.2v-38.1a3.2,3.2,0,0,1,6.391,0v38.1A3.194,3.194,0,0,1,411.132,140.98Z" transform="translate(-407.936 -96.488)"/></g></g><g transform="translate(28.666 0)"><path class="i" d="M205.239,24.1l-65-22.285a33.823,33.823,0,0,0-21.842,0L53.4,24.1a8.278,8.278,0,0,0,0,15.66l31.784,10.9a3.253,3.253,0,0,0,1.036.172h.041l89.464-1.117a3.186,3.186,0,0,0,1-.172l28.523-9.78a8.278,8.278,0,0,0,0-15.66Z" transform="translate(-47.804 0)"/></g><g transform="translate(63.87 22.383)"><g transform="translate(0 0)"><path class="k" d="M172.91,90.052c3.389-.246,7.021-.4,10.96-.4s7.572.151,10.96.4c13.013.752,28.474,2.9,36.973,7.526V72.013c0-10.978-24.847-15.978-47.934-15.978s-47.934,5-47.934,15.978V97.578C144.436,92.954,159.9,90.8,172.91,90.052Z" transform="translate(-135.937 -56.035)"/></g><g transform="translate(0 17.707)"><path class="i" d="M183.87,100.363c-13.867,0-36.841,1.824-47.934,7.858v8.12c0-2.784,16.8-9.587,47.934-9.587s47.934,6.8,47.934,9.587v-8.12C220.711,102.187,197.737,100.363,183.87,100.363Z" transform="translate(-135.936 -100.363)"/></g><g transform="translate(47.912)"><path class="l" d="M255.9,56.035h-.022V89.655h.022c3.939,0,7.572.151,10.96.4,13.013.752,28.474,2.9,36.973,7.526V72.013C303.837,61.034,278.99,56.035,255.9,56.035Z" transform="translate(-255.881 -56.035)"/></g><g transform="translate(47.912 17.707)"><path class="k" d="M255.882,100.363v6.391h.022c31.135,0,47.934,6.8,47.934,9.587v-8.12c-11.093-6.034-34.066-7.858-47.934-7.858Z" transform="translate(-255.882 -100.363)"/></g></g><g transform="translate(169.302 79.903)"><path class="m" d="M409.469,222.4h-6.391a3.2,3.2,0,0,1-3.2-3.2V206.426a6.391,6.391,0,0,1,6.391-6.391h0a6.391,6.391,0,0,1,6.391,6.391v12.782A3.2,3.2,0,0,1,409.469,222.4Z" transform="translate(-399.882 -200.035)"/></g><g transform="translate(169.302 79.903)"><path class="n" d="M399.882,206.426v12.782a3.2,3.2,0,0,0,3.2,3.2h3.2V200.035A6.391,6.391,0,0,0,399.882,206.426Z" transform="translate(-399.882 -200.035)"/></g><g transform="translate(15.936 150.831)"><path class="e" d="M47.893,409.868a25.566,25.566,0,0,0-7.488-18.077L26.215,377.6a35.466,35.466,0,0,0-10.278,24.534v17.51c0,6.391,5.733,11.59,12.782,11.59H47.894V409.868Z" transform="translate(-15.937 -377.6)"/></g><g transform="translate(175.716 150.862)"><path class="e" d="M437.588,377.676l-14.161,14.161a25.564,25.564,0,0,0-7.488,18.077V431.28h19.173c7.049,0,12.782-5.2,12.782-11.59V402.18A35.3,35.3,0,0,0,437.588,377.676Z" transform="translate(-415.939 -377.676)"/></g><g transform="translate(99.816 175.71)"><path class="c" d="M227.217,439.882l-1.291,7.747,21.007,21.009H253.4l-.513-3.082Z" transform="translate(-225.926 -439.882)"/></g><g transform="translate(96.963 192.829)"><path class="c" d="M218.784,490.486l3.89,3.89h9.038l-11.636-11.637Z" transform="translate(-218.784 -482.739)"/></g></g></svg>