<svg xmlns="http://www.w3.org/2000/svg" width="660.157" height="419.152" viewBox="0 0 660.157 419.152"><defs><style>.a{fill:#f2f2f2;}.b{fill:#42b983;}.c{fill:#3f3d56;}.d{fill:#026e57;}.e{fill:#ffb9b9;}.f{fill:#575a89;}.g{fill:#2f2e41;}.h{opacity:0.1;}</style></defs><g transform="translate(0 0)"><path class="a" d="M72.25,234.083V419.215H369.962V234.083ZM306.328,363.35a7.527,7.527,0,0,1-7.505,7.505H262.547a7.527,7.527,0,0,1-7.505-7.505v-1.876a7.527,7.527,0,0,1,7.505-7.505h36.276a7.527,7.527,0,0,1,7.505,7.505Z" transform="translate(-72.25 -159.551)"/><rect class="b" width="19.334" height="18.665" transform="matrix(0.933, -0.361, 0.361, 0.933, 424.058, 103.721)"/><path class="c" d="M769.032,284.268l-18.982,7.341-7.087-18.324,18.982-7.341Zm-18.387,6.058,17.083-6.607-6.378-16.492-17.083,6.607Z" transform="translate(-323.469 -171.485)"/><rect class="b" width="19.334" height="18.665" transform="translate(160.471 324.455) rotate(71.027)"/><path class="c" d="M309.076,652.139l-6.617-19.246,18.58-6.388,6.617,19.246Zm-5.357-18.6,5.955,17.321,16.722-5.749-5.955-17.321Z" transform="translate(-158.476 -306.535)"/><path class="c" d="M408.713,389.965H109.75V203.583H408.713ZM111,388.715H407.462V204.834H111Z" transform="translate(-86.296 -148.127)"/><rect class="a" width="297.712" height="185.132" transform="translate(337.74 234.02)"/><path class="c" d="M948.713,644.966H649.75V458.583H948.713ZM651,643.715H947.462V459.834H651Z" transform="translate(-288.556 -243.639)"/><rect class="c" width="145.103" height="16.887" rx="8.444" transform="translate(93.04 161.268)"/><rect class="c" width="145.103" height="16.887" rx="8.444" transform="translate(93.04 94.971)"/><rect class="d" width="145.103" height="16.887" rx="8.444" transform="translate(93.04 128.12)"/><path class="c" d="M231.411,171.176l-.793-.3c-.174-.066-17.508-6.707-25.628-21.765s-4.144-33.19-4.1-33.371l.187-.826.792.3c.174.066,17.507,6.707,25.628,21.765s4.144,33.19,4.1,33.371Zm-25.12-22.763c6.865,12.732,20.563,19.258,24.033,20.748.66-3.72,2.729-18.761-4.13-31.481s-20.561-19.255-24.033-20.748c-.66,3.722-2.729,18.762,4.129,31.481Z" transform="translate(-120.054 -114.917)"/><path class="b" d="M198.432,157.468c14.592,8.779,20.212,26.217,20.212,26.217s-18.039,3.2-32.631-5.575S165.8,151.892,165.8,151.892,183.84,148.688,198.432,157.468Z" transform="translate(-107.29 -128.553)"/><path class="e" d="M843.836,693.074s-25.4,13.169-15.991,25.4,25.4-14.109,25.4-15.991S843.836,693.074,843.836,693.074Z" transform="translate(-354.48 -331.469)"/><path class="f" d="M879.5,638.932s-16.931,20.694-21.635,23.516-8.466,5.644-8.466,6.584-3.763,5.644-3.763,5.644l15.05,13.169S877.622,665.27,879.5,665.27,879.5,638.932,879.5,638.932Z" transform="translate(-361.928 -311.19)"/><path class="g" d="M885.023,599.791H830.19l4.159-26.244,3.359-21.2,2.108-13.291,20.7-7.524,5.016,7.755L881.2,563.515l1.044,9.938v.006l2.752,26.1Z" transform="translate(-310.952 -199.09)"/><path class="g" d="M959.786,680.872s-.357,3.227-1.507,8.456c-.288,1.326-.632,2.789-1.032,4.359-.35,1.363-.738,2.8-1.182,4.316a132.386,132.386,0,0,1-4.979,14.129v.006c-.782,1.876-1.632,3.79-2.558,5.717-.038.075-.075.156-.113.231H879.16c2.846-11.264,5.6-21.353,7.505-28.176,1.57-5.635,2.571-9.038,2.571-9.038l12-10.226,13.4-11.408,14.423-1.651,8.913-1.019,6.129-.7,1.007-.113,2.445-.281Z" transform="translate(-374.483 -317.385)"/><circle class="e" cx="21.635" cy="21.635" r="21.635" transform="translate(509.454 165.539)"/><path class="e" d="M934.787,415.921l11.322,24.222-31.788,22.018s3.742-26.223-3.307-32.863S934.787,415.921,934.787,415.921Z" transform="translate(-386.021 -227.66)"/><path class="f" d="M900.115,474.461s15.05-31.041,27.278-31.041,44.21,21.635,43.269,26.338a32.4,32.4,0,0,0-.941,8.466c0,2.822,6.584,2.822.941,4.7s-6.584,3.763-6.584,3.763l4.7,120.4s-20.694,7.525-28.219,4.7-15.05-21.634-15.05-21.634,1.881,25.4-5.644,24.456-35.744-2.822-36.685-6.584,5.644-86.538,5.644-86.538Z" transform="translate(-375.955 -237.96)"/><path class="e" d="M1014,740.62H994.988a44.674,44.674,0,0,1-1.076-5.948v-.012a76.678,76.678,0,0,1-.2-13.672c.188-2.7.432-4.416.432-4.416l5.929-.35,10.063-.588s.4,1.476.944,3.846C1012.219,724.408,1013.97,733.208,1014,740.62Z" transform="translate(-417.309 -339.919)"/><path class="f" d="M971.052,480.618l27.278,69.607s3.763,7.525,0,13.169,1.881,39.506-1.881,47.031-3.763,20.694-3.763,20.694L971.052,633l-4.7-82.776L941.892,497.55S943.773,475.915,971.052,480.618Z" transform="translate(-397.979 -251.642)"/><path class="h" d="M977.235,477.259s16.931,4.7,22.575,21.635Z" transform="translate(-411.217 -250.634)"/><path class="g" d="M915.925,402.853c-2.1-.126-4.16.586-6.25.863a15.82,15.82,0,0,1-16.909-11.795,9.054,9.054,0,0,0-.865-2.818c-1.151-1.879-3.772-2.237-5.933-1.805s-4.209,1.443-6.41,1.559a9.815,9.815,0,0,1-8.471-4.794,16.258,16.258,0,0,1-2.079-9.819l1.629,1.71a8.274,8.274,0,0,0,.738-4.5,5.218,5.218,0,0,1,4.942,1.265c1.436.153.352-2.664,1.419-3.638a2.469,2.469,0,0,1,1.737-.325c3.055.029,5.527-2.308,7.935-4.189a33.719,33.719,0,0,1,14.241-6.5,18.736,18.736,0,0,1,10.391.5,22.2,22.2,0,0,1,7.017,4.978c5.123,4.926,9.659,10.714,11.79,17.493a29.449,29.449,0,0,1,.141,17.076c-.859,2.9-3.447,12.825-7.236,13.056C918.993,411.471,921.851,403.206,915.925,402.853Z" transform="translate(-370.659 -205.81)"/><path class="h" d="M869.349,425.675,891.5,458.167l7.084,75.473Z" transform="translate(-325.619 -159.439)"/><rect class="c" width="51.286" height="16.887" rx="8.444" transform="translate(434.059 372.869)"/></g></svg>