<svg xmlns="http://www.w3.org/2000/svg" width="660.157" height="419.152"><defs><style>.a{fill:#f2f2f2}.b{fill:#42b983}.c{fill:#3f3d56}.e{fill:#ffb9b9}.f{fill:#575a89}.g{fill:#2f2e41}.h{opacity:.1}</style></defs><g><path class="a" d="M0 74.532v185.132h297.712V74.532zm234.078 129.267a7.527 7.527 0 01-7.505 7.505h-36.276a7.527 7.527 0 01-7.505-7.505v-1.876a7.527 7.527 0 017.505-7.505h36.276a7.527 7.527 0 017.505 7.505z"/><path class="b" d="M424.058 103.721l18.039-6.98 6.738 17.415-18.039 6.98z"/><path class="c" d="M445.563 112.783l-18.982 7.341-7.087-18.324 18.982-7.341zm-18.387 6.058l17.083-6.607-6.378-16.492-17.083 6.607z"/><path class="b" d="M160.471 324.455l6.286 18.284-17.651 6.068-6.286-18.284z"/><path class="c" d="M150.6 345.604l-6.617-19.246 18.58-6.388 6.617 19.246zm-5.357-18.6l5.955 17.321 16.722-5.749-5.955-17.321zM322.417 241.838H23.454V55.456h298.963zm-297.713-1.25h296.462V56.707H24.704z"/><path class="a" d="M337.74 234.02h297.712v185.132H337.74z"/><path class="c" d="M660.157 401.327H361.194V214.944h298.963zm-297.713-1.251h296.462V216.195H362.444z"/><rect class="c" width="145.103" height="16.887" rx="8.444" transform="translate(93.04 161.268)"/><rect class="c" width="145.103" height="16.887" rx="8.444" transform="translate(93.04 94.971)"/><rect width="145.103" height="16.887" rx="8.444" transform="translate(93.04 128.12)" fill="#026e57"/><path class="c" d="M111.357 56.259l-.793-.3c-.174-.066-17.508-6.707-25.628-21.765s-4.144-33.19-4.1-33.371l.187-.826.792.3c.174.066 17.507 6.707 25.628 21.765s4.144 33.19 4.1 33.371zm-25.12-22.763c6.865 12.732 20.563 19.258 24.033 20.748.66-3.72 2.729-18.761-4.13-31.481S85.579 3.508 82.107 2.015c-.66 3.722-2.729 18.762 4.129 31.481z"/><path class="b" d="M91.142 28.915c14.592 8.779 20.212 26.217 20.212 26.217s-18.039 3.2-32.631-5.575S58.51 23.339 58.51 23.339s18.04-3.204 32.632 5.576z"/><path class="e" d="M489.356 361.605s-25.4 13.169-15.991 25.4 25.4-14.109 25.4-15.991-9.409-9.409-9.409-9.409z"/><path class="f" d="M517.572 327.742s-16.931 20.694-21.635 23.516-8.466 5.644-8.466 6.584-3.763 5.644-3.763 5.644l15.05 13.169s16.936-22.575 18.814-22.575 0-26.338 0-26.338z"/><path class="g" d="M574.071 400.701h-54.833l4.159-26.244 3.359-21.2 2.108-13.291 20.7-7.524 5.016 7.755 15.668 24.228 1.044 9.938v.006l2.752 26.1z"/><path class="g" d="M585.303 363.487s-.357 3.227-1.507 8.456a126.505 126.505 0 01-2.214 8.675 132.386 132.386 0 01-4.979 14.129v.006a118.214 118.214 0 01-2.558 5.717c-.038.075-.075.156-.113.231h-69.255c2.846-11.264 5.6-21.353 7.505-28.176 1.57-5.635 2.571-9.038 2.571-9.038l12-10.226 13.4-11.408 14.423-1.651 8.913-1.019 6.129-.7 1.007-.113 2.445-.281z"/><circle class="e" cx="21.635" cy="21.635" r="21.635" transform="translate(509.454 165.539)"/><path class="e" d="M548.766 188.261l11.322 24.222-31.788 22.018s3.742-26.223-3.307-32.863 23.773-13.377 23.773-13.377z"/><path class="f" d="M524.16 236.501s15.05-31.041 27.278-31.041 44.21 21.635 43.269 26.338a32.4 32.4 0 00-.941 8.466c0 2.822 6.584 2.822.941 4.7s-6.584 3.763-6.584 3.763l4.7 120.4s-20.694 7.525-28.219 4.7-15.05-21.634-15.05-21.634 1.881 25.4-5.644 24.456-35.744-2.822-36.685-6.584 5.644-86.538 5.644-86.538z"/><path class="e" d="M596.691 400.701h-19.012a44.674 44.674 0 01-1.076-5.948v-.012a76.678 76.678 0 01-.2-13.672c.188-2.7.432-4.416.432-4.416l5.929-.35 10.063-.588s.4 1.476.944 3.846c1.139 4.928 2.89 13.728 2.92 21.14z"/><path class="f" d="M573.073 228.976l27.278 69.607s3.763 7.525 0 13.169 1.881 39.506-1.881 47.031-3.763 20.694-3.763 20.694l-21.634 1.881-4.7-82.776-24.46-52.674s1.881-21.635 29.16-16.932z"/><path class="h" d="M566.018 226.625s16.931 4.7 22.575 21.635z"/><path class="g" d="M545.266 197.043c-2.1-.126-4.16.586-6.25.863a15.82 15.82 0 01-16.909-11.795 9.054 9.054 0 00-.865-2.818c-1.151-1.879-3.772-2.237-5.933-1.805s-4.209 1.443-6.41 1.559a9.815 9.815 0 01-8.471-4.794 16.258 16.258 0 01-2.079-9.819l1.629 1.71a8.274 8.274 0 00.738-4.5 5.218 5.218 0 014.942 1.265c1.436.153.352-2.664 1.419-3.638a2.469 2.469 0 011.737-.325c3.055.029 5.527-2.308 7.935-4.189a33.719 33.719 0 0114.241-6.5 18.736 18.736 0 0110.391.5 22.2 22.2 0 017.017 4.978c5.123 4.926 9.659 10.714 11.79 17.493a29.449 29.449 0 01.141 17.076c-.859 2.9-3.447 12.825-7.236 13.056-4.759.301-1.901-7.964-7.827-8.317z"/><path class="h" d="M543.73 266.236l22.151 32.492 7.084 75.473z"/><rect class="c" width="51.286" height="16.887" rx="8.444" transform="translate(434.059 372.869)"/></g></svg>