<svg xmlns="http://www.w3.org/2000/svg" width="398.009" height="397.16" viewBox="0 0 398.009 397.16"><defs><style>.a{fill:#a0616a;}.b{fill:#575a89;}.c{opacity:0.1;}.d{fill:#2f2e41;}.e{fill:#d0cde1;}.f{fill:#42b983;}.g{fill:#ff6584;}.h{fill:#3f3d56;}</style></defs><g transform="translate(-0.001 0)"><path class="a" d="M469.268,398.128s51.836,2.5,54.959,20.61-60.579,1.874-60.579,1.874Z" transform="translate(-232.699 -231.731)"/><path class="b" d="M339.394,306.128s8.743,2.5,15.613,17.487,20.61,28.728,20.61,28.728L431.2,362.96l-9.368,28.1-53.085-6.87-33.1-18.736Z" transform="translate(-184.639 -197.188)"/><path class="c" d="M339.394,306.128s8.743,2.5,15.613,17.487,20.61,28.728,20.61,28.728L431.2,362.96l-9.368,28.1-53.085-6.87-33.1-18.736Z" transform="translate(-184.639 -197.188)"/><path class="a" d="M115.793,119.423l5.621,35.6,38.721,1.874-4.372-52.461Z" transform="translate(-43.477 -39.212)"/><path class="d" d="M143.021,633.48l-1.874,78.691h58.706l8.743-31.227,6.87,31.227h61.2s1.249-89.932-5.621-90.557S143.021,633.48,143.021,633.48Z" transform="translate(-111.611 -315.635)"/><circle class="a" cx="33.725" cy="33.725" r="33.725" transform="translate(51.082 22.13)"/><path class="b" d="M135.268,510.237l17.487-86.185L129.647,309.763l53.219-19.97,26.1-3.138,13.119-2.449,9.364,2.449s37.472,9.368,39.345,16.238-7.494,63.078-7.494,63.078l-8.743,46.215,19.36,83.063s-80.564,27.479-137.4,14.989Z" transform="translate(-107.293 -188.957)"/><path class="c" d="M82.293,243.934v23.108l73.69.1L86.04,259.547Z" transform="translate(-30.898 -91.59)"/><path class="c" d="M72.159,338.165l92.514-13.231-92.514,26.2Z" transform="translate(-27.093 -122.003)"/><path class="c" d="M301.33,248.934l-9.918,35.739,16.788-34.56Z" transform="translate(-109.416 -93.467)"/><path class="d" d="M229.572,153.726l6.2-2.483s-12.967-14.276-31.008-13.035l5.074-5.586s-12.4-4.965-23.679,8.069c-5.927,6.852-12.786,14.906-17.061,23.979h-6.641l2.772,6.1-9.7,6.1,9.958-1.1a34.107,34.107,0,0,0-.27,10.124,13.1,13.1,0,0,0,4.8,8.569h0s7.691-15.92,7.691-18.4v6.207s6.2-5.586,6.2-9.31l3.383,4.345,1.691-6.828,20.86,6.828-3.383-5.586,12.967,1.862-5.074-6.828s14.658,8.069,15.222,14.9,4.854,13.3,4.854,13.3S245.922,163.036,229.572,153.726Z" transform="translate(-117.011 -131.694)"/><rect class="e" width="239.82" height="250.437" transform="translate(145.699 146.724)"/><rect class="f" width="177.367" height="24.981" transform="translate(170.68 201.682)"/><rect class="f" width="116.159" height="12.491" transform="translate(201.172 267.883)"/><rect class="f" width="116.159" height="12.491" transform="translate(201.396 289.741)"/><rect class="f" width="58.08" height="12.491" transform="translate(201.62 311.6)"/><rect class="f" width="26.855" height="12.491" transform="translate(324.315 374.677)"/><path class="a" d="M299.647,415.5s54.334-8.119,62.453,3.747-57.457,18.111-57.457,18.111Z" transform="translate(-171.122 -237.236)"/><path class="b" d="M122.453,324.128H118.54a6.379,6.379,0,0,0-4.344,1.691c-3.715,3.449-11.569,12.35-14.85,28.287-4.372,21.234-11.866,62.453,5,65.576s127.4-11.866,127.4-11.866l-8.119-28.728-79.94.625s1.249-13.74-1.249-22.483S122.453,324.128,122.453,324.128Z" transform="translate(-93.853 -203.947)"/><circle class="g" cx="25.606" cy="25.606" r="25.606" transform="translate(230.01 33.059)"/><circle class="h" cx="25.606" cy="25.606" r="25.606" transform="translate(346.798 33.059)"/><path class="h" d="M396.97,85.688l-11.1-14.795,4-3,7.64,10.186,35.123-35.122,3.532,3.532Z" transform="translate(-144.883 -16.13)"/></g></svg>