<svg xmlns="http://www.w3.org/2000/svg" width="57.146" height="57.145" viewBox="0 0 57.146 57.145"><defs><style>.a{fill:#e91e63;}.b{fill:#00bcd4;}.c{fill:#4caf50;}.d{fill:#ff9800;}</style></defs><g transform="translate(-0.002 0.001)"><path class="a" d="M12.325,12.651a6,6,0,0,0-6,6V33.669a6,6,0,1,0,12.005,0V18.654a6.007,6.007,0,0,0-6-6Z" transform="translate(8.728 17.473)"/><path class="a" d="M.019,18.656a6.007,6.007,0,1,0,12.015,0V12.649H6.026A6.009,6.009,0,0,0,.019,18.656Z" transform="translate(0.023 17.47)"/><path class="b" d="M12.335,0h-.007a6.007,6.007,0,0,0,0,12.015h6V5.995a6,6,0,0,0-6-6Z" transform="translate(8.726 0)"/><path class="b" d="M6.009,18.339H21.053a6.007,6.007,0,0,0,0-12.015H6.009a6.007,6.007,0,1,0,0,12.015Z" transform="translate(0 8.735)"/><path class="c" d="M24.935,6.323a5.994,5.994,0,0,0-6,6v6.019h6a6.007,6.007,0,0,0,0-12.015Z" transform="translate(26.153 8.734)"/><path class="c" d="M12.641,6v15.06a6,6,0,1,0,12.005,0V6A6,6,0,1,0,12.641,6Z" transform="translate(17.455 0.003)"/><g transform="translate(30.089 30.119)"><path class="d" d="M24.645,24.958a6,6,0,0,0-6-6h-6v6.007a6,6,0,0,0,12.005,0Z" transform="translate(-12.635 -3.94)"/><path class="d" d="M33.689,12.649H18.645a6.007,6.007,0,0,0,0,12.015H33.689a6.007,6.007,0,1,0,0-12.015Z" transform="translate(-12.638 -12.649)"/></g></g></svg>