<svg xmlns="http://www.w3.org/2000/svg" width="57.146" height="57.145"><defs><style>.a{fill:#e91e63}.b{fill:#00bcd4}.c{fill:#4caf50}.d{fill:#ff9800}</style></defs><path class="a" d="M21.051 30.125a6 6 0 00-6 6v15.018a6.003 6.003 0 1012.005 0V36.128a6.007 6.007 0 00-6-6zM.04 36.127a6.008 6.008 0 1012.015 0V30.12H6.047A6.009 6.009 0 00.04 36.127z"/><path class="b" d="M21.059.001h-.007a6.008 6.008 0 000 12.015h6v-6.02a6 6 0 00-6-6zM6.007 27.075h15.044a6.008 6.008 0 000-12.015H6.007a6.008 6.008 0 100 12.015z"/><path class="c" d="M51.086 15.058a5.994 5.994 0 00-6 6v6.019h6a6.008 6.008 0 000-12.015zM30.094 6.004v15.06a6.003 6.003 0 1012.005 0V6.004a6.003 6.003 0 10-12.005 0z"/><path class="d" d="M42.097 51.138a6 6 0 00-6-6h-6v6.007a6.003 6.003 0 0012.005 0zM51.138 30.12H36.094a6.008 6.008 0 000 12.015h15.044a6.008 6.008 0 100-12.015z"/></svg>