<?xml version="1.0" standalone="no"?>
<!DOCTYPE svg PUBLIC "-//W3C//DTD SVG 20010904//EN"
 "http://www.w3.org/TR/2001/REC-SVG-20010904/DTD/svg10.dtd">
<svg version="1.0" xmlns="http://www.w3.org/2000/svg"
 width="300.000000pt" height="263.000000pt" viewBox="0 0 300.000000 263.000000"
 preserveAspectRatio="xMidYMid meet">
<metadata>
Created by potrace 1.15, written by Peter Selinger 2001-2017
</metadata>
<g transform="translate(0.000000,263.000000) scale(0.100000,-0.100000)"
fill="#000000" stroke="none">
<path d="M1655 2549 c-231 -5 -598 -12 -815 -17 l-395 -9 -68 -33 c-80 -40
-139 -99 -175 -178 l-25 -56 17 -941 c19 -1008 18 -980 72 -1067 45 -70 148
-132 252 -149 36 -5 219 -5 492 1 239 5 690 14 1002 20 321 6 589 15 618 21
67 14 161 77 204 136 67 92 68 109 57 596 -6 237 -13 641 -16 897 -4 266 -11
486 -17 515 -23 109 -88 189 -198 243 l-55 27 -265 1 c-146 1 -454 -2 -685 -7z
m37 -676 c126 -44 236 -133 303 -249 33 -56 41 -64 69 -65 17 0 114 0 216 0
154 1 190 4 218 19 29 15 35 15 60 2 37 -21 43 -81 10 -104 -25 -18 -64 -21
-73 -6 -4 6 -89 10 -222 10 l-215 0 7 -37 c4 -21 9 -41 11 -45 3 -5 151 -8
329 -8 283 0 327 2 352 17 39 22 81 11 89 -22 15 -61 -23 -97 -81 -75 -16 6
-161 10 -360 10 l-333 0 -4 -36 -4 -36 249 3 c230 4 249 3 258 -14 6 -10 7
-31 4 -47 -8 -36 -43 -48 -90 -31 -20 7 -107 11 -236 11 l-204 0 -34 -71 c-64
-131 -198 -241 -346 -284 -77 -23 -222 -24 -291 -3 -108 34 -167 69 -244 147
-43 44 -86 98 -100 128 l-25 52 -229 1 c-153 0 -241 -4 -262 -12 -52 -19 -84
1 -84 51 0 34 4 40 28 49 15 5 36 6 47 1 11 -4 122 -8 248 -8 l227 -1 -6 28
c-3 15 -7 33 -10 40 -5 16 -611 18 -648 1 -56 -26 -109 22 -84 76 13 30 53 43
79 26 13 -8 114 -11 334 -11 l315 0 6 25 c14 54 11 55 -205 55 -122 0 -202 -4
-206 -10 -3 -5 -19 -10 -34 -10 -62 0 -82 80 -28 110 25 14 30 13 58 -2 26
-16 59 -18 235 -18 l204 0 36 71 c65 130 185 228 344 281 73 24 238 19 322 -9z"/>
<path d="M1400 1805 c-209 -59 -349 -241 -350 -453 0 -125 36 -222 117 -312
91 -101 192 -149 330 -157 79 -5 103 -2 160 17 83 28 160 77 213 137 44 50 90
136 90 168 0 12 5 26 12 33 19 19 14 202 -6 243 -9 17 -16 39 -16 47 0 41 -95
162 -164 207 -108 72 -272 102 -386 70z m364 -270 c-3 -47 -223 -493 -248
-501 -26 -8 -38 7 -136 171 -42 71 -100 168 -129 214 -50 82 -66 141 -38 141
26 0 46 -27 157 -215 62 -104 118 -196 125 -203 9 -10 32 30 109 185 54 109
104 208 112 221 21 33 49 25 48 -13z"/>
</g>
</svg>
