<svg version="1.0" xmlns="http://www.w3.org/2000/svg" width="400" height="350.667" viewBox="0 0 300 263"><path d="M165.5 8.1c-23.1.5-59.8 1.2-81.5 1.7l-39.5.9-6.8 3.3c-8 4-13.9 9.9-17.5 17.8l-2.5 5.6 1.7 94.1c1.9 100.8 1.8 98 7.2 106.7 4.5 7 14.8 13.2 25.2 14.9 3.6.5 21.9.5 49.2-.1 23.9-.5 69-1.4 100.2-2 32.1-.6 58.9-1.5 61.8-2.1 6.7-1.4 16.1-7.7 20.4-13.6 6.7-9.2 6.8-10.9 5.7-59.6-.6-23.7-1.3-64.1-1.6-89.7-.4-26.6-1.1-48.6-1.7-51.5-2.3-10.9-8.8-18.9-19.8-24.3l-5.5-2.7-26.5-.1c-14.6-.1-45.4.2-68.5.7zm3.7 67.6c12.6 4.4 23.6 13.3 30.3 24.9 3.3 5.6 4.1 6.4 6.9 6.5H228c15.4-.1 19-.4 21.8-1.9 2.9-1.5 3.5-1.5 6-.2 3.7 2.1 4.3 8.1 1 10.4-2.5 1.8-6.4 2.1-7.3.6-.4-.6-8.9-1-22.2-1h-21.5l.7 3.7c.4 2.1.9 4.1 1.1 4.5.3.5 15.1.8 32.9.8 28.3 0 32.7-.2 35.2-1.7 3.9-2.2 8.1-1.1 8.9 2.2 1.5 6.1-2.3 9.7-8.1 7.5-1.6-.6-16.1-1-36-1h-33.3l-.4 3.6-.4 3.6 24.9-.3c23-.4 24.9-.3 25.8 1.4.6 1 .7 3.1.4 4.7-.8 3.6-4.3 4.8-9 3.1-2-.7-10.7-1.1-23.6-1.1h-20.4l-3.4 7.1c-6.4 13.1-19.8 24.1-34.6 28.4-7.7 2.3-22.2 2.4-29.1.3-10.8-3.4-16.7-6.9-24.4-14.7-4.3-4.4-8.6-9.8-10-12.8l-2.5-5.2-22.9-.1c-15.3 0-24.1.4-26.2 1.2-5.2 1.9-8.4-.1-8.4-5.1 0-3.4.4-4 2.8-4.9 1.5-.5 3.6-.6 4.7-.1 1.1.4 12.2.8 24.8.8l22.7.1-.6-2.8c-.3-1.5-.7-3.3-1-4-.5-1.6-61.1-1.8-64.8-.1-5.6 2.6-10.9-2.2-8.4-7.6 1.3-3 5.3-4.3 7.9-2.6 1.3.8 11.4 1.1 33.4 1.1H96l.6-2.5c1.4-5.4 1.1-5.5-20.5-5.5-12.2 0-20.2.4-20.6 1-.3.5-1.9 1-3.4 1-6.2 0-8.2-8-2.8-11 2.5-1.4 3-1.3 5.8.2 2.6 1.6 5.9 1.8 23.5 1.8H99l3.6-7.1c6.5-13 18.5-22.8 34.4-28.1 7.3-2.4 23.8-1.9 32.2.9z"/><path d="M140 82.5c-20.9 5.9-34.9 24.1-35 45.3 0 12.5 3.6 22.2 11.7 31.2 9.1 10.1 19.2 14.9 33 15.7 7.9.5 10.3.2 16-1.7 8.3-2.8 16-7.7 21.3-13.7 4.4-5 9-13.6 9-16.8 0-1.2.5-2.6 1.2-3.3 1.9-1.9 1.4-20.2-.6-24.3-.9-1.7-1.6-3.9-1.6-4.7 0-4.1-9.5-16.2-16.4-20.7-10.8-7.2-27.2-10.2-38.6-7zm36.4 27c-.3 4.7-22.3 49.3-24.8 50.1-2.6.8-3.8-.7-13.6-17.1-4.2-7.1-10-16.8-12.9-21.4-5-8.2-6.6-14.1-3.8-14.1 2.6 0 4.6 2.7 15.7 21.5 6.2 10.4 11.8 19.6 12.5 20.3.9 1 3.2-3 10.9-18.5 5.4-10.9 10.4-20.8 11.2-22.1 2.1-3.3 4.9-2.5 4.8 1.3z"/></svg>