<svg width="20" height="20" viewBox="0 0 20 20" fill="none"
  xmlns="http://www.w3.org/2000/svg">
  <path fill-rule="evenodd" clip-rule="evenodd"
    d="M10 3.33333C6.3181 3.33333 3.33333 6.3181 3.33333 10C3.33333 11.7493 4.00672 13.3416 5.11 14.5315C5.15165 14.3936 5.20705 14.2583 5.27932 14.1291C5.52431 13.691 5.83337 13.286 6.20008 12.9278C6.56809 12.5684 6.98329 12.2667 7.43112 12.0284C6.74906 11.3755 6.32264 10.463 6.32264 9.44444C6.32264 7.43167 7.98767 5.83333 10 5.83333C12.0123 5.83333 13.6774 7.43167 13.6774 9.44444C13.6774 10.463 13.2509 11.3755 12.5689 12.0284C13.0167 12.2667 13.4319 12.5684 13.7999 12.9278C14.1666 13.286 14.4757 13.691 14.7207 14.1291C14.793 14.2583 14.8484 14.3936 14.89 14.5315C15.9933 13.3416 16.6667 11.7493 16.6667 10C16.6667 6.3181 13.6819 3.33333 10 3.33333ZM13.2843 15.8031C13.3166 15.6366 13.3328 15.4804 13.3333 15.3419C13.3341 15.1132 13.2922 14.9894 13.2661 14.9426C13.099 14.6438 12.8875 14.3664 12.6354 14.1201C11.9397 13.4407 10.9921 13.0556 10 13.0556C9.00791 13.0556 8.06028 13.4407 7.36462 14.1201C7.1125 14.3664 6.90105 14.6438 6.73392 14.9426C6.70778 14.9894 6.66588 15.1132 6.66668 15.3419C6.66716 15.4804 6.68338 15.6366 6.71573 15.8031C7.68459 16.3527 8.80458 16.6667 10 16.6667C11.1954 16.6667 12.3154 16.3527 13.2843 15.8031ZM10 11.3889C11.1291 11.3889 12.0107 10.4999 12.0107 9.44444C12.0107 8.38896 11.1291 7.5 10 7.5C8.8709 7.5 7.9893 8.38896 7.9893 9.44444C7.9893 10.4999 8.8709 11.3889 10 11.3889ZM1.66667 10C1.66667 5.39762 5.39763 1.66666 10 1.66666C14.6024 1.66666 18.3333 5.39762 18.3333 10C18.3333 12.9644 16.7849 15.5665 14.4567 17.0426C13.1673 17.8601 11.6376 18.3333 10 18.3333C8.36238 18.3333 6.83274 17.8601 5.54335 17.0426C3.21511 15.5665 1.66667 12.9644 1.66667 10Z"
    fill="#42b983" />
</svg>