<svg width="16" height="16" viewBox="0 0 16 16" fill="none" xmlns="http://www.w3.org/2000/svg">
  <path fill-rule="evenodd" clip-rule="evenodd"
    d="M8 2.66667C6.52724 2.66667 5.33333 3.86058 5.33333 5.33334C5.33333 6.80609 6.52724 8 8 8C9.47276 8 10.6667 6.8061 10.6667 5.33334C10.6667 3.86058 9.47276 2.66667 8 2.66667ZM10.4273 8.51292C11.3833 7.78199 12 6.62968 12 5.33334C12 3.1242 10.2091 1.33334 8 1.33334C5.79086 1.33334 4 3.1242 4 5.33334C4 6.62968 4.61668 7.78199 5.57267 8.51292C4.90236 8.80944 4.28567 9.22905 3.75736 9.75736C3.34941 10.1653 3.00623 10.626 2.73452 11.1234C2.2331 12.0413 2.43759 12.9772 3.00226 13.6389C3.54587 14.276 4.41668 14.6667 5.33333 14.6667H10.6667C11.5833 14.6667 12.4541 14.276 12.9977 13.6389C13.5624 12.9772 13.7669 12.0413 13.2655 11.1234C12.9938 10.626 12.6506 10.1653 12.2426 9.75736C11.7143 9.22905 11.0976 8.80944 10.4273 8.51292ZM8 9.33334C6.76232 9.33334 5.57534 9.825 4.70017 10.7002C4.38283 11.0175 4.11596 11.3758 3.90464 11.7626C3.7 12.1372 3.76601 12.4799 4.01654 12.7735C4.28814 13.0918 4.77723 13.3333 5.33333 13.3333H10.6667C11.2228 13.3333 11.7119 13.0918 11.9835 12.7735C12.234 12.4799 12.3 12.1372 12.0954 11.7626C11.884 11.3758 11.6172 11.0175 11.2998 10.7002C10.4247 9.825 9.23768 9.33334 8 9.33334Z"
    fill="#42b883" />
</svg>
  
  