<svg xmlns="http://www.w3.org/2000/svg" width="16.845" height="11.486" viewBox="0 0 16.845 11.486"><g transform="translate(0 -74.667)"><g transform="translate(0 74.667)"><g transform="translate(0 0)"><path d="M172.964,170.667a2.3,2.3,0,1,0,2.3,2.3A2.3,2.3,0,0,0,172.964,170.667Z" transform="translate(-164.541 -167.221)"/><path d="M8.423,74.667A9.056,9.056,0,0,0,0,80.41a9.048,9.048,0,0,0,16.845,0A9.052,9.052,0,0,0,8.423,74.667Zm0,9.571a3.829,3.829,0,1,1,3.829-3.828A3.83,3.83,0,0,1,8.423,84.238Z" transform="translate(0 -74.667)"/></g></g></g></svg>