<svg xmlns="http://www.w3.org/2000/svg" xmlns:xlink="http://www.w3.org/1999/xlink" viewBox="0,0,256,256" width="50px" height="50px"><g fill="#808080" fill-rule="nonzero" stroke="none" stroke-width="1" stroke-linecap="butt" stroke-linejoin="miter" stroke-miterlimit="10" stroke-dasharray="" stroke-dashoffset="0" font-family="none" font-weight="none" font-size="none" text-anchor="none" style="mix-blend-mode: normal"><g transform="scale(5.12,5.12)"><path d="M44.89844,14.5c-0.39844,-2.19922 -2.29687,-3.80078 -4.5,-4.30078c-3.29687,-0.69922 -9.39844,-1.19922 -16,-1.19922c-6.59766,0 -12.79687,0.5 -16.09766,1.19922c-2.19922,0.5 -4.10156,2 -4.5,4.30078c-0.40234,2.5 -0.80078,6 -0.80078,10.5c0,4.5 0.39844,8 0.89844,10.5c0.40234,2.19922 2.30078,3.80078 4.5,4.30078c3.5,0.69922 9.5,1.19922 16.10156,1.19922c6.60156,0 12.60156,-0.5 16.10156,-1.19922c2.19922,-0.5 4.09766,-2 4.5,-4.30078c0.39844,-2.5 0.89844,-6.10156 1,-10.5c-0.20312,-4.5 -0.70312,-8 -1.20312,-10.5zM19,32v-14l12.19922,7z"></path></g></g></svg>