<svg xmlns="http://www.w3.org/2000/svg" width="221.597" height="63.642" viewBox="0 0 221.597 63.642">
  <defs>
    <style>
      .cls-1, .cls-2 {
        fill: #fff;
      }

      .cls-1, .cls-3 {
        stroke: rgba(0,0,0,0);
        stroke-miterlimit: 10;
      }

      .cls-3, .cls-4 {
        fill: #fcfcfc;
      }

      .cls-5 {
        fill: #fdfdfd;
      }
    </style>
  </defs>
  <g id="Group_953" data-name="Group 953" transform="translate(-0.499 2.495)">
    <g id="Group_952" data-name="Group 952" transform="translate(1 -1.994)">
      <path id="Subtraction_3" data-name="Subtraction 3" class="cls-1" d="M33.191,62.642H29.627a1.3,1.3,0,0,1-.1-.944l0-.023c.011-.074.022-.15.028-.225l-.008-.179c-.977-.073-1.989-.11-3.009-.11-.966,0-1.986.034-3.03.1l-.149.178a1.258,1.258,0,0,1-.53.51,1.47,1.47,0,0,1-.934.3,4.716,4.716,0,0,1-.778-.089l-.178-.03-.352-.167a2.143,2.143,0,0,1-.509-.487,2.243,2.243,0,0,1-.347-1.7,2.554,2.554,0,0,1,1.048-1.644c.181,0,.367-.019.546-.037l.033,0a5.742,5.742,0,0,1,.6-.041,1.571,1.571,0,0,1,1.05.336c.089.149.177.275.353.3,1.043.072,2.086.109,3.1.109s2.058-.038,3.069-.112l.033-.179a2.083,2.083,0,0,1,0-1.021.166.166,0,0,0,0-.131.139.139,0,0,0-.089-.065,8.244,8.244,0,0,0-1.289-.084c-.2,0-.4,0-.59.008l-.082,0h-.016c-.206,0-.45.01-.7.01a8.743,8.743,0,0,1-1.179-.067,1.243,1.243,0,0,1-.823-.389c-.187-.081-.365-.179-.547-.28-.11-.06-.237-.13-.363-.193a11.568,11.568,0,0,1-2.026-1.076l-.016-.01a15.353,15.353,0,0,0-1.478-.84c-.744-.073-1.515-.108-2.356-.108-.754,0-1.566.029-2.482.09a2.712,2.712,0,0,1-1.874.844c-.051,0-.105,0-.167,0a1.675,1.675,0,0,1-1.667-.947,1.978,1.978,0,0,1,.132-2.343,2.451,2.451,0,0,1,.7-.64l-.01.007a2.208,2.208,0,0,1,1.058-.3,2.141,2.141,0,0,1,1.341.535l.3.286a18.456,18.456,0,0,0,1.859.077c.266,0,.537,0,.8-.006l.136,0c.267,0,.6-.007.914-.007.348,0,.647,0,.913.014h.019a1.494,1.494,0,0,0,.2-.017l.016,0a1.493,1.493,0,0,1,.182-.015.408.408,0,0,1,.367.185c1.513.928,3.14,1.813,4.975,2.706a9.085,9.085,0,0,0,1.319.08c.206,0,.417,0,.621-.008l.088,0H27.8l.1,0c.187,0,.381-.006.572-.006.211,0,.4,0,.59.013H29.1c.368,0,.4-.225.406-.543,0-.177,0-.356-.006-.53v-.037a5.285,5.285,0,0,1,.057-1.22l-.033-.178a9.515,9.515,0,0,0-1.487-.11,14.491,14.491,0,0,0-1.6.1.465.465,0,0,0-.328.273,2.107,2.107,0,0,1-1.341.56,2.707,2.707,0,0,1-1.582-.654,1.907,1.907,0,0,1-.779-1.43,2.93,2.93,0,0,1,1.305-2.04,2.613,2.613,0,0,1,1.072-.272,1.593,1.593,0,0,1,.986.341,2.108,2.108,0,0,0,1.9.895c.241,0,.49-.018.73-.036h.024c.238-.018.485-.036.725-.036h.089a2.051,2.051,0,0,0,.253-1.648c-.022-.173-.042-.328-.051-.482s-.1-.234-.305-.234a2.013,2.013,0,0,0-.223.017h-.006a1.79,1.79,0,0,1-.206.017c-1.708-.006-3.383-.007-4.652-.007H16.34c-1.376,0-2.558,0-3.833,0a1.72,1.72,0,0,1-1.068-.237,1.94,1.94,0,0,1-.932-.85,3.413,3.413,0,0,0-.444-.552c-.186-.253-.36-.469-.53-.661l-.344-.377a.575.575,0,0,0-.54-.275c-.078,0-.161.007-.227.013H8.408c-.074.006-.143.012-.212.012a.619.619,0,0,1-.4-.115l-.342-.153A2.237,2.237,0,0,1,6.623,41.6a2.6,2.6,0,0,1,2.014-1.215,1.9,1.9,0,0,1,.941.257,1.926,1.926,0,0,1,1.027,1.853,2.6,2.6,0,0,0,.806,1.812,2.712,2.712,0,0,0,1.879.863h6.731c2.555,0,5.58,0,8.645.018h.024A1.013,1.013,0,0,0,29.437,45a.912.912,0,0,0,.169-.688l0-.118c-.045-1.731-.046-1.764-1.774-1.764H26.223q-2.452,0-4.905,0c-1.394,0-2.636,0-3.8,0h-.012a1.247,1.247,0,0,0-1.059.4,1.711,1.711,0,0,1-1.337.6,2.816,2.816,0,0,1-.9-.163,2.061,2.061,0,0,1-1.364-1.851,2.084,2.084,0,0,1,1.147-1.9,1.961,1.961,0,0,1,1.075-.379,1.148,1.148,0,0,1,.837.351,2.69,2.69,0,0,0,2.118.7l.26,0,.255,0,1.92,0h.058l2.824,0c2.225,0,3.914.006,5.478.018h.026a.807.807,0,0,0,.6-.158.817.817,0,0,0,.157-.6v-.076c-.012-1.832-.012-1.867-1.8-1.867h-.112l-4.834,0H20.969l-3.756,0c-3.235,0-5.918,0-8.444-.011H8.76a1.74,1.74,0,0,0-1.432.595c-.35.393-.752.772-1.107,1.107l-.116.109a2.048,2.048,0,0,0-.773,1.364,2.074,2.074,0,0,1-1.687,1.591,3.205,3.205,0,0,1-.365.022,1.935,1.935,0,0,1-1.873-1.2,4.768,4.768,0,0,1-.005-1.9,1.783,1.783,0,0,1,1.756-1.154H3.3a1.839,1.839,0,0,0,1.489-.7c.176-.2.37-.391.559-.573l.03-.029c.166-.162.338-.33.494-.506a2.907,2.907,0,0,1,2.341-.967h.014c3.271.008,6.471.013,9.782.013,3.41,0,6.894,0,10.651-.012h.007a1.337,1.337,0,0,1,.209.022l.02,0a1.547,1.547,0,0,0,.245.026.421.421,0,0,0,.419-.274,7.279,7.279,0,0,1-.054-1.61c0-.1.008-.188.011-.28a.739.739,0,0,0-.146-.554.585.585,0,0,0-.44-.145c-.038,0-.078,0-.122.005s-.108.006-.18.006l-.112,0h-.057l-.169,0H18.924q-7.024,0-14.047,0c-.074,0-.148,0-.222,0H4.649c-.076,0-.152,0-.227,0a1.706,1.706,0,0,0-.817.161,2.669,2.669,0,0,1-1.658.717,2.008,2.008,0,0,1-1.1-.355A4.065,4.065,0,0,1,.2,32.3,3.454,3.454,0,0,1,.2,30a3.761,3.761,0,0,1,.652-.664A2.462,2.462,0,0,1,2,29.019a2.475,2.475,0,0,1,1.858,1.007.872.872,0,0,0,.6.175l.109,0h1.2l2.18,0c1.4,0,2.522,0,3.538-.006h.01a1.422,1.422,0,0,1,.147.011l.02,0a1.717,1.717,0,0,0,.184.014.3.3,0,0,0,.324-.207c.067-.206-.094-.338-.25-.465a1.483,1.483,0,0,1-.158-.14c-.187-.2-.385-.4-.6-.611l-.006-.006a9.2,9.2,0,0,1-.933-1l0,0a17.25,17.25,0,0,1-1.894-1.872l-.211-.2a3.463,3.463,0,0,0-.724-.092A1.887,1.887,0,0,1,6.076,25.2a2.666,2.666,0,0,1-.346-3.143,1.692,1.692,0,0,1,1.379-.614,6.03,6.03,0,0,1,.88.089c.163.025.336.05.5.068l-.021-.01a1.62,1.62,0,0,1,.716.678,3.246,3.246,0,0,1,.354,1.7v.023a4.885,4.885,0,0,0,.773.866l.008.008a4.806,4.806,0,0,1,.766.861,5.214,5.214,0,0,0,1.2,1.2A4.158,4.158,0,0,1,13.5,28.152a13.639,13.639,0,0,0,1.868,1.89,1.631,1.631,0,0,0,.822.158h5.057q3.652,0,7.3,0a1.055,1.055,0,0,0,.917-.531,1.1,1.1,0,0,0,.007-1.11.352.352,0,0,0-.34-.171h-.023c-.282.006-.549.009-.815.009-.451,0-.925-.007-1.305-.013h-.026l-.132,0c-.372,0-.755-.01-1.132-.01-.944,0-1.67.029-2.356.1l-.675.526a4.321,4.321,0,0,1-.894.1,2.819,2.819,0,0,1-.841-.122,2.329,2.329,0,0,1-1.243-1.738,2.468,2.468,0,0,1,.908-2.068,2.717,2.717,0,0,1,1.17-.272,2.988,2.988,0,0,1,1.059.205l.178.094a1.429,1.429,0,0,1,.527.517c.006.112.059.169.16.176.991.07,1.977.106,2.93.106.981,0,1.956-.037,2.9-.111l.032-.18a.985.985,0,0,1-.053-.249c-.056-1.558-.056-1.558-1.588-1.558q-.549,0-1.1,0H26.81q-.547,0-1.1,0c-.618,0-1.122.005-1.586.017l-.118,0a2.527,2.527,0,0,1-1.509-.423l-.646-.531-.646-.531-.021-.017-.253-.208-.006-.005c-1.156-.95-2.351-1.931-3.523-2.9l-.055-.046a1.785,1.785,0,0,0-.734-.433,10.805,10.805,0,0,1-1.576.1c-.338,0-.693-.009-.978-.016-.268-.007-.569-.014-.865-.016h-.273c-.447,0-.88.007-1.339.014h-.026c-.408.006-.916.014-1.4.014-.926,0-1.674-.03-2.354-.094A.648.648,0,0,0,7.7,18.8a.717.717,0,0,0-.549.354l0,0a.938.938,0,0,1-.374.321,2.707,2.707,0,0,1-.811.113,7.521,7.521,0,0,1-.9-.072l-.014,0A2.328,2.328,0,0,1,3.81,18.284a.816.816,0,0,0-.1-.3.491.491,0,0,1-.028-.565A1.418,1.418,0,0,1,4,16.371c.054-.06.106-.125.156-.187l.011-.014a1.581,1.581,0,0,1,.773-.62l.273-.207a3.2,3.2,0,0,1,.691-.087,1.535,1.535,0,0,1,1.191.509l.638.644a14.644,14.644,0,0,0,1.724.086c.35,0,.719-.007,1.015-.013h.084c.27,0,.605-.011.922-.011l.3,0c.558.007,1.152.01,1.871.01h1.791c.535,0,.987,0,1.421.005a1.51,1.51,0,0,0,.208-.019l.013,0a1.5,1.5,0,0,1,.194-.017.415.415,0,0,1,.373.187,23.049,23.049,0,0,1,2.718,2.107l.015.013.013.011c.453.39.921.792,1.4,1.168.455.359.916.717,1.266.988l.622.484c.636.06,1.313.087,2.193.087.414,0,.85-.006,1.2-.011.414-.005.787-.01,1.164-.01.3,0,.585,0,.867.01h.022a.389.389,0,0,0,.291-.1.429.429,0,0,0,.094-.322c0-.043,0-.047,0-.048l0,0,0-.043c.087-1.039.131-1.561-.106-1.822s-.748-.265-1.767-.275h-.149c-.214,0-.422.007-.635.015l-.048,0c-.2.007-.4.014-.6.014a4.948,4.948,0,0,1-1.106-.105,5.531,5.531,0,0,1-2.139-1.3l-.006,0a10.961,10.961,0,0,0-.987-.769,1.343,1.343,0,0,0-.559-.1c-.093,0-.186.005-.276.01l-.028,0-.031,0c-.09,0-.183.01-.273.01a1.376,1.376,0,0,1-.541-.092,2.334,2.334,0,0,1-.692-3.139,2.3,2.3,0,0,1,.7-.653l-.01.007a1.759,1.759,0,0,1,.987-.311,2.254,2.254,0,0,1,.9.206,1.792,1.792,0,0,1,.777.658c.079.1.163.205.252.3a.879.879,0,0,1,.274.733.908.908,0,0,0,.249.715,9.131,9.131,0,0,0,1.69,1.327c.8.061,1.5.09,2.146.09a17.286,17.286,0,0,0,2.012-.109l.018-.179a14.157,14.157,0,0,1,0-2.748l-.026-.179a2.441,2.441,0,0,0-.733-.106,4.025,4.025,0,0,0-.808.093l-.826.71a1.573,1.573,0,0,1-.877.274,1.891,1.891,0,0,1-.669-.132,2.883,2.883,0,0,1-1.217-.99l-.175-.366a3,3,0,0,1,.008-1.556l.167-.354a2.171,2.171,0,0,1,.7-.672,2.036,2.036,0,0,1,1.067-.3,2.893,2.893,0,0,1,.987.192c.111.078.219.164.324.247l.036.029a2.121,2.121,0,0,0,1.3.622,1.46,1.46,0,0,0,.381-.053.8.8,0,0,1,.113-.02c.124-.016.24-.032.255-.216A5.275,5.275,0,0,1,29.5,9.467V9.431c.005-.174.01-.354.006-.531-.006-.318-.039-.543-.4-.543h-.047c-.2.008-.41.013-.635.013-.272,0-.543-.005-.8-.011h-.016c-.23,0-.5-.01-.776-.01a10.2,10.2,0,0,0-1.441.084c-2.146.986-3.892,1.873-5.494,2.792-.656.061-1.366.09-2.236.09-.516,0-1.06-.01-1.5-.018s-.828-.014-1.221-.017H14.8a3.368,3.368,0,0,0-2.319.624,3.728,3.728,0,0,1-1.051.177,2.069,2.069,0,0,1-.861-.179,3.528,3.528,0,0,1-.859-.851L9.55,10.7a2.257,2.257,0,0,1,.317-2.075,2.131,2.131,0,0,1,1.552-.807,3.06,3.06,0,0,1,1.832.822,1.435,1.435,0,0,1,.147.093.643.643,0,0,0,.373.153h.011c.29-.007.595-.011.933-.011.431,0,.857.005,1.253.011h.026c.365,0,.819.011,1.248.011.943,0,1.665-.028,2.344-.091l4.819-2.451a3.173,3.173,0,0,1,1.7-.416c.086,0,.184,0,.291.007.164.008.342.012.561.012.15,0,.3,0,.45,0s.305,0,.456,0c.935,0,1.4,0,1.606-.238s.121-.753-.052-1.762c-.476,0-.961-.007-1.43-.01h-.046c-1.1-.007-2.235-.014-3.352-.038h-.022a1.2,1.2,0,0,0-.895.507,1.83,1.83,0,0,1-.475.405,3.149,3.149,0,0,1-.8.116,1.78,1.78,0,0,1-.931-.247A2.208,2.208,0,0,1,20.332,2.8,2.565,2.565,0,0,1,21.639.665c.12-.01.242-.025.356-.039A4.966,4.966,0,0,1,22.6.575a1.437,1.437,0,0,1,.922.289,2.146,2.146,0,0,1,.68.632l.006.007.022.028.007.006c.83.079,1.7.119,2.594.119.861,0,1.767-.038,2.693-.112l.03-.178c-.007-.069-.016-.139-.025-.207A1.853,1.853,0,0,1,29.627,0l4.232.006A20.53,20.53,0,0,1,37.709.7L37.7.689l.045.01.01,0a16.234,16.234,0,0,1,2.376.673,2.387,2.387,0,0,0,.393.116,1.4,1.4,0,0,1,.636.268l3.854,1.672.073.032c.051.026.1.05.155.075l.065.031A2.145,2.145,0,0,1,46,4a32.474,32.474,0,0,1,6.643,5.171,33.188,33.188,0,0,1,5.076,6.712,2.227,2.227,0,0,1,.5.833l.04.094c.66,1.521,1.415,3.3,2.038,5.115a11.672,11.672,0,0,1,.728,2.429l-.015-.017a23.183,23.183,0,0,1,.715,5.047q0,1.933,0,3.867a24.7,24.7,0,0,1-1.04,6.263L60.7,39.5a2.238,2.238,0,0,0-.127.469l0,.013a1.514,1.514,0,0,1-.277.726L58.8,44.69c-.06.13-.117.264-.172.394l-.014.032a4.484,4.484,0,0,1-.724,1.3,52.693,52.693,0,0,1-2.915,4.42l-.16.225a2.257,2.257,0,0,1-.569.7l-.023.019a1.934,1.934,0,0,0-.611.675l-.06.086-.032.046a1.773,1.773,0,0,1-.507.553l-.972.968a3.43,3.43,0,0,1-.86.771,38.009,38.009,0,0,1-5.2,3.779l-.324.209a14.483,14.483,0,0,1-1.727.85L39.953,61.3A10.336,10.336,0,0,1,38.9,61.6l.015-.009A26.111,26.111,0,0,1,33.191,62.642Zm-.4-14.812h0c-.357,0-.49.142-.49.523,0,1.949,0,3.931,0,5.848v.031q0,2.4,0,4.81c0,.025,0,.051,0,.076,0,.167-.01.341.2.441a1.091,1.091,0,0,0,.457.072,4.748,4.748,0,0,0,2.663-.825,37.776,37.776,0,0,0,2.314-3.428,41.38,41.38,0,0,0,3.56-7.543H37.365c-1.255,0-2.909,0-4.57-.005Zm12.173-.006c-.46,0-.56.281-.675.606l0,.006a43.631,43.631,0,0,1-4.5,9.3l-.028.041a.371.371,0,0,0-.041.436A28.243,28.243,0,0,0,53.554,47.833H49.094c-1.663,0-2.934,0-4.121-.013Zm5.514-2.906h0c1.428,0,2.7.014,3.876.042h.075a1.383,1.383,0,0,0,1.417-.938,30.538,30.538,0,0,0,2.906-10.562.682.682,0,0,0-.1-.544.659.659,0,0,0-.51-.151H58.1c-.672.012-1.408.017-2.316.017l-1.431,0-1.43,0c-.465,0-.939,0-1.4.008s-.931.008-1.4.008c-.794,0-1.442-.012-2.039-.037l-.122,0c-.638,0-.842.221-.872.945a47.77,47.77,0,0,1-1.576,10.607c-.074.273-.076.429-.006.521s.247.122.495.122h.061C47.486,44.933,48.992,44.918,50.479,44.918ZM32.963,32.766a.552.552,0,0,0-.669.688c.02,1.295.016,2.612.013,3.886q0,.732,0,1.46t0,1.479c0,1.24.01,2.521-.017,3.78a.948.948,0,0,0,.166.713.854.854,0,0,0,.638.179h.039c1.281-.018,2.615-.027,4.079-.027,1.374,0,2.85.008,4.644.024h.023a.638.638,0,0,0,.747-.57,51.049,51.049,0,0,0,1.665-10.873.772.772,0,0,0-.128-.591.733.733,0,0,0-.549-.151H43.6c-1.688.012-3.458.018-5.259.018-1.707,0-3.511-.005-5.363-.016Zm5.462-2.945c1.761,0,3.4.01,5.009.03h.039a.889.889,0,0,0,.667-.183,1.015,1.015,0,0,0,.149-.749,52.9,52.9,0,0,0-1.662-10.693c-.126-.486-.316-.642-.784-.642H41.82c-1.48.013-2.973.019-4.439.019s-2.934-.006-4.363-.019H33a.756.756,0,0,0-.56.153.772.772,0,0,0-.145.576c.024,1.254.02,2.528.016,3.761v.1q0,.74,0,1.481c0,.413,0,.833,0,1.24V24.9l0,.275c.007,1.25.015,2.542-.024,3.821a.682.682,0,0,0,.846.849h.033C35.065,29.83,36.785,29.822,38.425,29.822Zm7.422-12.229c-.208,0-.319.03-.373.1s-.055.193,0,.4a51.193,51.193,0,0,1,1.651,11.131c.021.477.16.615.622.615h.034c.663-.009,1.389-.013,2.285-.013l1.406,0h.013l1.394,0h4.233c.834,0,1.252,0,1.443-.212s.149-.617.068-1.39A28,28,0,0,0,55.6,18.139c-.169-.323-.322-.552-.755-.552h-.007c-1.375.009-2.844.014-4.492.014-1.586,0-3.161,0-4.492-.008Zm-8.888-2.82c1.3,0,2.6.006,3.853.018h.045c.29,0,.433-.037.494-.127s.045-.249-.066-.535a48.488,48.488,0,0,0-4.73-9.089,3.7,3.7,0,0,0-3.348-2.034h-.116c-.71.017-.8.173-.791.785.02,1.209.016,2.438.012,3.627q0,.732,0,1.464c0,.486,0,.98,0,1.457,0,1.222.01,2.483-.017,3.722a.587.587,0,0,0,.718.728h.024C34.366,14.778,35.687,14.772,36.959,14.772Zm2.6-10.445c.035.1.059.166.078.223a.789.789,0,0,0,.073.18,43.7,43.7,0,0,1,4.568,9.442.825.825,0,0,0,.936.616h.025c.89-.007,1.828-.01,3.042-.01H53.55A28.529,28.529,0,0,0,39.555,4.327Z" transform="translate(0 0)"/>
    </g>
    <path id="Path_558" data-name="Path 558" class="cls-2" d="M498.719,911.841a3.261,3.261,0,0,0,2.373-2.726c.044-.146.124-.284.284-.284a28.056,28.056,0,0,1,4.364.082,7.2,7.2,0,0,1-2.025,4.34,7.58,7.58,0,0,1-4.786,1.978,9.739,9.739,0,0,1-4.839-.628,7.254,7.254,0,0,1-4.328-5.294,11.4,11.4,0,0,1,.485-7.075,7.219,7.219,0,0,1,5.2-4.412,9.634,9.634,0,0,1,7.45.949,5.936,5.936,0,0,1,2.846,4.917,19.4,19.4,0,0,1-4.486,0c-.367-1.29-.933-2.408-2.393-2.749a4.02,4.02,0,0,0-1.775.006,3.882,3.882,0,0,0-2.768,3.924c-.174.4.016.844-.124,1.252v.188c.146.467-.054.964.124,1.428a4.421,4.421,0,0,0,1.894,3.812,1.2,1.2,0,0,0,.875.28A3.656,3.656,0,0,0,498.719,911.841Z" transform="translate(-420.216 -877.352)"/>
    <path id="Path_559" data-name="Path 559" class="cls-2" d="M671.242,911.641c1.3-4.376,2.547-8.531,3.768-12.694a.868.868,0,0,1,1.011-.755c1.322.051,2.647.016,4.064.016-.716,2.018-1.4,3.973-2.1,5.92-1.262,3.478-2.55,6.948-3.8,10.432-.191.534-.406.779-1.022.754-1.381-.056-2.766-.029-4.148-.011a.705.705,0,0,1-.814-.545c-.89-2.479-1.846-4.935-2.745-7.411-.844-2.323-1.617-4.671-2.543-6.964a11.525,11.525,0,0,0-.83-2.173c1.653,0,3.191,0,4.73,0,.457,0,.422.4.5.673q1.832,6.04,3.648,12.086C671.011,911.127,671.09,911.277,671.242,911.641Z" transform="translate(-509.886 -877.72)"/>
    <path id="Subtraction_5" data-name="Subtraction 5" class="cls-3" d="M6.675,14.044a7.219,7.219,0,0,1-4.714-1.753A5.15,5.15,0,0,1,.405,9.7,8.472,8.472,0,0,1,.446,4.389,6.309,6.309,0,0,1,6.372.03c.248-.02.5-.03.737-.03a6.557,6.557,0,0,1,4.878,1.933,7.444,7.444,0,0,1,1.871,5.558c-.025.584-.3.627-.726.627H13.1c-.506,0-1.044-.005-1.693-.005l-1.369,0H8.752c-.987,0-2.155,0-3.333-.023h-.1c-.325,0-.564.03-.675.177s-.094.36.02.757a2.338,2.338,0,0,0,2.186,1.927,2.918,2.918,0,0,0,1.59-.536,1.412,1.412,0,0,0,.489-.671,1.83,1.83,0,0,1,.274-.475c.464-.029.973-.043,1.6-.043.287,0,.561,0,.891.006.272,0,.588.006.9.006l.434,0,.082,0,.1,0a.37.37,0,0,1,.3.092.385.385,0,0,1,.021.332,5.88,5.88,0,0,1-3.276,3.654A10.057,10.057,0,0,1,6.675,14.044ZM7.882,5.712c.243,0,.443.008.627.026.057.005.108.008.155.008a.429.429,0,0,0,.363-.123c.09-.121.057-.322-.021-.586A2.033,2.033,0,0,0,6.943,3.408c-.049,0-.1,0-.148,0A2.23,2.23,0,0,0,4.759,5.3a.4.4,0,0,0,.031.337c.061.074.173.088.335.088h.037l.687,0H6.88c.169,0,.341,0,.508-.007H7.41C7.565,5.716,7.725,5.712,7.882,5.712Z" transform="translate(207.727 23.674)"/>
    <path id="Subtraction_4" data-name="Subtraction 4" class="cls-3" d="M6.676,14.044A7.224,7.224,0,0,1,1.961,12.29,5.142,5.142,0,0,1,.406,9.7a8.478,8.478,0,0,1,.04-5.312A6.311,6.311,0,0,1,6.373.03c.248-.02.5-.03.737-.03a6.556,6.556,0,0,1,4.877,1.932,7.447,7.447,0,0,1,1.872,5.559c-.025.583-.3.627-.717.627H13.1c-.5,0-1.045,0-1.723,0H10.07l-1.424,0c-.884,0-2.05,0-3.227-.022h-.1c-.325,0-.564.03-.675.177s-.094.36.02.757a2.338,2.338,0,0,0,2.186,1.927,2.92,2.92,0,0,0,1.59-.535,1.413,1.413,0,0,0,.488-.671,1.829,1.829,0,0,1,.274-.476c.47-.03.965-.043,1.6-.043.286,0,.561,0,.892.006.272,0,.588.006.9.006l.434,0,.078,0,.108,0a.367.367,0,0,1,.3.092.384.384,0,0,1,.02.331,5.879,5.879,0,0,1-3.276,3.655A10.052,10.052,0,0,1,6.676,14.044ZM7.912,5.717c.262,0,.476.006.676.02.033,0,.067,0,.1,0a.408.408,0,0,0,.336-.109c.081-.1.059-.275,0-.5A2.052,2.052,0,0,0,6.944,3.407H6.891A2.235,2.235,0,0,0,4.764,5.295a.413.413,0,0,0,.029.344c.061.075.174.09.325.09h.037c.2,0,.421,0,.681,0H6.872c.173,0,.35,0,.52-.005S7.74,5.717,7.912,5.717Z" transform="translate(169.174 23.674)"/>
    <path id="Path_562" data-name="Path 562" class="cls-2" d="M598.509,914.612c.049,1.447.665,2.077,2.026,2.072a2.427,2.427,0,0,0,2.174-2.295,67.066,67.066,0,0,0,.112-7.382c0-.8.241-.963.968-.919,1,.061,2.014.032,3.022.008.417-.009.539.137.538.545q-.018,6.122,0,12.245c0,.443-.185.521-.567.515-1.094-.017-2.189-.036-3.281.007-.552.022-.712-.169-.661-.686.038-.387.007-.781.007-1.169-.421-.046-.442.261-.521.427a3.2,3.2,0,0,1-3.083,1.746,5.435,5.435,0,0,1-3.944-.94,3.561,3.561,0,0,1-1.375-2.719c-.056-3.046-.025-6.093-.084-9.139-.014-.706.212-.872.868-.837.976.052,1.959.045,2.935,0,.565-.025.729.15.723.717-.024,2.068.006,4.138.016,6.206C598.538,913.538,598.322,914.091,598.509,914.612Z" transform="translate(-474.444 -882.103)"/>
    <path id="Path_563" data-name="Path 563" class="cls-4" d="M757.678,909.516c-.512-1.281-1.453-1.63-2.247-.835a1.1,1.1,0,0,0-.02.9c.241.709.932.764,1.487,1,1.1.462,2.323.561,3.4,1.133a3.758,3.758,0,0,1,2.207,3.822,4.056,4.056,0,0,1-2.788,3.343,9.419,9.419,0,0,1-5.372.283c-2.693-.612-3.571-1.554-4.2-4.267,1.358,0,2.7.011,4.045-.007.361,0,.465.173.6.469a1.6,1.6,0,0,0,1.313,1.091,1.539,1.539,0,0,0,1.076,0c.455-.176.764-.406.7-1-.061-.559-.439-.763-.842-.95a15.954,15.954,0,0,0-2.71-.863,5.212,5.212,0,0,1-2.943-1.7c-1.21-1.536-.689-4.87,1.358-5.716,2.547-1.053,5.017-1.264,7.462.208a4.691,4.691,0,0,1,1.964,3.1A20.805,20.805,0,0,1,757.678,909.516Z" transform="translate(-555.624 -881.719)"/>
    <path id="Path_564" data-name="Path 564" class="cls-4" d="M562.807,911.3c.433-4.3,4.2-6.385,8.23-5.748a5.658,5.658,0,0,1,5.115,5.227c-1.336.179-2.677.026-4.015.079-.372.014-.381-.267-.46-.5-.227-.549-.292-1.166-.909-1.514-1.642-.926-3.149.016-3.269,2.074-.192.393.016.83-.131,1.228l0,.188c.155.459-.062.953.131,1.41a2.569,2.569,0,0,0,1.494,2.533c1.145.353,2.254-.4,2.685-1.815.084-.344.359-.318.62-.319,1.124,0,2.248,0,3.371,0,.271,0,.636-.077.508.421a5.951,5.951,0,0,1-2.68,3.819,8.376,8.376,0,0,1-5.862.835,5.7,5.7,0,0,1-4.252-3.329,6.245,6.245,0,0,1-.569-2.017A12.953,12.953,0,0,1,562.807,911.3Z" transform="translate(-458.295 -881.752)"/>
    <path id="Path_565" data-name="Path 565" class="cls-2" d="M649.677,902.648c0,.744-.019,1.489.009,2.231.016.42-.147.546-.548.529-.6-.026-1.2.014-1.8-.013-.426-.02-.613.087-.6.563.035,1.658.03,3.317.039,4.975.135.354-.032.743.124,1.094.013.792.485,1.028,1.191.983,1.333.2,1.343.2,1.326,1.671a2.523,2.523,0,0,1-.1,1.249,18.3,18.3,0,0,1-4.343.135,2.8,2.8,0,0,1-2.688-2.9c-.018-2.292-.056-4.584-.022-6.874.01-.695-.137-1.005-.881-.9a8.7,8.7,0,0,1-1.2.009,12.64,12.64,0,0,1-.089-2.453c-.021-.37.231-.379.508-.4a5.454,5.454,0,0,0,1.6-.085q.024-1.631.048-3.263a20.453,20.453,0,0,1,4.489,0q.024,1.631.048,3.263C647.736,902.724,648.725,902.387,649.677,902.648Z" transform="translate(-498.455 -878.239)"/>
    <path id="Path_566" data-name="Path 566" class="cls-4" d="M739.479,909.117c-2.449-.215-3.567.421-4.168,2.333a2.9,2.9,0,0,0-.107.927c-.2.453.022.945-.131,1.4-.011,1.522-.04,3.044-.021,4.566.006.488-.138.646-.631.631-1.092-.033-2.187-.036-3.28,0-.524.018-.6-.2-.6-.656q.021-5.99,0-11.98c0-.525.131-.7.672-.679,1.063.042,2.13.046,3.193,0,.57-.025.686.2.649.7a6.672,6.672,0,0,0,.08,1.539,3.5,3.5,0,0,1,3.382-2.614c1.108-.08,1.138-.079,1.1.964A10.224,10.224,0,0,1,739.479,909.117Z" transform="translate(-545.438 -881.623)"/>
    <path id="Path_567" data-name="Path 567" class="cls-4" d="M551.361,909.117c-2.449-.215-3.567.421-4.168,2.333a2.88,2.88,0,0,0-.107.927c-.2.453.021.945-.131,1.4-.011,1.522-.04,3.044-.022,4.566.006.488-.138.646-.63.631-1.092-.033-2.187-.036-3.28,0-.524.018-.6-.2-.6-.656q.021-5.99,0-11.98c0-.525.13-.7.672-.679,1.063.042,2.13.046,3.193,0,.57-.025.686.2.649.7a6.683,6.683,0,0,0,.08,1.539,3.5,3.5,0,0,1,3.382-2.614c1.108-.08,1.138-.079,1.1.964A10.229,10.229,0,0,1,551.361,909.117Z" transform="translate(-447.738 -881.623)"/>
    <path id="Path_568" data-name="Path 568" class="cls-2" d="M632.529,912.792c0,1.983-.018,3.965.012,5.948.009.528-.135.7-.673.677-1.063-.041-2.13-.032-3.193,0-.466.012-.653-.095-.651-.61q.03-6.035,0-12.068c0-.485.133-.648.628-.632,1.093.034,2.188.036,3.28,0,.523-.017.609.2.605.656C632.519,908.769,632.529,910.781,632.529,912.792Z" transform="translate(-492.198 -882.09)"/>
    <path id="Path_569" data-name="Path 569" class="cls-2" d="M532.177,912.793c0,1.983-.018,3.965.012,5.948.008.53-.138.7-.675.676-1.063-.041-2.13-.032-3.193,0-.467.013-.652-.1-.649-.611q.03-6.034,0-12.068c0-.487.136-.647.629-.631,1.092.033,2.188.037,3.28,0,.525-.018.608.2.6.657C532.165,908.771,532.177,910.782,532.177,912.793Z" transform="translate(-440.079 -882.09)"/>
    <path id="Path_570" data-name="Path 570" class="cls-4" d="M530.276,894.865a2.206,2.206,0,0,1,.848,3.933,2.871,2.871,0,0,1-3.261-.2,2.617,2.617,0,0,1,.015-3.123,2.41,2.41,0,0,1,1.2-.6A2.582,2.582,0,0,1,530.276,894.865Z" transform="translate(-439.915 -875.043)"/>
    <path id="Path_571" data-name="Path 571" class="cls-4" d="M630.63,894.865a2.207,2.207,0,0,1,.848,3.933,2.871,2.871,0,0,1-3.261-.2,2.617,2.617,0,0,1,.015-3.123,2.409,2.409,0,0,1,1.2-.6A2.58,2.58,0,0,1,630.63,894.865Z" transform="translate(-492.034 -875.043)"/>
    <path id="Path_603" data-name="Path 603" class="cls-5" d="M649.088,899.08H644.6c.982-.426,2.011-.117,3.015-.17C648.1,898.884,648.637,898.7,649.088,899.08Z" transform="translate(-500.806 -877.19)"/>
    <path id="Path_616" data-name="Path 616" class="cls-5" d="M656.93,906.28c-.957-.169-1.947.176-2.893-.181C655,906.2,655.987,905.884,656.93,906.28Z" transform="translate(-505.708 -881.322)"/>
    <path id="Path_620" data-name="Path 620" class="cls-5" d="M562.687,917.637q0,1.287,0,2.573A4.824,4.824,0,0,1,562.687,917.637Z" transform="translate(-458.175 -888.064)"/>
    <path id="Path_670" data-name="Path 670" class="cls-5" d="M532.14,894.757l-1.2,0A1.142,1.142,0,0,1,532.14,894.757Z" transform="translate(-441.778 -874.758)"/>
    <path id="Path_673" data-name="Path 673" class="cls-5" d="M632.494,894.757l-1.2,0A1.141,1.141,0,0,1,632.494,894.757Z" transform="translate(-493.898 -874.758)"/>
  </g>
</svg>
