<svg xmlns="http://www.w3.org/2000/svg" width="106" height="106"><path fill="#fff" stroke="#000" paint-order="fill stroke markers" d="M83.5 63.5v-20l-20-30h-40v20l10 10v20l-10 10v20h40l20-30z" stroke-miterlimit="10" stroke-width="3"/><text font-family="Georgia" font-size="6" text-decoration="normal" x="30" y="85" text-anchor="middle" dominant-baseline="alphabetic">B</text><text font-family="Georgia" font-size="6" text-decoration="normal" x="30" y="25" text-anchor="middle" dominant-baseline="alphabetic">A</text><text font-family="Georgia" font-size="6" text-decoration="normal" x="43" y="25" text-anchor="middle" dominant-baseline="alphabetic">CTR</text><text font-family="Georgia" font-size="6" text-decoration="normal" x="43" y="85" text-anchor="middle" dominant-baseline="alphabetic">Carry</text><text font-family="Georgia" font-size="6" text-decoration="normal" x="73" y="55" text-anchor="middle" dominant-baseline="alphabetic">Ans</text><text fill="#006400" font-family="Georgia" font-size="12" text-decoration="normal" x="53" y="57" text-anchor="middle" dominant-baseline="alphabetic">ALU</text><path fill="green" paint-order="stroke fill markers" d="M26 23a3 3 0 110-.003zM26 83a3 3 0 110-.003zM46 13a3 3 0 110-.003zM46 93a3 3 0 110-.003zM86 53a3 3 0 110-.003z"/></svg>