<svg version="1.1" id="Layer_1" xmlns="http://www.w3.org/2000/svg" x="0" y="0" viewBox="0 0 610.8 110.4" xml:space="preserve"><style>.st0{fill:#1d1d1b;stroke:#1d1d1b;stroke-miterlimit:10}</style><path class="st0" d="M390.3 11.3c-1.8 0-3.3-1.5-3.3-3.3s1.5-3.3 3.3-3.3 3.3 1.5 3.3 3.3c0 1.8-1.5 3.3-3.3 3.3zM334 11.3c-1.8 0-3.3-1.5-3.3-3.3s1.5-3.3 3.3-3.3 3.3 1.5 3.3 3.3c0 1.8-1.5 3.3-3.3 3.3z"/><circle class="st0" cx="371.5" cy="83.1" r="3.3"/><path class="st0" d="M378.6 74.2c.5 0 1 .2 1.3.5.7.7.7 1.9 0 2.7-.7.7-1.9.7-2.7 0-.7-.7-.7-1.9 0-2.7.4-.3.9-.5 1.4-.5zm0-1.4c-1.8 0-3.3 1.4-3.3 3.2 0 1.8 1.4 3.3 3.2 3.3 1.8 0 3.3-1.4 3.3-3.2 0-.9-.3-1.7-.9-2.3-.6-.7-1.4-1-2.3-1z"/><path class="st0" d="M380.9 75.7l-2-2 10-9.9V6.6h2.8v58.3zM373 84.5h-20.8l-19.6-19.6V6.6h2.8v57.2l17.9 17.9H373zM548.6 34.7c-1.2 0-2.3-1-2.3-2.3 0-1.2 1-2.3 2.3-2.3 1.2 0 2.3 1 2.3 2.3 0 1.3-1 2.3-2.3 2.3zM510 86.2c-1.2 0-2.3-1-2.3-2.3s1-2.3 2.3-2.3c1.2 0 2.3 1 2.3 2.3 0 1.3-1 2.3-2.3 2.3zM548.6 66.9c-1.2 0-2.3-1-2.3-2.3s1-2.3 2.3-2.3 2.3 1 2.3 2.3c0 1.3-1 2.3-2.3 2.3zM545.1 56.3c1.1 0 1.9.9 1.9 1.9 0 1.1-.9 1.9-1.9 1.9-1.1 0-1.9-.9-1.9-1.9-.1-1 .8-1.9 1.9-1.9zm0-1c-1.6 0-2.9 1.3-2.9 2.9 0 1.6 1.3 2.9 2.9 2.9 1.6 0 2.9-1.3 2.9-2.9 0-1.6-1.3-2.9-2.9-2.9z"/><path class="st0" d="M549.6 84.9h-40.5v-2h38.5V63.7h2zM543.1 59.2h-20.6l-13.4-13.5V31.5h40.5v2H511V45l12.3 12.2h19.8zM456.6 85.9c-1.2 0-2.3-1-2.3-2.3 0-1.2 1-2.3 2.3-2.3 1.2 0 2.3 1 2.3 2.3 0 1.3-1 2.3-2.3 2.3zM495.2 85.9c-1.2 0-2.3-1-2.3-2.3 0-1.2 1-2.3 2.3-2.3 1.2 0 2.3 1 2.3 2.3 0 1.3-1 2.3-2.3 2.3z"/><circle transform="rotate(-22.661 456.603 32.186)" class="st0" cx="456.6" cy="32.2" r="2.3"/><path class="st0" d="M463.1 34.4c-1.2 0-2.3-1-2.3-2.3 0-1.2 1-2.3 2.3-2.3 1.2 0 2.3 1 2.3 2.3-.1 1.3-1.1 2.3-2.3 2.3zM488.8 60.2c-1.2 0-2.3-1-2.3-2.2s1-2.3 2.2-2.3 2.3 1 2.3 2.2c0 1.2-1 2.3-2.2 2.3zM466.6 56c1.1 0 1.9.9 1.9 1.9 0 1.1-.9 1.9-1.9 1.9s-1.9-.9-1.9-1.9c0-1.1.8-1.9 1.9-1.9zm0-1c-1.6 0-2.9 1.3-2.9 2.9 0 1.6 1.3 2.9 2.9 2.9s2.9-1.3 2.9-2.9c0-1.6-1.3-2.9-2.9-2.9z"/><path class="st0" d="M496.2 58.9h-8.4v-2h6.4V45.4L482 33.2h-19.9v-2h20.7l13.4 13.4zM455.7 31.2h1.9v53.4h-1.9zM494.2 84.6V71.2L482 58.9h-13.5v-2h14.2l13.5 13.5v14.2zM444.2 84.9c-1.2 0-2.3-1-2.3-2.3 0-1.2 1-2.3 2.3-2.3 1.2 0 2.3 1 2.3 2.3 0 1.3-1 2.3-2.3 2.3zM405.7 37.7c-1.2 0-2.3-1-2.3-2.3 0-1.2 1-2.3 2.3-2.3 1.2 0 2.3 1 2.3 2.3-.1 1.3-1.1 2.3-2.3 2.3zM409.9 29.9c.7 0 1.3.6 1.3 1.3s-.6 1.3-1.3 1.3c-.7 0-1.3-.6-1.3-1.3 0-.7.5-1.3 1.3-1.3zm0-.9c-1.2 0-2.3 1-2.3 2.2s1 2.3 2.2 2.3 2.3-1 2.3-2.2c0-1.3-1-2.3-2.2-2.3zM415.6 55c1.1 0 1.9.9 1.9 1.9 0 1.1-.9 1.9-1.9 1.9s-1.9-.9-1.9-1.9.9-1.9 1.9-1.9zm0-1c-1.6 0-2.9 1.3-2.9 2.9 0 1.6 1.3 2.9 2.9 2.9s2.9-1.3 2.9-2.9c0-1.6-1.3-2.9-2.9-2.9z"/><path class="st0" d="M445.2 83.6h-40.5V36.7h1.9v45h38.6z"/><path class="st0" d="M445.2 57.9h-27.6V56h25.7V44.5L431 32.2h-19.9v-1.9h20.7l13.4 13.4zM600.6 86.4c-1.2 0-2.3-1-2.3-2.3s1-2.3 2.3-2.3 2.3 1 2.3 2.3c-.1 1.3-1.1 2.3-2.3 2.3zM562 39.2c-1.2 0-2.3-1-2.3-2.3 0-1.2 1-2.3 2.3-2.3 1.2 0 2.3 1 2.3 2.3-.1 1.3-1.1 2.3-2.3 2.3zM566.2 31.5c.7 0 1.3.6 1.3 1.3s-.6 1.3-1.3 1.3-1.3-.6-1.3-1.3c0-.7.6-1.3 1.3-1.3zm0-1c-1.2 0-2.3 1-2.3 2.2s1 2.3 2.2 2.3 2.3-1 2.3-2.2c0-1.3-1-2.3-2.2-2.3zM572 56.5c1.1 0 1.9.9 1.9 1.9 0 1.1-.9 1.9-1.9 1.9-1.1 0-1.9-.9-1.9-1.9-.1-1 .8-1.9 1.9-1.9zm0-.9c-1.6 0-2.9 1.3-2.9 2.9 0 1.6 1.3 2.9 2.9 2.9 1.6 0 2.9-1.3 2.9-2.9-.1-1.6-1.4-2.9-2.9-2.9z"/><path class="st0" d="M601.5 85.1H561V38.2h2v45h38.5z"/><path class="st0" d="M601.5 59.4h-27.6v-1.9h25.7V46l-12.3-12.3h-19.8v-1.9h20.6l13.4 13.4zM245 34.1c-1.3 0-2.3-1-2.3-2.3s1-2.3 2.3-2.3 2.3 1 2.3 2.3c0 1.3-1 2.3-2.3 2.3zM206 34.1c-1.3 0-2.3-1-2.3-2.3s1-2.3 2.3-2.3 2.3 1 2.3 2.3c0 1.3-1 2.3-2.3 2.3z"/><circle class="st0" cx="232" cy="83.8" r="2.3"/><path class="st0" d="M236.9 77.6c.3 0 .7.1.9.4.5.5.5 1.3 0 1.8s-1.3.6-1.8.1-.6-1.3-.1-1.8l.1-.1c.2-.3.5-.4.9-.4zm0-1c-1.3.1-2.2 1.1-2.1 2.4.1 1.2 1 2.1 2.1 2.1 1.3.1 2.3-.9 2.4-2.1.1-1.3-.9-2.3-2.1-2.4h-.3z"/><path class="st0" d="M238.5 78.7l-1.4-1.4 6.9-6.9V30.8h2v40.4zM233 84.8h-14.4L205 71.2V30.8h2v39.6l12.4 12.4H233zM282.9 34.1c-1.3 0-2.3-1-2.3-2.3s1-2.3 2.3-2.3 2.3 1 2.3 2.3c0 1.3-1.1 2.3-2.3 2.3zM321.9 34.1c-1.3 0-2.3-1-2.3-2.3s1-2.3 2.3-2.3 2.3 1 2.3 2.3c-.1 1.3-1.1 2.3-2.3 2.3z"/><circle class="st0" cx="302.4" cy="83.8" r="2.3"/><path class="st0" d="M302.4 34.7c.7 0 1.3.6 1.3 1.3s-.6 1.3-1.3 1.3c-.7 0-1.3-.6-1.3-1.3 0-.7.6-1.3 1.3-1.3zm0-.9c-1.3 0-2.3 1-2.3 2.3s1 2.3 2.3 2.3 2.3-1 2.3-2.3c-.1-1.3-1.1-2.3-2.3-2.3zM281.9 30.8h40.9v2h-40.9z"/><path class="st0" d="M301.4 37.3h2v47.4h-2zM104.5 86.1c-1.3 0-2.3-1-2.3-2.3s1-2.3 2.3-2.3 2.3 1 2.3 2.3-1 2.3-2.3 2.3zM143.5 86.1c-1.3 0-2.3-1-2.3-2.3s1-2.3 2.3-2.3 2.3 1 2.3 2.3c0 1.3-1 2.3-2.3 2.3z"/><circle class="st0" cx="104.5" cy="31.8" r="2.3"/><path class="st0" d="M111 34.1c-1.3 0-2.3-1-2.3-2.3s1-2.3 2.3-2.3 2.3 1 2.3 2.3-1.1 2.3-2.3 2.3zM137 60.1c-1.3 0-2.3-1-2.3-2.3s1-2.3 2.3-2.3 2.3 1 2.3 2.3c-.1 1.3-1.1 2.3-2.3 2.3zM114.6 55.9c1.1 0 2 .9 2 1.9 0 1.1-.9 2-1.9 2-1.1 0-2-.9-2-1.9-.1-1.2.8-2 1.9-2zm0-1c-1.6 0-2.9 1.3-2.9 2.9 0 1.6 1.3 2.9 2.9 2.9s2.9-1.3 2.9-2.9-1.3-2.9-2.9-2.9z"/><path class="st0" d="M144.4 58.8H136v-2h6.5V45.2l-12.4-12.4H110v-2h20.9l13.5 13.6zM103.5 30.8h2v53.9h-2zM142.5 84.8V71.2l-12.4-12.4h-13.6v-2h14.4l13.5 13.6v14.4zM89.8 34.1c-1.3 0-2.3-1-2.3-2.3s1-2.3 2.3-2.3 2.3 1 2.3 2.3c0 1.3-1.1 2.3-2.3 2.3zM76.8 34.1c-1.3 0-2.3-1-2.3-2.3s1-2.3 2.3-2.3 2.3 1 2.3 2.3c0 1.3-1.1 2.3-2.3 2.3zM76.8 86.1c-1.3 0-2.3-1-2.3-2.3s1-2.3 2.3-2.3 2.3 1 2.3 2.3c0 1.3-1.1 2.3-2.3 2.3zM89.8 86.1c-1.3 0-2.3-1-2.3-2.3s1-2.3 2.3-2.3 2.3 1 2.3 2.3c0 1.3-1.1 2.3-2.3 2.3z"/><path d="M83.3 34.7c1.2 0 2.3 1 2.3 2.3 0 1.2-1 2.3-2.3 2.3-1.2 0-2.3-1-2.3-2.3s1.1-2.3 2.3-2.3h0zm0-1.6c-2.3 0-4 1.7-4 4s1.7 4 4 4 4-1.7 4-4h0c0-2.3-1.7-4-4-4z" fill="#1d1d1b" stroke="#000" stroke-width=".25" stroke-miterlimit="10"/><path d="M83.3 75.3c1.2 0 2.3 1 2.3 2.3 0 1.2-1 2.3-2.3 2.3-1.2 0-2.3-1-2.3-2.3h0c0-1.4 1.1-2.3 2.3-2.3h0zm0-1.7c-2.3 0-4 1.7-4 4s1.7 4 4 4 4-1.7 4-4h0c0-2.3-1.9-4-4-4h0z" fill="#1d1d1b" stroke="#1d1d1b" stroke-width=".25" stroke-miterlimit="10"/><path class="st0" d="M82.5 41.2h1.6v33h-1.6zM75.8 30.8h14.9v2H75.8zM75.8 82.8h14.9v2H75.8zM58.2 10.6c-1.8 0-3.3-1.5-3.3-3.3S56.4 4 58.2 4s3.3 1.5 3.3 3.3-1.5 3.3-3.3 3.3zM58.2 85.7c-1.8 0-3.3-1.5-3.3-3.3s1.5-3.3 3.3-3.3 3.3 1.5 3.3 3.3c0 1.8-1.5 3.3-3.3 3.3z"/><path class="st0" d="M59.7 83.8H.5V25.5L20.1 5.9h39.6v2.8H21.3l-18 18V81h56.4zM193.6 34.9c-1.3 0-2.3-1-2.3-2.3s1-2.3 2.3-2.3 2.3 1 2.3 2.3c0 1.3-1 2.3-2.3 2.3zM193.6 86.9c-1.3 0-2.3-1-2.3-2.3s1-2.3 2.3-2.3 2.3 1 2.3 2.3c0 1.3-1 2.3-2.3 2.3z"/><path class="st0" d="M194.6 85.6h-41V45.2l13.6-13.6h27.4v2H168L155.6 46v37.6h39zM270.4 34.1c-1.3 0-2.3-1-2.3-2.3s1-2.3 2.3-2.3 2.3 1 2.3 2.3c0 1.3-1 2.3-2.3 2.3zM257.4 34.1c-1.3 0-2.3-1-2.3-2.3s1-2.3 2.3-2.3c1.3 0 2.3 1 2.3 2.3 0 1.3-1 2.3-2.3 2.3zM257.4 86.1c-1.3 0-2.3-1-2.3-2.3s1-2.3 2.3-2.3 2.3 1 2.3 2.3c0 1.3-1 2.3-2.3 2.3zM270.4 86.1c-1.3 0-2.3-1-2.3-2.3s1-2.3 2.3-2.3 2.3 1 2.3 2.3c0 1.3-1 2.3-2.3 2.3zM263.9 34.7c.7 0 1.3.6 1.3 1.3s-.6 1.3-1.3 1.3-1.3-.6-1.3-1.3.6-1.3 1.3-1.3zm0-.9c-1.3 0-2.3 1-2.3 2.3s1 2.3 2.3 2.3 2.3-1 2.3-2.3c0-1.3-1-2.3-2.3-2.3zM263.9 78.3c.7 0 1.3.6 1.3 1.3 0 .7-.6 1.3-1.3 1.3-.7 0-1.3-.6-1.3-1.3 0-.8.6-1.3 1.3-1.3zm0-1c-1.3 0-2.3 1-2.3 2.3s1 2.3 2.3 2.3 2.3-1 2.3-2.3c0-1.3-1-2.3-2.3-2.3z"/><path class="st0" d="M262.9 37.3h2v40.9h-2zM256.4 30.8h14.9v2h-14.9zM256.4 82.8h14.9v2h-14.9z"/></svg>