<svg version="1.1" id="Layer_1" xmlns="http://www.w3.org/2000/svg" x="0" y="0" viewBox="0 0 50 50" xml:space="preserve"><style>.st1{fill:none;stroke:red;stroke-miterlimit:10}.st2{fill:red}</style><path d="M12 5c10 0 25 10 30 20-5 10-20 20-30 20 10-20 10-20 0-40z" fill="#fff" fill-opacity=".8" stroke="#000" stroke-width="3" stroke-miterlimit="10"/><path class="st1" d="M3 25.5h43.8"/><path class="st2" d="M44.9 27.2l1.7-1.7-1.7-1.7h1.4l1.7 1.7-1.7 1.7z"/><path class="st1" d="M3 36h43.8"/><path class="st2" d="M44.9 37.7l1.7-1.7-1.7-1.7h1.4L48 36l-1.7 1.7z"/><g><path class="st1" d="M3 15h43.8"/><path class="st2" d="M44.9 16.7l1.7-1.7-1.7-1.6h1.4L48 15l-1.7 1.7z"/></g></svg>