<svg xmlns="http://www.w3.org/2000/svg" width="170" height="170"><path fill="#fff" stroke="#000" paint-order="fill stroke markers" d="M5.5 35.5h160v100H5.5v-100z" stroke-miterlimit="10" stroke-width="3"/><path fill="#fafafa" stroke="#000" paint-order="fill stroke markers" d="M50.5 50.5h20v16h-20v-16zm20 0h20v16h-20v-16zm20 0h20v16h-20v-16zm20 0h20v16h-20v-16zm-60 16h20v16h-20v-16zm20 0h20v16h-20v-16zm20 0h20v16h-20v-16zm20 0h20v16h-20v-16zm-60 16h20v16h-20v-16zm20 0h20v16h-20v-16zm20 0h20v16h-20v-16zm20 0h20v16h-20v-16zm-60 16h20v16h-20v-16zm20 0h20v16h-20v-16zm20 0h20v16h-20v-16zm20 0h20v16h-20v-16z" stroke-miterlimit="10"/><text font-family="Georgia" font-size="16" text-decoration="normal" x="20" y="90" text-anchor="end" dominant-baseline="alphabetic">A</text><text font-family="Georgia" font-size="16" text-decoration="normal" x="160" y="90" text-anchor="end" dominant-baseline="alphabetic">D</text><text font-family="Georgia" font-size="16" text-decoration="normal" x="90" y="132" text-anchor="end" dominant-baseline="alphabetic">En</text><text font-family="Georgia" font-size="14" text-decoration="normal" x="60" y="62" text-anchor="middle" dominant-baseline="alphabetic">00</text><text font-family="Georgia" font-size="14" text-decoration="normal" x="80" y="62" text-anchor="middle" dominant-baseline="alphabetic">00</text><text font-family="Georgia" font-size="14" text-decoration="normal" x="100" y="62" text-anchor="middle" dominant-baseline="alphabetic">00</text><text font-family="Georgia" font-size="14" text-decoration="normal" x="120" y="62" text-anchor="middle" dominant-baseline="alphabetic">00</text><text font-family="Georgia" font-size="14" text-decoration="normal" x="60" y="78" text-anchor="middle" dominant-baseline="alphabetic">00</text><text font-family="Georgia" font-size="14" text-decoration="normal" x="80" y="78" text-anchor="middle" dominant-baseline="alphabetic">00</text><text font-family="Georgia" font-size="14" text-decoration="normal" x="100" y="78" text-anchor="middle" dominant-baseline="alphabetic">00</text><text font-family="Georgia" font-size="14" text-decoration="normal" x="120" y="78" text-anchor="middle" dominant-baseline="alphabetic">00</text><text font-family="Georgia" font-size="14" text-decoration="normal" x="60" y="94" text-anchor="middle" dominant-baseline="alphabetic">00</text><text font-family="Georgia" font-size="14" text-decoration="normal" x="80" y="94" text-anchor="middle" dominant-baseline="alphabetic">00</text><text font-family="Georgia" font-size="14" text-decoration="normal" x="100" y="94" text-anchor="middle" dominant-baseline="alphabetic">00</text><text font-family="Georgia" font-size="14" text-decoration="normal" x="120" y="94" text-anchor="middle" dominant-baseline="alphabetic">00</text><text font-family="Georgia" font-size="14" text-decoration="normal" x="60" y="110" text-anchor="middle" dominant-baseline="alphabetic">00</text><text font-family="Georgia" font-size="14" text-decoration="normal" x="80" y="110" text-anchor="middle" dominant-baseline="alphabetic">00</text><text font-family="Georgia" font-size="14" text-decoration="normal" x="100" y="110" text-anchor="middle" dominant-baseline="alphabetic">00</text><text font-family="Georgia" font-size="14" text-decoration="normal" x="120" y="110" text-anchor="middle" dominant-baseline="alphabetic">00</text><text font-family="Georgia" font-size="14" text-decoration="normal" x="45" y="62" text-anchor="end" dominant-baseline="alphabetic">00</text><text font-family="Georgia" font-size="14" text-decoration="normal" x="45" y="78" text-anchor="end" dominant-baseline="alphabetic">04</text><text font-family="Georgia" font-size="14" text-decoration="normal" x="45" y="94" text-anchor="end" dominant-baseline="alphabetic">08</text><text font-family="Georgia" font-size="14" text-decoration="normal" x="45" y="110" text-anchor="end" dominant-baseline="alphabetic">0c</text><path fill="green" paint-order="stroke fill markers" d="M8 85a3 3 0 110-.003zM168 85a3 3 0 110-.003zM88 135a3 3 0 110-.003z"/></svg>