<svg version="1.1" xmlns="http://www.w3.org/2000/svg" xmlns:xlink="http://www.w3.org/1999/xlink" width="106" height="106"><defs/><g><path fill="white" stroke="black" paint-order="fill stroke markers" d=" M 83.5 63.5 L 83.5 43.5 L 63.5 13.5 L 23.5 13.5 L 23.5 33.5 L 33.5 43.5 L 33.5 63.5 L 23.5 73.5 L 23.5 93.5 L 63.5 93.5 L 83.5 63.5 Z" stroke-miterlimit="10" stroke-width="3" stroke-dasharray=""/><path fill="none" stroke="none"/><text fill="Black" stroke="none" font-family="Georgia" font-size="6px" font-style="normal" font-weight="normal" text-decoration="normal" x="30" y="85" text-anchor="middle" dominant-baseline="alphabetic">B</text><text fill="Black" stroke="none" font-family="Georgia" font-size="6px" font-style="normal" font-weight="normal" text-decoration="normal" x="30" y="25" text-anchor="middle" dominant-baseline="alphabetic">A</text><text fill="Black" stroke="none" font-family="Georgia" font-size="6px" font-style="normal" font-weight="normal" text-decoration="normal" x="43" y="25" text-anchor="middle" dominant-baseline="alphabetic">CTR</text><text fill="Black" stroke="none" font-family="Georgia" font-size="6px" font-style="normal" font-weight="normal" text-decoration="normal" x="43" y="85" text-anchor="middle" dominant-baseline="alphabetic">Carry</text><text fill="Black" stroke="none" font-family="Georgia" font-size="6px" font-style="normal" font-weight="normal" text-decoration="normal" x="73" y="55" text-anchor="middle" dominant-baseline="alphabetic">Ans</text><path fill="none" stroke="none"/><text fill="DarkGreen" stroke="none" font-family="Georgia" font-size="12px" font-style="normal" font-weight="normal" text-decoration="normal" x="53" y="57" text-anchor="middle" dominant-baseline="alphabetic">ALU</text><path fill="green" stroke="none" paint-order="stroke fill markers" d=" M 26 23 A 3 3 0 1 1 25.999998500000125 22.997000000499998 Z"/><path fill="green" stroke="none" paint-order="stroke fill markers" d=" M 26 83 A 3 3 0 1 1 25.999998500000125 82.9970000005 Z"/><path fill="green" stroke="none" paint-order="stroke fill markers" d=" M 46 13 A 3 3 0 1 1 45.999998500000125 12.997000000499998 Z"/><path fill="green" stroke="none" paint-order="stroke fill markers" d=" M 46 93 A 3 3 0 1 1 45.999998500000125 92.9970000005 Z"/><path fill="green" stroke="none" paint-order="stroke fill markers" d=" M 86 53 A 3 3 0 1 1 85.99999850000013 52.9970000005 Z"/></g></svg>