<?xml version="1.0" standalone="no"?>
<!DOCTYPE svg PUBLIC "-//W3C//DTD SVG 20010904//EN"
 "http://www.w3.org/TR/2001/REC-SVG-20010904/DTD/svg10.dtd">
<svg version="1.0" xmlns="http://www.w3.org/2000/svg"
 width="71.000000pt" height="70.000000pt" viewBox="0 0 71.000000 70.000000"
 preserveAspectRatio="xMidYMid meet">
<metadata>
Created by potrace 1.16, written by Peter Selinger 2001-2019
</metadata>
<g transform="translate(0.000000,70.000000) scale(0.100000,-0.100000)"
fill="#000000" stroke="none">
<path d="M50 627 c0 -24 -5 -48 -12 -55 -9 -9 -9 -15 0 -24 16 -16 16 -160 0
-176 -9 -9 -9 -15 0 -24 16 -16 16 -160 0 -176 -9 -9 -9 -15 0 -24 7 -7 12
-34 12 -60 l0 -48 315 0 315 0 0 315 0 315 -315 0 -315 0 0 -43z m557 -29 l43
-42 0 -201 0 -201 -43 -42 -43 -42 -200 0 -200 0 -39 40 -40 41 -3 199 -2 200
41 45 42 45 200 0 201 0 43 -42z"/>
</g>
</svg>
