<?xml version="1.0" encoding="utf-8"?>
<!-- Generator: Adobe Illustrator 22.0.1, SVG Export Plug-In . SVG Version: 6.00 Build 0)  -->
<svg version="1.1" id="Layer_1" xmlns="http://www.w3.org/2000/svg" xmlns:xlink="http://www.w3.org/1999/xlink" x="0px" y="0px"
	 viewBox="0 0 610.8 110.4" style="enable-background:new 0 0 610.8 110.4;" xml:space="preserve">
<style type="text/css">
	.st0{fill:#1D1D1B;stroke:#1D1D1B;stroke-miterlimit:10;}
	.st1{fill:#1D1D1B;stroke:#000000;stroke-width:0.25;stroke-miterlimit:10;}
	.st2{fill:#1D1D1B;stroke:#1D1D1B;stroke-width:0.25;stroke-miterlimit:10;}
</style>
<title>circuitverse2</title>
<path class="st0" d="M390.3,11.3c-1.8,0-3.3-1.5-3.3-3.3s1.5-3.3,3.3-3.3s3.3,1.5,3.3,3.3l0,0C393.6,9.8,392.1,11.3,390.3,11.3
	L390.3,11.3z"/>
<path class="st0" d="M334,11.3c-1.8,0-3.3-1.5-3.3-3.3s1.5-3.3,3.3-3.3s3.3,1.5,3.3,3.3l0,0C337.3,9.8,335.8,11.3,334,11.3L334,11.3
	z"/>
<circle class="st0" cx="371.5" cy="83.1" r="3.3"/>
<path class="st0" d="M378.6,74.2c0.5,0,1,0.2,1.3,0.5c0.7,0.7,0.7,1.9,0,2.7c-0.7,0.7-1.9,0.7-2.7,0c-0.7-0.7-0.7-1.9,0-2.7
	C377.6,74.4,378.1,74.2,378.6,74.2z M378.6,72.8c-1.8,0-3.3,1.4-3.3,3.2c0,1.8,1.4,3.3,3.2,3.3c1.8,0,3.3-1.4,3.3-3.2
	c0-0.9-0.3-1.7-0.9-2.3C380.3,73.1,379.5,72.8,378.6,72.8L378.6,72.8z"/>
<polygon class="st0" points="380.9,75.7 378.9,73.7 388.9,63.8 388.9,6.6 391.7,6.6 391.7,64.9 "/>
<polygon class="st0" points="373,84.5 352.2,84.5 332.6,64.9 332.6,6.6 335.4,6.6 335.4,63.8 353.3,81.7 373,81.7 "/>
<path class="st0" d="M548.6,34.7c-1.2,0-2.3-1-2.3-2.3c0-1.2,1-2.3,2.3-2.3c1.2,0,2.3,1,2.3,2.3l0,0
	C550.9,33.7,549.9,34.7,548.6,34.7z"/>
<path class="st0" d="M510,86.2c-1.2,0-2.3-1-2.3-2.3s1-2.3,2.3-2.3c1.2,0,2.3,1,2.3,2.3l0,0C512.3,85.2,511.3,86.2,510,86.2
	L510,86.2z"/>
<path class="st0" d="M548.6,66.9c-1.2,0-2.3-1-2.3-2.3s1-2.3,2.3-2.3s2.3,1,2.3,2.3l0,0C550.9,65.9,549.9,66.9,548.6,66.9z"/>
<path class="st0" d="M545.1,56.3c1.1,0,1.9,0.9,1.9,1.9c0,1.1-0.9,1.9-1.9,1.9c-1.1,0-1.9-0.9-1.9-1.9l0,0
	C543.1,57.2,544,56.3,545.1,56.3L545.1,56.3z M545.1,55.3c-1.6,0-2.9,1.3-2.9,2.9c0,1.6,1.3,2.9,2.9,2.9c1.6,0,2.9-1.3,2.9-2.9l0,0
	C548,56.6,546.7,55.3,545.1,55.3L545.1,55.3L545.1,55.3z"/>
<polygon class="st0" points="549.6,84.9 509.1,84.9 509.1,82.9 547.6,82.9 547.6,63.7 549.6,63.7 "/>
<polygon class="st0" points="543.1,59.2 522.5,59.2 509.1,45.7 509.1,31.5 549.6,31.5 549.6,33.5 511,33.5 511,45 523.3,57.2 
	543.1,57.2 "/>
<path class="st0" d="M456.6,85.9c-1.2,0-2.3-1-2.3-2.3c0-1.2,1-2.3,2.3-2.3c1.2,0,2.3,1,2.3,2.3l0,0
	C458.9,84.9,457.9,85.9,456.6,85.9z"/>
<path class="st0" d="M495.2,85.9c-1.2,0-2.3-1-2.3-2.3c0-1.2,1-2.3,2.3-2.3c1.2,0,2.3,1,2.3,2.3l0,0
	C497.5,84.9,496.5,85.9,495.2,85.9L495.2,85.9z"/>
<ellipse transform="matrix(0.9228 -0.3853 0.3853 0.9228 22.8485 178.4138)" class="st0" cx="456.6" cy="32.2" rx="2.3" ry="2.3"/>
<path class="st0" d="M463.1,34.4c-1.2,0-2.3-1-2.3-2.3c0-1.2,1-2.3,2.3-2.3c1.2,0,2.3,1,2.3,2.3l0,0
	C465.3,33.4,464.3,34.4,463.1,34.4z"/>
<path class="st0" d="M488.8,60.2c-1.2,0-2.3-1-2.3-2.2s1-2.3,2.2-2.3s2.3,1,2.3,2.2l0,0C491,59.1,490,60.2,488.8,60.2z"/>
<path class="st0" d="M466.6,56c1.1,0,1.9,0.9,1.9,1.9c0,1.1-0.9,1.9-1.9,1.9s-1.9-0.9-1.9-1.9l0,0C464.7,56.8,465.5,56,466.6,56z
	 M466.6,55c-1.6,0-2.9,1.3-2.9,2.9c0,1.6,1.3,2.9,2.9,2.9s2.9-1.3,2.9-2.9l0,0C469.5,56.3,468.2,55,466.6,55z"/>
<polygon class="st0" points="496.2,58.9 487.8,58.9 487.8,56.9 494.2,56.9 494.2,45.4 482,33.2 462.1,33.2 462.1,31.2 482.8,31.2 
	496.2,44.6 "/>
<rect x="455.7" y="31.2" class="st0" width="1.9" height="53.4"/>
<polygon class="st0" points="494.2,84.6 494.2,71.2 482,58.9 468.5,58.9 468.5,56.9 482.7,56.9 496.2,70.4 496.2,84.6 "/>
<path class="st0" d="M444.2,84.9c-1.2,0-2.3-1-2.3-2.3c0-1.2,1-2.3,2.3-2.3c1.2,0,2.3,1,2.3,2.3l0,0
	C446.5,83.9,445.5,84.9,444.2,84.9L444.2,84.9z"/>
<path class="st0" d="M405.7,37.7c-1.2,0-2.3-1-2.3-2.3c0-1.2,1-2.3,2.3-2.3c1.2,0,2.3,1,2.3,2.3l0,0
	C407.9,36.7,406.9,37.7,405.7,37.7L405.7,37.7z"/>
<path class="st0" d="M409.9,29.9c0.7,0,1.3,0.6,1.3,1.3s-0.6,1.3-1.3,1.3c-0.7,0-1.3-0.6-1.3-1.3C408.6,30.5,409.1,29.9,409.9,29.9z
	 M409.9,29c-1.2,0-2.3,1-2.3,2.2s1,2.3,2.2,2.3s2.3-1,2.3-2.2l0,0C412.1,30,411.1,29,409.9,29z"/>
<path class="st0" d="M415.6,55c1.1,0,1.9,0.9,1.9,1.9c0,1.1-0.9,1.9-1.9,1.9s-1.9-0.9-1.9-1.9S414.6,55,415.6,55z M415.6,54
	c-1.6,0-2.9,1.3-2.9,2.9c0,1.6,1.3,2.9,2.9,2.9s2.9-1.3,2.9-2.9l0,0C418.5,55.3,417.2,54,415.6,54L415.6,54z"/>
<polygon class="st0" points="445.2,83.6 404.7,83.6 404.7,36.7 406.6,36.7 406.6,81.7 445.2,81.7 "/>
<polygon class="st0" points="445.2,57.9 417.6,57.9 417.6,56 443.3,56 443.3,44.5 431,32.2 411.1,32.2 411.1,30.3 431.8,30.3 
	445.2,43.7 "/>
<path class="st0" d="M600.6,86.4c-1.2,0-2.3-1-2.3-2.3s1-2.3,2.3-2.3s2.3,1,2.3,2.3l0,0C602.8,85.4,601.8,86.4,600.6,86.4z"/>
<path class="st0" d="M562,39.2c-1.2,0-2.3-1-2.3-2.3c0-1.2,1-2.3,2.3-2.3c1.2,0,2.3,1,2.3,2.3l0,0C564.2,38.2,563.2,39.2,562,39.2
	L562,39.2z"/>
<path class="st0" d="M566.2,31.5c0.7,0,1.3,0.6,1.3,1.3s-0.6,1.3-1.3,1.3s-1.3-0.6-1.3-1.3l0,0C564.9,32.1,565.5,31.5,566.2,31.5
	L566.2,31.5z M566.2,30.5c-1.2,0-2.3,1-2.3,2.2s1,2.3,2.2,2.3s2.3-1,2.3-2.2l0,0C568.4,31.5,567.4,30.5,566.2,30.5L566.2,30.5z"/>
<path class="st0" d="M572,56.5c1.1,0,1.9,0.9,1.9,1.9c0,1.1-0.9,1.9-1.9,1.9c-1.1,0-1.9-0.9-1.9-1.9l0,0
	C570,57.4,570.9,56.5,572,56.5L572,56.5z M572,55.6c-1.6,0-2.9,1.3-2.9,2.9c0,1.6,1.3,2.9,2.9,2.9c1.6,0,2.9-1.3,2.9-2.9l0,0
	C574.8,56.9,573.5,55.6,572,55.6L572,55.6z"/>
<polygon class="st0" points="601.5,85.1 561,85.1 561,38.2 563,38.2 563,83.2 601.5,83.2 "/>
<polygon class="st0" points="601.5,59.4 573.9,59.4 573.9,57.5 599.6,57.5 599.6,46 587.3,33.7 567.5,33.7 567.5,31.8 588.1,31.8 
	601.5,45.2 "/>
<path class="st0" d="M245,34.1c-1.3,0-2.3-1-2.3-2.3s1-2.3,2.3-2.3s2.3,1,2.3,2.3l0,0C247.3,33.1,246.3,34.1,245,34.1z"/>
<path class="st0" d="M206,34.1c-1.3,0-2.3-1-2.3-2.3s1-2.3,2.3-2.3s2.3,1,2.3,2.3l0,0C208.3,33.1,207.3,34.1,206,34.1z"/>
<circle class="st0" cx="232" cy="83.8" r="2.3"/>
<path class="st0" d="M236.9,77.6c0.3,0,0.7,0.1,0.9,0.4c0.5,0.5,0.5,1.3,0,1.8l0,0c-0.5,0.5-1.3,0.6-1.8,0.1s-0.6-1.3-0.1-1.8
	L236,78C236.2,77.7,236.5,77.6,236.9,77.6z M236.9,76.6c-1.3,0.1-2.2,1.1-2.1,2.4c0.1,1.2,1,2.1,2.1,2.1c1.3,0.1,2.3-0.9,2.4-2.1
	c0.1-1.3-0.9-2.3-2.1-2.4C237.1,76.6,237,76.6,236.9,76.6z"/>
<polygon class="st0" points="238.5,78.7 237.1,77.3 244,70.4 244,30.8 246,30.8 246,71.2 "/>
<polygon class="st0" points="233,84.8 218.6,84.8 205,71.2 205,30.8 207,30.8 207,70.4 219.4,82.8 233,82.8 "/>
<path class="st0" d="M282.9,34.1c-1.3,0-2.3-1-2.3-2.3s1-2.3,2.3-2.3s2.3,1,2.3,2.3C285.2,33.1,284.1,34.1,282.9,34.1L282.9,34.1z"
	/>
<path class="st0" d="M321.9,34.1c-1.3,0-2.3-1-2.3-2.3s1-2.3,2.3-2.3s2.3,1,2.3,2.3l0,0C324.1,33.1,323.1,34.1,321.9,34.1z"/>
<circle class="st0" cx="302.4" cy="83.8" r="2.3"/>
<path class="st0" d="M302.4,34.7c0.7,0,1.3,0.6,1.3,1.3s-0.6,1.3-1.3,1.3c-0.7,0-1.3-0.6-1.3-1.3l0,0
	C301.1,35.3,301.7,34.7,302.4,34.7z M302.4,33.8c-1.3,0-2.3,1-2.3,2.3s1,2.3,2.3,2.3s2.3-1,2.3-2.3l0,0
	C304.6,34.8,303.6,33.8,302.4,33.8z"/>
<rect x="281.9" y="30.8" class="st0" width="40.9" height="2"/>
<rect x="301.4" y="37.3" class="st0" width="2" height="47.4"/>
<path class="st0" d="M104.5,86.1c-1.3,0-2.3-1-2.3-2.3s1-2.3,2.3-2.3s2.3,1,2.3,2.3S105.8,86.1,104.5,86.1L104.5,86.1z"/>
<path class="st0" d="M143.5,86.1c-1.3,0-2.3-1-2.3-2.3s1-2.3,2.3-2.3s2.3,1,2.3,2.3l0,0C145.8,85.1,144.8,86.1,143.5,86.1z"/>
<ellipse class="st0" cx="104.5" cy="31.8" rx="2.3" ry="2.3"/>
<path class="st0" d="M111,34.1c-1.3,0-2.3-1-2.3-2.3s1-2.3,2.3-2.3s2.3,1,2.3,2.3S112.2,34.1,111,34.1L111,34.1z"/>
<path class="st0" d="M137,60.1c-1.3,0-2.3-1-2.3-2.3s1-2.3,2.3-2.3s2.3,1,2.3,2.3l0,0C139.2,59.1,138.2,60.1,137,60.1z"/>
<path class="st0" d="M114.6,55.9c1.1,0,2,0.9,2,1.9c0,1.1-0.9,2-1.9,2c-1.1,0-2-0.9-2-1.9l0,0C112.6,56.7,113.5,55.9,114.6,55.9z
	 M114.6,54.9c-1.6,0-2.9,1.3-2.9,2.9c0,1.6,1.3,2.9,2.9,2.9s2.9-1.3,2.9-2.9S116.2,54.9,114.6,54.9L114.6,54.9z"/>
<polygon class="st0" points="144.4,58.8 136,58.8 136,56.8 142.5,56.8 142.5,45.2 130.1,32.8 110,32.8 110,30.8 130.9,30.8 
	144.4,44.4 "/>
<rect x="103.5" y="30.8" class="st0" width="2" height="53.9"/>
<polygon class="st0" points="142.5,84.8 142.5,71.2 130.1,58.8 116.5,58.8 116.5,56.8 130.9,56.8 144.4,70.4 144.4,84.8 "/>
<path class="st0" d="M89.8,34.1c-1.3,0-2.3-1-2.3-2.3s1-2.3,2.3-2.3s2.3,1,2.3,2.3C92.1,33.1,91,34.1,89.8,34.1L89.8,34.1z"/>
<path class="st0" d="M76.8,34.1c-1.3,0-2.3-1-2.3-2.3s1-2.3,2.3-2.3s2.3,1,2.3,2.3l0,0C79.1,33.1,78,34.1,76.8,34.1z"/>
<path class="st0" d="M76.8,86.1c-1.3,0-2.3-1-2.3-2.3s1-2.3,2.3-2.3s2.3,1,2.3,2.3l0,0C79.1,85.1,78,86.1,76.8,86.1z"/>
<path class="st0" d="M89.8,86.1c-1.3,0-2.3-1-2.3-2.3s1-2.3,2.3-2.3s2.3,1,2.3,2.3l0,0C92.1,85.1,91,86.1,89.8,86.1z"/>
<path class="st1" d="M83.3,34.7c1.2,0,2.3,1,2.3,2.3c0,1.2-1,2.3-2.3,2.3c-1.2,0-2.3-1-2.3-2.3S82.1,34.7,83.3,34.7L83.3,34.7z
	 M83.3,33.1c-2.3,0-4,1.7-4,4s1.7,4,4,4s4-1.7,4-4l0,0C87.3,34.8,85.6,33.1,83.3,33.1z"/>
<path class="st2" d="M83.3,75.3c1.2,0,2.3,1,2.3,2.3c0,1.2-1,2.3-2.3,2.3c-1.2,0-2.3-1-2.3-2.3l0,0C81,76.2,82.1,75.3,83.3,75.3
	L83.3,75.3z M83.3,73.6c-2.3,0-4,1.7-4,4s1.7,4,4,4s4-1.7,4-4l0,0C87.3,75.3,85.4,73.6,83.3,73.6L83.3,73.6z"/>
<rect x="82.5" y="41.2" class="st0" width="1.6" height="33"/>
<rect x="75.8" y="30.8" class="st0" width="14.9" height="2"/>
<rect x="75.8" y="82.8" class="st0" width="14.9" height="2"/>
<path class="st0" d="M58.2,10.6c-1.8,0-3.3-1.5-3.3-3.3S56.4,4,58.2,4s3.3,1.5,3.3,3.3S60,10.6,58.2,10.6L58.2,10.6z"/>
<path class="st0" d="M58.2,85.7c-1.8,0-3.3-1.5-3.3-3.3s1.5-3.3,3.3-3.3s3.3,1.5,3.3,3.3l0,0C61.5,84.2,60,85.7,58.2,85.7L58.2,85.7
	z"/>
<polygon class="st0" points="59.7,83.8 0.5,83.8 0.5,25.5 20.1,5.9 59.7,5.9 59.7,8.7 21.3,8.7 3.3,26.7 3.3,81 59.7,81 "/>
<path class="st0" d="M193.6,34.9c-1.3,0-2.3-1-2.3-2.3s1-2.3,2.3-2.3s2.3,1,2.3,2.3l0,0C195.9,33.9,194.9,34.9,193.6,34.9
	L193.6,34.9z"/>
<path class="st0" d="M193.6,86.9c-1.3,0-2.3-1-2.3-2.3s1-2.3,2.3-2.3s2.3,1,2.3,2.3l0,0C195.9,85.9,194.9,86.9,193.6,86.9
	L193.6,86.9z"/>
<polygon class="st0" points="194.6,85.6 153.6,85.6 153.6,45.2 167.2,31.6 194.6,31.6 194.6,33.6 168,33.6 155.6,46 155.6,83.6 
	194.6,83.6 "/>
<path class="st0" d="M270.4,34.1c-1.3,0-2.3-1-2.3-2.3s1-2.3,2.3-2.3s2.3,1,2.3,2.3C272.7,33.1,271.7,34.1,270.4,34.1L270.4,34.1z"
	/>
<path class="st0" d="M257.4,34.1c-1.3,0-2.3-1-2.3-2.3s1-2.3,2.3-2.3c1.3,0,2.3,1,2.3,2.3C259.7,33.1,258.7,34.1,257.4,34.1
	L257.4,34.1z"/>
<path class="st0" d="M257.4,86.1c-1.3,0-2.3-1-2.3-2.3s1-2.3,2.3-2.3s2.3,1,2.3,2.3l0,0C259.7,85.1,258.7,86.1,257.4,86.1
	L257.4,86.1z"/>
<path class="st0" d="M270.4,86.1c-1.3,0-2.3-1-2.3-2.3s1-2.3,2.3-2.3s2.3,1,2.3,2.3l0,0C272.7,85.1,271.7,86.1,270.4,86.1z"/>
<path class="st0" d="M263.9,34.7c0.7,0,1.3,0.6,1.3,1.3s-0.6,1.3-1.3,1.3s-1.3-0.6-1.3-1.3S263.2,34.7,263.9,34.7L263.9,34.7z
	 M263.9,33.8c-1.3,0-2.3,1-2.3,2.3s1,2.3,2.3,2.3s2.3-1,2.3-2.3C266.2,34.8,265.2,33.8,263.9,33.8L263.9,33.8z"/>
<path class="st0" d="M263.9,78.3c0.7,0,1.3,0.6,1.3,1.3c0,0.7-0.6,1.3-1.3,1.3c-0.7,0-1.3-0.6-1.3-1.3l0,0
	C262.6,78.8,263.2,78.3,263.9,78.3z M263.9,77.3c-1.3,0-2.3,1-2.3,2.3s1,2.3,2.3,2.3s2.3-1,2.3-2.3l0,0
	C266.2,78.3,265.2,77.3,263.9,77.3L263.9,77.3z"/>
<rect x="262.9" y="37.3" class="st0" width="2" height="40.9"/>
<rect x="256.4" y="30.8" class="st0" width="14.9" height="2"/>
<rect x="256.4" y="82.8" class="st0" width="14.9" height="2"/>
</svg>
