<?xml version="1.0" encoding="utf-8"?>
<!-- Generator: Adobe Illustrator 22.0.1, SVG Export Plug-In . SVG Version: 6.00 Build 0)  -->
<svg version="1.1" id="Layer_1" xmlns="http://www.w3.org/2000/svg" xmlns:xlink="http://www.w3.org/1999/xlink" x="0px" y="0px"
	 viewBox="0 0 639.2 103.2" style="enable-background:new 0 0 639.2 103.2;" xml:space="preserve">
<style type="text/css">
	.st0{fill:#FFFFFF;stroke:#FFFFFF;stroke-miterlimit:10;}
</style>
<title>circuitverse2</title>
<path class="st0" d="M390.3,7.5c-1.8,0-3.3-1.5-3.3-3.3s1.5-3.3,3.3-3.3s3.3,1.5,3.3,3.3l0,0C393.6,6,392.1,7.5,390.3,7.5L390.3,7.5
	z"/>
<path class="st0" d="M334,7.5c-1.8,0-3.3-1.5-3.3-3.3s1.5-3.3,3.3-3.3s3.3,1.5,3.3,3.3l0,0C337.3,6,335.8,7.5,334,7.5L334,7.5z"/>
<circle class="st0" cx="371.5" cy="79.3" r="3.3"/>
<path class="st0" d="M378.6,70.4c0.5,0,1,0.2,1.3,0.5c0.7,0.7,0.7,1.9,0,2.7c-0.7,0.7-1.9,0.7-2.7,0c-0.7-0.7-0.7-1.9,0-2.7
	C377.6,70.6,378.1,70.4,378.6,70.4z M378.6,69c-1.8,0-3.3,1.4-3.3,3.2c0,1.8,1.4,3.3,3.2,3.3c1.8,0,3.3-1.4,3.3-3.2
	c0-0.9-0.3-1.7-0.9-2.3C380.3,69.3,379.5,69,378.6,69L378.6,69z"/>
<polygon class="st0" points="380.9,71.9 378.9,69.9 388.9,60 388.9,2.8 391.7,2.8 391.7,61.1 "/>
<polygon class="st0" points="373,80.7 352.2,80.7 332.6,61.1 332.6,2.8 335.4,2.8 335.4,60 353.3,77.9 373,77.9 "/>
<path class="st0" d="M548.6,30.9c-1.2,0-2.3-1-2.3-2.3c0-1.2,1-2.3,2.3-2.3c1.2,0,2.3,1,2.3,2.3l0,0
	C550.9,29.9,549.9,30.9,548.6,30.9z"/>
<path class="st0" d="M510,82.4c-1.2,0-2.3-1-2.3-2.3s1-2.3,2.3-2.3c1.2,0,2.3,1,2.3,2.3l0,0C512.3,81.4,511.3,82.4,510,82.4
	L510,82.4z"/>
<path class="st0" d="M548.6,63.1c-1.2,0-2.3-1-2.3-2.3s1-2.3,2.3-2.3s2.3,1,2.3,2.3l0,0C550.9,62.1,549.9,63.1,548.6,63.1z"/>
<path class="st0" d="M545.1,52.5c1.1,0,1.9,0.9,1.9,1.9c0,1.1-0.9,1.9-1.9,1.9c-1.1,0-1.9-0.9-1.9-1.9l0,0
	C543.1,53.4,544,52.5,545.1,52.5L545.1,52.5z M545.1,51.5c-1.6,0-2.9,1.3-2.9,2.9c0,1.6,1.3,2.9,2.9,2.9c1.6,0,2.9-1.3,2.9-2.9l0,0
	C548,52.8,546.7,51.5,545.1,51.5L545.1,51.5L545.1,51.5z"/>
<polygon class="st0" points="549.6,81.1 509.1,81.1 509.1,79.1 547.6,79.1 547.6,59.9 549.6,59.9 "/>
<polygon class="st0" points="543.1,55.4 522.5,55.4 509.1,41.9 509.1,27.7 549.6,27.7 549.6,29.7 511,29.7 511,41.2 523.3,53.4 
	543.1,53.4 "/>
<path class="st0" d="M456.6,82.1c-1.2,0-2.3-1-2.3-2.3c0-1.2,1-2.3,2.3-2.3c1.2,0,2.3,1,2.3,2.3l0,0
	C458.9,81.1,457.9,82.1,456.6,82.1z"/>
<path class="st0" d="M495.2,82.1c-1.2,0-2.3-1-2.3-2.3c0-1.2,1-2.3,2.3-2.3c1.2,0,2.3,1,2.3,2.3l0,0
	C497.5,81.1,496.5,82.1,495.2,82.1L495.2,82.1z"/>
<ellipse transform="matrix(0.9228 -0.3853 0.3853 0.9228 24.3294 178.1119)" class="st0" cx="456.6" cy="28.3" rx="2.3" ry="2.3"/>
<path class="st0" d="M463.1,30.6c-1.2,0-2.3-1-2.3-2.3c0-1.2,1-2.3,2.3-2.3c1.2,0,2.3,1,2.3,2.3l0,0
	C465.3,29.6,464.3,30.6,463.1,30.6z"/>
<path class="st0" d="M488.8,56.4c-1.2,0-2.3-1-2.3-2.2s1-2.3,2.2-2.3s2.3,1,2.3,2.2l0,0C491,55.3,490,56.4,488.8,56.4z"/>
<path class="st0" d="M466.6,52.2c1.1,0,1.9,0.9,1.9,1.9c0,1.1-0.9,1.9-1.9,1.9s-1.9-0.9-1.9-1.9l0,0C464.7,53,465.5,52.2,466.6,52.2
	z M466.6,51.2c-1.6,0-2.9,1.3-2.9,2.9c0,1.6,1.3,2.9,2.9,2.9s2.9-1.3,2.9-2.9l0,0C469.5,52.5,468.2,51.2,466.6,51.2z"/>
<polygon class="st0" points="496.2,55.1 487.8,55.1 487.8,53.1 494.2,53.1 494.2,41.6 482,29.4 462.1,29.4 462.1,27.4 482.8,27.4 
	496.2,40.8 "/>
<rect x="455.7" y="27.4" class="st0" width="1.9" height="53.4"/>
<polygon class="st0" points="494.2,80.8 494.2,67.4 482,55.1 468.5,55.1 468.5,53.1 482.7,53.1 496.2,66.6 496.2,80.8 "/>
<path class="st0" d="M444.2,81.1c-1.2,0-2.3-1-2.3-2.3c0-1.2,1-2.3,2.3-2.3c1.2,0,2.3,1,2.3,2.3l0,0
	C446.5,80.1,445.5,81.1,444.2,81.1L444.2,81.1z"/>
<path class="st0" d="M405.7,33.9c-1.2,0-2.3-1-2.3-2.3c0-1.2,1-2.3,2.3-2.3c1.2,0,2.3,1,2.3,2.3l0,0
	C407.9,32.9,406.9,33.9,405.7,33.9L405.7,33.9z"/>
<path class="st0" d="M409.9,26.1c0.7,0,1.3,0.6,1.3,1.3s-0.6,1.3-1.3,1.3c-0.7,0-1.3-0.6-1.3-1.3C408.6,26.7,409.1,26.1,409.9,26.1z
	 M409.9,25.2c-1.2,0-2.3,1-2.3,2.2s1,2.3,2.2,2.3s2.3-1,2.3-2.2l0,0C412.1,26.2,411.1,25.2,409.9,25.2z"/>
<path class="st0" d="M415.6,51.2c1.1,0,1.9,0.9,1.9,1.9c0,1.1-0.9,1.9-1.9,1.9s-1.9-0.9-1.9-1.9S414.6,51.2,415.6,51.2z M415.6,50.2
	c-1.6,0-2.9,1.3-2.9,2.9c0,1.6,1.3,2.9,2.9,2.9s2.9-1.3,2.9-2.9l0,0C418.5,51.5,417.2,50.2,415.6,50.2L415.6,50.2z"/>
<polygon class="st0" points="445.2,79.8 404.7,79.8 404.7,32.9 406.6,32.9 406.6,77.9 445.2,77.9 "/>
<polygon class="st0" points="445.2,54.1 417.6,54.1 417.6,52.2 443.3,52.2 443.3,40.7 431,28.4 411.1,28.4 411.1,26.5 431.8,26.5 
	445.2,39.9 "/>
<path class="st0" d="M600.6,82.6c-1.2,0-2.3-1-2.3-2.3s1-2.3,2.3-2.3s2.3,1,2.3,2.3l0,0C602.8,81.6,601.8,82.6,600.6,82.6z"/>
<path class="st0" d="M562,35.4c-1.2,0-2.3-1-2.3-2.3c0-1.2,1-2.3,2.3-2.3c1.2,0,2.3,1,2.3,2.3l0,0C564.2,34.4,563.2,35.4,562,35.4
	L562,35.4z"/>
<path class="st0" d="M566.2,27.7c0.7,0,1.3,0.6,1.3,1.3s-0.6,1.3-1.3,1.3s-1.3-0.6-1.3-1.3l0,0C564.9,28.3,565.5,27.7,566.2,27.7
	L566.2,27.7z M566.2,26.7c-1.2,0-2.3,1-2.3,2.2s1,2.3,2.2,2.3s2.3-1,2.3-2.2l0,0C568.4,27.7,567.4,26.7,566.2,26.7L566.2,26.7z"/>
<path class="st0" d="M572,52.7c1.1,0,1.9,0.9,1.9,1.9c0,1.1-0.9,1.9-1.9,1.9c-1.1,0-1.9-0.9-1.9-1.9l0,0
	C570,53.6,570.9,52.7,572,52.7L572,52.7z M572,51.8c-1.6,0-2.9,1.3-2.9,2.9c0,1.6,1.3,2.9,2.9,2.9c1.6,0,2.9-1.3,2.9-2.9l0,0
	C574.8,53.1,573.5,51.8,572,51.8L572,51.8z"/>
<polygon class="st0" points="601.5,81.3 561,81.3 561,34.4 563,34.4 563,79.4 601.5,79.4 "/>
<polygon class="st0" points="601.5,55.6 573.9,55.6 573.9,53.7 599.6,53.7 599.6,42.2 587.3,29.9 567.5,29.9 567.5,28 588.1,28 
	601.5,41.4 "/>
<path class="st0" d="M245,30.3c-1.3,0-2.3-1-2.3-2.3s1-2.3,2.3-2.3s2.3,1,2.3,2.3l0,0C247.3,29.3,246.3,30.3,245,30.3z"/>
<path class="st0" d="M206,30.3c-1.3,0-2.3-1-2.3-2.3s1-2.3,2.3-2.3s2.3,1,2.3,2.3l0,0C208.3,29.3,207.3,30.3,206,30.3z"/>
<circle class="st0" cx="232" cy="80" r="2.3"/>
<path class="st0" d="M236.9,73.8c0.3,0,0.7,0.1,0.9,0.4c0.5,0.5,0.5,1.3,0,1.8l0,0c-0.5,0.5-1.3,0.6-1.8,0.1s-0.6-1.3-0.1-1.8
	l0.1-0.1C236.2,73.9,236.5,73.8,236.9,73.8z M236.9,72.8c-1.3,0.1-2.2,1.1-2.1,2.4c0.1,1.2,1,2.1,2.1,2.1c1.3,0.1,2.3-0.9,2.4-2.1
	c0.1-1.3-0.9-2.3-2.1-2.4C237.1,72.8,237,72.8,236.9,72.8z"/>
<polygon class="st0" points="238.5,74.9 237.1,73.5 244,66.6 244,27 246,27 246,67.4 "/>
<polygon class="st0" points="233,81 218.6,81 205,67.4 205,27 207,27 207,66.6 219.4,79 233,79 "/>
<path class="st0" d="M282.9,30.3c-1.3,0-2.3-1-2.3-2.3s1-2.3,2.3-2.3s2.3,1,2.3,2.3C285.2,29.3,284.1,30.3,282.9,30.3L282.9,30.3z"
	/>
<path class="st0" d="M321.9,30.3c-1.3,0-2.3-1-2.3-2.3s1-2.3,2.3-2.3s2.3,1,2.3,2.3l0,0C324.1,29.3,323.1,30.3,321.9,30.3z"/>
<circle class="st0" cx="302.4" cy="80" r="2.3"/>
<path class="st0" d="M302.4,30.9c0.7,0,1.3,0.6,1.3,1.3s-0.6,1.3-1.3,1.3c-0.7,0-1.3-0.6-1.3-1.3l0,0
	C301.1,31.5,301.7,30.9,302.4,30.9z M302.4,30c-1.3,0-2.3,1-2.3,2.3s1,2.3,2.3,2.3s2.3-1,2.3-2.3l0,0C304.6,31,303.6,30,302.4,30z"
	/>
<rect x="281.9" y="27" class="st0" width="40.9" height="2"/>
<rect x="301.4" y="33.5" class="st0" width="2" height="47.4"/>
<path class="st0" d="M104.5,82.3c-1.3,0-2.3-1-2.3-2.3s1-2.3,2.3-2.3s2.3,1,2.3,2.3S105.8,82.3,104.5,82.3L104.5,82.3z"/>
<path class="st0" d="M143.5,82.3c-1.3,0-2.3-1-2.3-2.3s1-2.3,2.3-2.3s2.3,1,2.3,2.3l0,0C145.8,81.3,144.8,82.3,143.5,82.3z"/>
<ellipse class="st0" cx="104.5" cy="27.9" rx="2.3" ry="2.3"/>
<path class="st0" d="M111,30.3c-1.3,0-2.3-1-2.3-2.3s1-2.3,2.3-2.3s2.3,1,2.3,2.3S112.2,30.3,111,30.3L111,30.3z"/>
<path class="st0" d="M137,56.3c-1.3,0-2.3-1-2.3-2.3s1-2.3,2.3-2.3s2.3,1,2.3,2.3l0,0C139.2,55.3,138.2,56.3,137,56.3z"/>
<path class="st0" d="M114.6,52.1c1.1,0,2,0.9,2,1.9c0,1.1-0.9,2-1.9,2c-1.1,0-2-0.9-2-1.9l0,0C112.6,52.9,113.5,52.1,114.6,52.1z
	 M114.6,51.1c-1.6,0-2.9,1.3-2.9,2.9c0,1.6,1.3,2.9,2.9,2.9s2.9-1.3,2.9-2.9S116.2,51.1,114.6,51.1L114.6,51.1z"/>
<polygon class="st0" points="144.4,55 136,55 136,53 142.5,53 142.5,41.4 130.1,29 110,29 110,27 130.9,27 144.4,40.6 "/>
<rect x="103.5" y="27" class="st0" width="2" height="53.9"/>
<polygon class="st0" points="142.5,81 142.5,67.4 130.1,55 116.5,55 116.5,53 130.9,53 144.4,66.6 144.4,81 "/>
<path class="st0" d="M89.8,30.3c-1.3,0-2.3-1-2.3-2.3s1-2.3,2.3-2.3s2.3,1,2.3,2.3C92.1,29.3,91,30.3,89.8,30.3L89.8,30.3z"/>
<path class="st0" d="M76.8,30.3c-1.3,0-2.3-1-2.3-2.3s1-2.3,2.3-2.3s2.3,1,2.3,2.3l0,0C79.1,29.3,78,30.3,76.8,30.3z"/>
<path class="st0" d="M76.8,82.3c-1.3,0-2.3-1-2.3-2.3s1-2.3,2.3-2.3s2.3,1,2.3,2.3l0,0C79.1,81.3,78,82.3,76.8,82.3z"/>
<path class="st0" d="M89.8,82.3c-1.3,0-2.3-1-2.3-2.3s1-2.3,2.3-2.3s2.3,1,2.3,2.3l0,0C92.1,81.3,91,82.3,89.8,82.3z"/>
<path class="st0" d="M83.3,30.9c0.7,0,1.3,0.6,1.3,1.3s-0.6,1.3-1.3,1.3c-0.7,0-1.3-0.6-1.3-1.3S82.6,30.9,83.3,30.9L83.3,30.9z
	 M83.3,30C82,30,81,31,81,32.3s1,2.3,2.3,2.3s2.3-1,2.3-2.3l0,0C85.6,31,84.6,30,83.3,30z"/>
<path class="st0" d="M83.3,74.5c0.7,0,1.3,0.6,1.3,1.3c0,0.7-0.6,1.3-1.3,1.3c-0.7,0-1.3-0.6-1.3-1.3l0,0C82,75,82.6,74.5,83.3,74.5
	L83.3,74.5z M83.3,73.5c-1.3,0-2.3,1-2.3,2.3s1,2.3,2.3,2.3s2.3-1,2.3-2.3l0,0C85.6,74.5,84.5,73.5,83.3,73.5L83.3,73.5z"/>
<rect x="82.3" y="33.5" class="st0" width="2" height="40.9"/>
<rect x="75.8" y="27" class="st0" width="14.9" height="2"/>
<rect x="75.8" y="79" class="st0" width="14.9" height="2"/>
<path class="st0" d="M58.2,6.8c-1.8,0-3.3-1.5-3.3-3.3s1.5-3.3,3.3-3.3s3.3,1.5,3.3,3.3S60,6.8,58.2,6.8L58.2,6.8z"/>
<path class="st0" d="M58.2,81.9c-1.8,0-3.3-1.5-3.3-3.3s1.5-3.3,3.3-3.3s3.3,1.5,3.3,3.3l0,0C61.5,80.4,60,81.9,58.2,81.9L58.2,81.9
	z"/>
<polygon class="st0" points="59.7,80 0.5,80 0.5,21.7 20.1,2.1 59.7,2.1 59.7,4.9 21.3,4.9 3.3,22.9 3.3,77.2 59.7,77.2 "/>
<path class="st0" d="M193.6,31.1c-1.3,0-2.3-1-2.3-2.3s1-2.3,2.3-2.3s2.3,1,2.3,2.3l0,0C195.9,30.1,194.9,31.1,193.6,31.1
	L193.6,31.1z"/>
<path class="st0" d="M193.6,83.1c-1.3,0-2.3-1-2.3-2.3s1-2.3,2.3-2.3s2.3,1,2.3,2.3l0,0C195.9,82.1,194.9,83.1,193.6,83.1
	L193.6,83.1z"/>
<polygon class="st0" points="194.6,81.8 153.6,81.8 153.6,41.4 167.2,27.8 194.6,27.8 194.6,29.8 168,29.8 155.6,42.2 155.6,79.8 
	194.6,79.8 "/>
<path class="st0" d="M270.4,30.3c-1.3,0-2.3-1-2.3-2.3s1-2.3,2.3-2.3s2.3,1,2.3,2.3C272.7,29.3,271.7,30.3,270.4,30.3L270.4,30.3z"
	/>
<path class="st0" d="M257.4,30.3c-1.3,0-2.3-1-2.3-2.3s1-2.3,2.3-2.3c1.3,0,2.3,1,2.3,2.3C259.7,29.3,258.7,30.3,257.4,30.3
	L257.4,30.3z"/>
<path class="st0" d="M257.4,82.3c-1.3,0-2.3-1-2.3-2.3s1-2.3,2.3-2.3s2.3,1,2.3,2.3l0,0C259.7,81.3,258.7,82.3,257.4,82.3
	L257.4,82.3z"/>
<path class="st0" d="M270.4,82.3c-1.3,0-2.3-1-2.3-2.3s1-2.3,2.3-2.3s2.3,1,2.3,2.3l0,0C272.7,81.3,271.7,82.3,270.4,82.3z"/>
<path class="st0" d="M263.9,30.9c0.7,0,1.3,0.6,1.3,1.3s-0.6,1.3-1.3,1.3s-1.3-0.6-1.3-1.3S263.2,30.9,263.9,30.9L263.9,30.9z
	 M263.9,30c-1.3,0-2.3,1-2.3,2.3s1,2.3,2.3,2.3s2.3-1,2.3-2.3C266.2,31,265.2,30,263.9,30L263.9,30z"/>
<path class="st0" d="M263.9,74.5c0.7,0,1.3,0.6,1.3,1.3c0,0.7-0.6,1.3-1.3,1.3c-0.7,0-1.3-0.6-1.3-1.3l0,0
	C262.6,75,263.2,74.5,263.9,74.5z M263.9,73.5c-1.3,0-2.3,1-2.3,2.3s1,2.3,2.3,2.3s2.3-1,2.3-2.3l0,0
	C266.2,74.5,265.2,73.5,263.9,73.5L263.9,73.5z"/>
<rect x="262.9" y="33.5" class="st0" width="2" height="40.9"/>
<rect x="256.4" y="27" class="st0" width="14.9" height="2"/>
<rect x="256.4" y="79" class="st0" width="14.9" height="2"/>
</svg>
