<svg xmlns="http://www.w3.org/2000/svg" viewBox="0 0 263.02 74.08"><defs><style>.cls-1{fill:#42b782;}.cls-2{fill:#42b783;}.cls-3{fill:#43b883;}.cls-4{fill:#42b883;}.cls-5{fill:#fdfdfd;}.cls-6{fill:#f9fbfa;}.cls-7{fill:#fcfdfd;}</style></defs><title>Asset 1</title><g id="Layer_2" data-name="Layer 2"><g id="Layer_1-2" data-name="Layer 1"><path class="cls-1" d="M14.45,35.8q-2.79-2.58-5.59-5.15a1.43,1.43,0,0,0-.66-.26,2.15,2.15,0,0,1-1.84-1.93c-.11-.92-.13-1.9.79-2.47a3.09,3.09,0,0,1,3.1,0,1.85,1.85,0,0,1,.9,1.71,2.93,2.93,0,0,0,1.06,2q3,2.82,6,5.71a2,2,0,0,0,1.59.62c4.68,0,9.35,0,14,0,.91,0,1.14-.26,1.13-1.14s-.19-1.3-1.18-1.22-2.24,0-3.36,0a7.39,7.39,0,0,0-3.71.61,2.26,2.26,0,0,1-3-.89,2.6,2.6,0,0,1,.5-3.17,2.26,2.26,0,0,1,3.07,0,3.54,3.54,0,0,0,2.34.63c1.44,0,2.88-.08,4.32,0,1,.07,1-.5,1-1.24s.15-1.33-1-1.27c-1.71.09-3.43,0-5.14,0a4.31,4.31,0,0,1-3.07-1.1c-1.61-1.37-3.25-2.71-4.84-4.1a2.64,2.64,0,0,0-1.93-.73c-2.8,0-5.59,0-8.39,0A4.71,4.71,0,0,0,8,23a2.34,2.34,0,0,1-3.39-.93,2.61,2.61,0,0,1,.95-3.35A2,2,0,0,1,8.24,19a3.75,3.75,0,0,0,2.75.83c2.68,0,5.36,0,8,0a5.15,5.15,0,0,1,3.5,1.32C24,22.4,25.6,23.64,27.09,25a3,3,0,0,0,2.25.83q2.28-.09,4.56,0c.75,0,1-.25.93-1-.11-2.74.52-2.43-2.3-2.31a7.42,7.42,0,0,1-6.1-2.07c-.52-.53-1.25-.46-1.9-.62-1.42-.33-2-1-1.92-2.3a2.38,2.38,0,0,1,2.15-2.32,2.28,2.28,0,0,1,2.64,1.72,4.16,4.16,0,0,0,3.87,2.87c.84,0,1.68-.05,2.52,0s1.13-.29,1-1.09a13.83,13.83,0,0,1,0-1.44c0-1.34-.7-1.74-1.94-1.12-.29.14-.54.34-.82.49a2.16,2.16,0,0,1-3-.55A2.47,2.47,0,0,1,29,12.91a2.32,2.32,0,0,1,3-.57c.66.32,1.14,1,2,.85.61-.07.81-.26.82-.87,0-2,0-2-2-2.14a8.46,8.46,0,0,0-5.36,1.24,13,13,0,0,1-8.5,2.2,6.87,6.87,0,0,0-4.73.71c-1,.64-2.23,0-2.92-1.11a2.52,2.52,0,0,1,.55-3.15,2,2,0,0,1,3-.1,3,3,0,0,0,2.48.82,10.26,10.26,0,0,1,1.92,0,10.15,10.15,0,0,0,6.82-1.67,10.85,10.85,0,0,1,7.39-1.78c1.16.12,1.79-1,1.3-2.12-.15-.34-.43-.3-.7-.3H29c-.56,0-1,.37-1.42.59-1.34.64-2.23.47-3-.63a2.63,2.63,0,0,1,0-3.11,2.28,2.28,0,0,1,3.13-.46c2.16,1.35,4.51.41,6.76.65.46,0,.45-.41.42-.71C34.77.13,35.36,0,36.33,0,49.51.32,59.81,5.79,67,16.94c4.28,6.65,6.74,13.85,6.16,21.8C72,54.33,61.66,70.58,42.07,73.67a38.91,38.91,0,0,1-6.2.41c-.64,0-1-.19-.94-.88s-.26-.88-.9-.87c-1.76,0-3.52,0-5.28,0a2.56,2.56,0,0,0-1.5.63,2.43,2.43,0,0,1-2.7.27,2.5,2.5,0,0,1-1.2-2.55c.12-1.73,1.69-2.59,3.44-1.84,2.51,1.07,5.12.3,7.67.5.53,0,.47-.47.47-.8s.12-.84-.45-1a1.55,1.55,0,0,0-.48,0,9.67,9.67,0,0,1-7.2-1.94c-2.41-1.78-5.17-1.61-7.92-1.56-.74,0-1.17.64-1.8.88a2.31,2.31,0,0,1-3.15-1,2.5,2.5,0,0,1,1-3.31,2.07,2.07,0,0,1,2.37.07,4,4,0,0,0,2.73.63c.16,0,.32,0,.47,0,3.18-.46,5.88.69,8.38,2.47,1.7,1.21,3.62,1,5.53,1,.34,0,.47-.14.54-.48.43-2.09,0-2.6-2-2.63a4.7,4.7,0,0,0-2.5.58,2.37,2.37,0,0,1-3.19-.71,2.11,2.11,0,0,1,.08-2.93,2,2,0,0,1,3.06-.17c1.21,1,2.53.75,3.85.81.4,0,.52-.19.58-.57.3-2,.1-2.26-1.89-2.26-5.79,0-11.58,0-17.38,0A3.79,3.79,0,0,1,12,54.67a3.85,3.85,0,0,0-2.82-2C8,52.57,7.6,51.55,7.74,50.09a2.26,2.26,0,0,1,2.28-2,2.06,2.06,0,0,1,2.36,1.55c.27.7,0,1.49.51,2.17a4,4,0,0,0,3.56,1.83c5.67-.15,11.35-.06,17-.06,1.59,0,1.51,0,1.62-1.63.08-1.21-.28-1.57-1.51-1.51-2.27.11-4.55,0-6.83,0-1.48,0-3,0-4.43,0a5.68,5.68,0,0,0-3.53.76,2.11,2.11,0,0,1-3-.68,2.35,2.35,0,0,1,.33-3.24,2.09,2.09,0,0,1,3-.18,2.87,2.87,0,0,0,1.88.57c4.24,0,8.47,0,12.71,0,.9,0,1.36-.19,1.21-1.17a3.43,3.43,0,0,1,0-1c.07-.65-.17-.9-.86-.89-8,0-16,0-24,0-.28,0-.6-.06-.79.19-1,1.31-2.51,2.21-3.17,3.83A2.35,2.35,0,0,1,3.3,50.16a2.61,2.61,0,0,1-1.79-2.78,2,2,0,0,1,2.14-2.12,3,3,0,0,0,2.66-1.44,5.11,5.11,0,0,1,4.58-2c7.59.09,15.18,0,22.77.06,1,0,1.29-.24,1.26-1.25-.07-2.12,0-2.12-2.17-2.12q-13.18,0-26.37,0a4.32,4.32,0,0,0-2.81.69,2,2,0,0,1-2.55,0,2.57,2.57,0,0,1-.95-2.66A2.33,2.33,0,0,1,2,34.55a2.33,2.33,0,0,1,2.26.8,2.31,2.31,0,0,0,1.91.71c2.72,0,5.43,0,8.15,0Z"/><path class="cls-2" d="M99.33,33.7a5.77,5.77,0,0,0-.72,0,2,2,0,0,1-2.44-1.46c-1-2.55-4.9-2.69-6.55-.38s-1.7,7.51,0,9.9a3.67,3.67,0,0,0,3.77,1.55,3.36,3.36,0,0,0,2.9-2.5,1.27,1.27,0,0,1,1.53-1.06,29.33,29.33,0,0,0,3.11,0c.86,0,1,.3.89,1.08a6.9,6.9,0,0,1-2.53,4.46c-3.22,2.66-9.49,2.8-12.81.28-2.9-2.2-3.83-5.27-3.77-8.74a10.79,10.79,0,0,1,2.2-6.91c4-4.92,11.31-4.07,14.61-1.33a7.41,7.41,0,0,1,2.41,4.16c.18.74,0,1-.81,1A17.8,17.8,0,0,0,99.33,33.7Z"/><path class="cls-2" d="M191.75,42.74c1.54-5.08,3-9.86,4.43-14.67.28-.94.64-1.4,1.71-1.3a30.69,30.69,0,0,0,3.59,0c.63,0,.74.17.52.77q-3.48,9.39-6.9,18.81a.88.88,0,0,1-.95.69q-2.58,0-5.16,0a.85.85,0,0,1-.93-.69c-2.26-6.25-4.51-12.5-6.8-18.73-.29-.81,0-.86.67-.85,1.35,0,2.71,0,4.07,0,.71,0,.94.27,1.13.91,1.32,4.42,2.68,8.82,4,13.23Z"/><path class="cls-2" d="M211.75,40.54c-1.56,0-3.12,0-4.68,0-.64,0-.81.2-.69.85a2.71,2.71,0,0,0,1.9,2.37,2.47,2.47,0,0,0,3-1.07A1.42,1.42,0,0,1,212.7,42a26.88,26.88,0,0,0,3.11,0c1.1-.07,1.1.41.79,1.21a6.58,6.58,0,0,1-3.9,3.64c-3.92,1.61-8.51.42-10.5-2.69A9.51,9.51,0,0,1,203,33.54c2.29-2.62,6.73-3.4,10.14-1.79a7.7,7.7,0,0,1,4.16,8c-.1.64-.43.76-1,.75Z"/><path class="cls-2" d="M257.38,40.43c-1.51,0-3,0-4.55,0-.73,0-.93.27-.78.92A2.74,2.74,0,0,0,254,43.67a2.54,2.54,0,0,0,3-1.08,1.43,1.43,0,0,1,1.47-.74c1.11,0,2.23,0,3.35,0,.63,0,.75.2.57.77-.8,2.61-2.71,3.92-5.23,4.55-4,1-8-.54-9.69-3.77a9.34,9.34,0,0,1,1.12-9.77,9.07,9.07,0,0,1,9.46-2.28A8.11,8.11,0,0,1,263,39.49c-.11.74-.4,1-1.15.95C260.34,40.39,258.86,40.43,257.38,40.43Z"/><path class="cls-1" d="M152.76,45c-2,2.57-4.48,3-7.35,2.1a4.32,4.32,0,0,1-3.18-4,103.3,103.3,0,0,1,0-11c0-.6.26-.72.79-.71,1.2,0,2.4,0,3.59,0,.74,0,1,.22.95,1,0,2.43,0,4.86,0,7.29a17,17,0,0,0,.21,2.25,2.08,2.08,0,0,0,1.79,2,2.32,2.32,0,0,0,2.78-1.33,4.94,4.94,0,0,0,.52-2.42c0-2.55,0-5.1,0-7.65,0-.73.23-1,1-1,1.16.05,2.32,0,3.47,0,.61,0,.84.17.84.81q-.06,6.93,0,13.86c0,.62-.19.85-.82.83a26.77,26.77,0,0,0-3.23,0c-1,.09-1.4-.25-1.24-1.25A4.06,4.06,0,0,0,152.76,45Z"/><path class="cls-2" d="M242.46,35.85c-.48,0-1,0-1.44,0a1.3,1.3,0,0,1-1.54-.77,1.94,1.94,0,0,0-.79-.7,1.1,1.1,0,0,0-1.49.33,1,1,0,0,0,.21,1.48,5.41,5.41,0,0,0,2.37,1.08,15.37,15.37,0,0,1,3.61,1.22,4.23,4.23,0,0,1,2.17,4.31,4,4,0,0,1-2.41,3.69,10.19,10.19,0,0,1-9.65-.26,4.49,4.49,0,0,1-2.34-3.29c-.11-.56,0-.81.63-.79,1.27,0,2.55,0,3.83,0,.6,0,.83.34,1.07.77a2.14,2.14,0,0,0,2.19,1.15,1.36,1.36,0,0,0,1.36-1,1.2,1.2,0,0,0-.86-1.41c-.73-.31-1.5-.53-2.26-.77s-1.69-.46-2.51-.78a4.13,4.13,0,0,1-2.94-3.7,4.38,4.38,0,0,1,2.56-4.59,9.31,9.31,0,0,1,7.21-.51A5.22,5.22,0,0,1,244.91,35c.22.71.07.93-.66.88S243.05,35.85,242.46,35.85Z"/><path class="cls-2" d="M137.73,37.28a7.58,7.58,0,0,0-1,0A1.57,1.57,0,0,1,134.68,36a2.13,2.13,0,0,0-2.33-1.51,2.23,2.23,0,0,0-2.09,1.69,8.66,8.66,0,0,0,0,5.73,2.24,2.24,0,0,0,2,1.79,2.15,2.15,0,0,0,2.42-1.37c.38-1.14,1.12-1.24,2.1-1.18a25.23,25.23,0,0,0,2.75,0c.77,0,.84.23.66.9-.77,3-2.88,4.54-5.79,5.17-4.41,1-8.5-1.2-9.69-5.14-1.43-4.71.63-9.48,4.85-10.8,3.28-1,6.4-.66,9,1.88a4.45,4.45,0,0,1,.74.93c.57.93,1.22,2.07.8,3C139.77,37.69,138.44,37.17,137.73,37.28Z"/><path class="cls-1" d="M170.93,39.81c0-1.27-.08-2.55,0-3.81.09-1-.18-1.29-1.15-1.22-.44,0-1.22.33-1.29-.42a4.43,4.43,0,0,1,.16-2.79c.27-.45,1-.24,1.48-.22s.86-.2.82-.83c0-.79,0-1.59,0-2.38,0-.52.18-.71.69-.7q2,0,4,0c.54,0,.7.22.67.71s0,1,0,1.43c0,1.75,0,1.75,1.78,1.81,1.61.06,1.68.06,1.58,1.7,0,.61.65,1.69-.85,1.73-2.52,0-2.52.09-2.51,2.57,0,1.44,0,2.87,0,4.31s.32,2,1.81,2.09c1,.07,1.26.43,1.23,1.39-.06,2.26,0,2.26-2.31,2.35a11.73,11.73,0,0,1-3.9-.47A2.88,2.88,0,0,1,171,44.35c0-.44-.1-.88-.11-1.31,0-1.08,0-2.15,0-3.23Z"/><path class="cls-2" d="M225.16,33.68c1-1.8,2.29-2.89,4.4-2.87.74,0,1,.24.94,1a23.07,23.07,0,0,0,0,2.63c.05.75-.28.92-1,1-3,.19-4.2,1.44-4.32,4.44-.09,2.1-.08,4.21-.05,6.32,0,.74-.22,1-.95.94-1.19-.05-2.39-.05-3.59,0-.76,0-.93-.25-.93-1q0-6.91,0-13.84c0-.82.28-1,1-1a24.87,24.87,0,0,0,3.23,0c1-.08,1.32.27,1.22,1.2A11.78,11.78,0,0,0,225.16,33.68Z"/><path class="cls-2" d="M118,33.62a5.72,5.72,0,0,1,3.38-2.69c1.76-.38,2-.18,2,1.55v.36a6,6,0,0,1-.14,2.23c-.35.71-1.3.2-2,.36-1.85.43-2.89,1.59-3,3.9s-.11,4.37-.09,6.55c0,.84-.14,1.24-1.11,1.13a26.56,26.56,0,0,0-3.46-.11c-.72,0-.85-.3-.84-.93,0-4.57,0-9.15,0-13.72,0-.71.16-1,.93-1a20.05,20.05,0,0,0,3.1,0c1-.08,1.4.24,1.23,1.24A8.92,8.92,0,0,0,118,33.62Z"/><path class="cls-1" d="M109.64,39.29c0,2.27,0,4.54,0,6.81,0,.7-.15,1-.92,1-1.16-.07-2.32,0-3.48,0-.57,0-.87-.11-.87-.78,0-4.7,0-9.4,0-14.1,0-.56.19-.8.76-.79,1.23,0,2.47,0,3.71,0,.66,0,.79.28.78.86C109.63,34.59,109.64,36.94,109.64,39.29Z"/><path class="cls-1" d="M161.51,39.07c0-2.23.05-4.45,0-6.68,0-.92.27-1.16,1.15-1.1,1.11.07,2.23,0,3.35,0,.57,0,.75.18.75.75q0,7.1,0,14.18c0,.62-.19.85-.82.83-1.16,0-2.31-.05-3.47,0-.74,0-1-.25-.95-1C161.53,43.76,161.51,41.41,161.51,39.07Z"/><path class="cls-3" d="M166.73,27.51A2.38,2.38,0,0,1,164,30.07a2.53,2.53,0,0,1-2.78-2.58,2.56,2.56,0,0,1,2.8-2.57A2.4,2.4,0,0,1,166.73,27.51Z"/><path class="cls-4" d="M106.88,30.07a2.55,2.55,0,0,1-2.71-2.69A2.62,2.62,0,0,1,107,24.92a2.58,2.58,0,0,1,2.76,2.65A2.54,2.54,0,0,1,106.88,30.07Z"/><path class="cls-5" d="M38.18,28.35c0-2.07,0-4.14,0-6.21,0-.75.16-1.05,1-1,3.35,0,6.7,0,10.05,0a1,1,0,0,1,1.17.87,66.79,66.79,0,0,1,2,12.34c.07,1-.17,1.31-1.21,1.29-3.91-.06-7.83-.06-11.73,0-1,0-1.27-.32-1.24-1.28C38.23,32.33,38.18,30.34,38.18,28.35Z"/><path class="cls-5" d="M38.06,46.05c0-1.95,0-3.9,0-5.85,0-.88.16-1.25,1.17-1.24,4,.07,8,0,12,0,.82,0,1.11.2,1.07,1.07a66.3,66.3,0,0,1-1.82,12.13c-.21.91-.58,1.17-1.51,1.16-3.27-.07-6.54-.06-9.81,0-.83,0-1.1-.22-1.07-1.06C38.1,50.19,38.06,48.12,38.06,46.05Z"/><path class="cls-5" d="M62.54,39c2,0,3.92,0,5.88,0,.82,0,1,.27.94,1A35.94,35.94,0,0,1,65.75,52.8a1.11,1.11,0,0,1-1.15.66c-3.39,0-6.79,0-10.18,0-.74,0-.85-.18-.67-.88a56.47,56.47,0,0,0,1.81-12.26c0-1,.36-1.43,1.47-1.36C58.86,39.07,60.71,39,62.54,39Z"/><path class="cls-5" d="M62.51,35.4c-1.91,0-3.83-.07-5.74,0-1,.06-1.18-.44-1.22-1.24a64,64,0,0,0-1.5-10.85c-.53-2.28-.51-2.28,1.86-2.28,2.8,0,5.59,0,8.38,0a1.43,1.43,0,0,1,1.5.86,35.46,35.46,0,0,1,3.56,12.54c.1.84-.22,1-1,1C66.42,35.38,64.47,35.4,62.51,35.4Z"/><path class="cls-5" d="M38.06,63.59c0-2,0-3.91,0-5.86,0-.67.2-.9.89-.89,3.07,0,6.15,0,9.22,0,.67,0,.73.21.52.77A46,46,0,0,1,41.86,70a5.52,5.52,0,0,1-3.49.63c-.41-.23-.3-.62-.3-1Q38.06,66.64,38.06,63.59Z"/><path class="cls-5" d="M48.88,17.64c-3.3,0-6.61,0-9.91,0-.59,0-.73-.25-.73-.79q0-6.15-.07-12.28c0-.63.18-.83.82-.79a4.42,4.42,0,0,1,4,2A58.54,58.54,0,0,1,48.6,16.44,2,2,0,0,1,48.88,17.64Z"/><path class="cls-5" d="M46.72,69.07A57.9,57.9,0,0,0,52.2,57.5c.15-.41.34-.66.84-.66,3.31,0,6.62,0,10.17,0A32.37,32.37,0,0,1,46.72,69.07Z"/><path class="cls-5" d="M63.25,17.71H53.14a.8.8,0,0,1-.9-.57,64.51,64.51,0,0,0-5.55-11.6A32.92,32.92,0,0,1,63.25,17.71Z"/><path class="cls-6" d="M209.06,37.19c-.48,0-.95,0-1.43,0-1.25,0-1.37-.2-.82-1.35a2.32,2.32,0,0,1,2.43-1.33,2.24,2.24,0,0,1,2.19,1.68c.23.67.14,1.08-.71,1C210.17,37.16,209.61,37.19,209.06,37.19Z"/><path class="cls-7" d="M254.57,37.28h-1.31c-1.24,0-1.35-.2-.79-1.36a2.48,2.48,0,0,1,4.74.8c.06.46-.1.57-.49.56Z"/></g></g></svg>