<?xml version="1.0" encoding="utf-8"?>
<!-- Generator: Adobe Illustrator 21.0.2, SVG Export Plug-In . SVG Version: 6.00 Build 0)  -->
<svg version="1.1" id="Layer_1" xmlns="http://www.w3.org/2000/svg" xmlns:xlink="http://www.w3.org/1999/xlink" x="0px" y="0px"
	 viewBox="0 0 320 180" style="enable-background:new 0 0 320 180;" xml:space="preserve">
<style type="text/css">
	.st0{clip-path:url(#SVGID_2_);fill:#FDFDFD;}
	.st1{clip-path:url(#SVGID_2_);fill:#42B883;}
	.st2{clip-path:url(#SVGID_2_);fill:#42B882;}
	.st3{clip-path:url(#SVGID_2_);fill:#FEFEFE;}
</style>
<g>
	<defs>
		<rect id="SVGID_1_" x="9.7" y="49.8" width="288.9" height="101.6"/>
	</defs>
	<clipPath id="SVGID_2_">
		<use xlink:href="#SVGID_1_"  style="overflow:visible;"/>
	</clipPath>
	<path class="st0" d="M15.5,38.1c96.4,0,192.7,0,289.1,0c0,34,0,67.9,0,101.9c-96.4,0-192.7,0-289.1,0C15.5,106,15.5,72.1,15.5,38.1
		z"/>
	<path class="st1" d="M64,111.8c1.1,0,2.2,0,3.4,0c0-1,0-1.9,0-2.8c-0.4-0.2-0.7-0.1-1.1-0.1c-6.3,0-12.6,0-18.9,0
		c-1,0-1.7-0.3-2.3-1.1c-0.6-0.8-1.3-1.6-1.9-2.3c-2.3-0.2-3-0.9-2.9-2.8c0.1-1.3,1.1-2.1,2.6-2.1c1.5,0,2.2,1,2.2,3.3
		c0.6,0.7,1.2,1.5,1.9,2.2c6.8,0,13.6,0,20.6,0c0.1-1.1,0.1-2.1,0-3.2c-5,0-10,0-15,0c-1.7,1.4-3,1.5-4,0.4c-1-1.1-1-2.3,0-3.4
		c1.1-1.2,2.2-1.1,3.8,0.3c5,0,10,0,15.1,0c0-1,0-2,0-3.1c-8.5,0-17,0-25.5,0c-0.9,1-1.9,2-3.1,3.3c-0.3,1.5-1.4,2.5-2.8,2.3
		c-1.3-0.2-2.2-1.5-2-3.1c0.2-1.3,1.4-2.1,3.5-1.8c0.6-0.7,1.4-1.6,2.2-2.4c0.6-0.7,1.4-1,2.4-1c8,0,15.9,0,23.9,0
		c0.4,0,0.9,0,1.4,0c0-1.2,0-2.3,0-3.4c-10.1,0-20.3,0-30.4,0c-1.7,1.4-3,1.4-4,0.1c-0.8-1-0.7-2.6,0.3-3.5c1.2-1,2.5-0.8,4,0.9
		c3.3,0,6.6,0,9.9,0c-1.8-1.7-3.7-3.5-6-5.6c-1.4-0.1-2.4-0.9-2.4-2.5c0-1.6,0.7-2.3,2.2-2.3c2,0,2.6,0.6,2.7,3.2
		c2.4,2.3,4.9,4.6,7.5,7.2c5.1,0,10.6,0,16.2,0c0-0.8,0-1.5,0-2.3c-2.3,0-4.7,0-7.1,0c-1.6,1.1-3,1.1-4-0.1c-0.8-1-0.6-2.5,0.4-3.4
		c1-0.9,2.5-0.6,3.9,0.7c2.3,0,4.5,0,6.8,0c0-0.9,0-1.7,0-2.6c-2.1,0-4.1-0.1-6.2,0c-1.2,0.1-2.1-0.3-3-1.1
		c-1.9-1.6-3.9-3.3-5.7-4.8c-3.8,0-7.4,0-11.1,0c-1.6,1.2-3,1.2-4,0c-0.9-1-0.7-2.4,0.3-3.4c1.2-1.1,2.2-0.9,4,0.7
		c3.2,0,6.5,0,9.7,0c1.4,0,2.5,0.4,3.6,1.4c1.7,1.6,3.7,3.1,5.5,4.6c2.3,0,4.5,0,6.8,0c0-1.1,0-2.1,0-3.3c-1.3,0-2.7-0.1-4,0
		c-1.2,0.1-2.1-0.3-3-1c-0.6-0.5-1.3-1-1.9-1.5c-2.5-0.2-3.4-0.9-3.3-2.5c0.1-1.3,1.1-2.3,2.4-2.3c1.5,0,2.4,0.9,2.5,2.7
		c0.8,0.6,1.6,1.3,2.4,1.9c1.6,0,3.2,0,4.9,0c0-1.3,0-2.6,0-3.9c-0.6,0-1.2,0-1.7,0c-1.8,1.4-2.9,1.5-4,0.2c-0.9-1-0.8-2.5,0.1-3.4
		c1-1,2.5-0.9,3.9,0.5c0.5,0,1,0,1.6,0c0.3-0.5,0.1-1,0.1-1.5c0-0.5,0-1,0-1.6c-2.1,0.2-4.2-0.5-6.3,0.7c-1.6,1-3.3,1.7-4.9,2.5
		c-0.4,0.2-0.8,0.2-1.3,0.2c-2.3,0-4.5,0-6.7,0c-1.7,1.5-3,1.2-4,0c-0.9-1-0.7-2.6,0.4-3.5c1.2-1,2.4-0.8,3.8,0.8c2.1,0,4.3,0,6.5,0
		c0.4,0,0.7-0.2,1.1-0.3c1.4-0.7,2.8-1.3,4.1-2.1c1.5-0.9,3.1-1.2,4.8-1.1c0.8,0.1,1.6,0,2.5,0c0.2-0.8,0.1-1.6,0.1-2.5
		c-2.1,0-4.2,0-6.3,0c-1.9,1.3-2.9,1.4-4,0.1c-0.8-1-0.7-2.6,0.2-3.4c1.1-1,2.4-0.8,3.9,0.5c2,0,4,0,6.2,0c0-0.6,0.1-1.2,0.1-2
		c12.8-0.1,23.3,4.7,30.7,15.1c9.2,12.9,9.9,26.8,2.3,40.7c-7.1,13-20.9,19.1-32.9,18.4c-0.3-0.5,0-1.1-0.2-1.7c-2.3,0-4.6,0-6.9,0
		c-1.5,1.4-2.9,1.6-4,0.5c-0.8-0.8-0.9-2.5-0.2-3.4c0.9-1.1,2.4-1.1,3.9,0c2.4,0,4.8,0,7.2,0c0.1-0.6,0.1-1.2,0-1.9
		c-1.2,0-2.4,0-3.7,0c-0.6,0-1.1-0.1-1.7-0.4c-1.5-0.9-3-1.7-4.6-2.5c-0.7-0.4-1.4-0.6-2.2-0.6c-1.5,0.1-2.9,0-4.3,0
		c-1.7,1.4-3.1,1.5-4.1,0.4c-0.9-1-0.9-2.3,0-3.3c1.1-1.2,2.3-1.1,4,0.2c1.7,0,3.4,0,5.2,0c0.6,0,1.1,0.1,1.7,0.4
		c1.2,0.7,2.6,1.3,3.7,2.1c1.2,0.8,2.5,1.1,4,1c0.7-0.1,1.3,0,2.1,0c0-1.1,0-2.1,0-3.2c-1.2,0-2.4,0-3.6,0c-1.8,1.3-2.9,1.2-4.1-0.1
		c-1.1-1.2-0.5-2.4,0.4-3.3C61.2,110.1,62.4,110.3,64,111.8z"/>
	<path class="st1" d="M134.7,86.1c-1.8,0-3.5,0-5.3,0c-0.1-0.2-0.2-0.5-0.2-0.7c-0.4-1.6-1.5-2.4-3-2.7c-1.6-0.2-2.9,0.2-3.9,1.5
		c-1.4,2-1.5,4.3-1.2,6.6c0.1,1.1,0.3,2.1,0.9,3.1c0.9,1.5,2.2,2.2,3.9,2c1.7-0.2,2.7-1.3,3.2-2.8c0.1-0.2,0.1-0.5,0.2-0.7
		c0,0,0-0.1,0.1-0.1c1.7,0,3.4,0,5.1,0c0.1,2.9-1.8,5.6-4.7,6.7c-2.3,0.9-4.8,1.1-7.2,0.6c-4.3-1-6.9-4.4-7.2-9
		c-0.1-2.3,0.1-4.6,1.2-6.7c1.9-3.6,6-5.6,10.4-4.9c2.7,0.4,5.1,1.3,6.6,3.8C134.2,83.7,134.5,84.8,134.7,86.1z"/>
	<path class="st1" d="M227.6,99.5c-2.2,0-4.3,0-6.5,0c-2.4-6.7-4.9-13.4-7.3-20.2c2,0,3.8,0,5.8,0c1.6,5.2,3.2,10.5,4.9,16.1
		c1.7-5.5,3.3-10.8,4.9-16.1c1.9,0,3.7,0,5.6,0C232.5,86,230.1,92.7,227.6,99.5z"/>
	<path class="st1" d="M249.9,93c-3.6,0-7.2,0-10.8,0c-0.1,1.7,0.7,2.9,1.9,3.3c1.6,0.4,2.7-0.1,3.6-1.8c1.6,0,3.3,0,5,0
		c-0.1,3.2-4.2,5.9-8.5,5.5c-5.7-0.5-7.6-4.7-7.3-9c0.5-5.7,5.1-8.1,9.5-7.5C248,84,250.9,88.3,249.9,93z"/>
	<path class="st1" d="M295.6,92.9c-3.6,0-7.2,0-10.8,0c0,1.8,0.8,3,2,3.3c1.6,0.4,2.7-0.1,3.6-1.8c1.7,0,3.3,0,5,0
		c-0.5,3.7-4.4,5.9-8.8,5.5c-5.1-0.6-7.8-4.5-6.9-10c0.8-4.6,5.3-7.3,10.3-6.3C293.8,84.3,296.6,88.8,295.6,92.9z"/>
	<path class="st2" d="M190.7,99.4c-1.8,0-3.5,0-5.2,0c0-0.8,0-1.5,0-2.2c-0.4,0-0.4,0.3-0.5,0.4c-1.4,2.1-3.6,2.8-6.3,2.1
		c-2.4-0.6-3.7-2.2-3.8-4.8c-0.1-3.1,0-6.2,0-9.3c0-0.6,0-1.1,0-1.8c1.8,0,3.5,0,5.2,0c0.2,0.3,0.1,0.6,0.1,1c0,2.5,0,4.9,0,7.4
		c0,0.7,0.1,1.4,0.2,2.1c0.2,1,0.7,1.8,1.8,2c1.3,0.2,2.2-0.1,2.8-1.2c0.4-0.7,0.6-1.5,0.6-2.3c0-2.6,0-5.3,0-7.9c0-0.3,0-0.7,0-1
		c1.8,0,3.5,0,5.2,0C190.7,89,190.7,94.2,190.7,99.4z"/>
	<path class="st1" d="M277.9,88.3c-1.8,0-3.4,0-5.1,0c-0.2-0.3-0.3-0.7-0.6-1c-0.4-0.5-0.9-0.7-1.5-0.6c-0.5,0.1-0.9,0.4-0.9,1
		c-0.1,0.6,0.3,1,0.8,1.3c1,0.6,2.1,0.8,3.2,1.1c0.8,0.2,1.5,0.4,2.2,0.8c1.6,0.8,2.4,2.1,2.4,4c0,1.8-0.7,3.2-2.3,4
		c-3.2,1.6-6.5,1.5-9.6-0.1c-1.6-0.8-2.4-2.2-2.6-4.1c1.8,0,3.4,0,5.2,0c0.4,0.9,0.9,1.7,1.9,1.9c0.9,0.2,1.9-0.2,2.1-0.9
		c0.2-0.9-0.4-1.4-1.1-1.7c-1.5-0.5-3-0.9-4.5-1.4c-2.4-0.9-3.5-3.1-2.8-5.5c0.4-1.3,1.2-2.2,2.4-2.8c2.4-1.1,4.9-1.3,7.4-0.4
		C276.4,84.6,277.5,86.1,277.9,88.3z"/>
	<path class="st1" d="M172.9,89.7c-1.7,0-3.3,0-5,0c-0.1-0.3-0.2-0.6-0.3-0.9c-0.4-1.2-1.1-1.8-2.3-1.9c-1.2,0-2,0.5-2.4,1.8
		c-0.7,1.9-0.6,3.9,0,5.8c0.4,1.2,1.2,1.8,2.4,1.7c1.1,0,1.8-0.6,2.3-1.7c0.1-0.2,0.2-0.5,0.3-0.8c1.7,0,3.4,0,5.1,0
		c-0.4,2.5-1.6,4.2-3.8,5.3c-2.3,1-4.7,1.2-7.1,0.4c-2.8-0.9-4.7-3.4-5-6.3c-0.3-2.9,0.2-5.6,2.4-7.8c3.5-3.2,10-2.6,12.4,1.2
		C172.5,87.5,172.8,88.5,172.9,89.7z"/>
	<path class="st2" d="M212.4,83.9c0,1.2,0,2.2,0,3.3c-1.1,0-2.2,0-3.3,0c-0.3,0.8-0.1,1.6-0.1,2.4c0,1.5,0,2.9,0,4.4
		c0,1.9,0.4,2.3,2.3,2.4c0.2,0,0.5,0,0.7,0.1c0,1.1,0,2.1,0,3.2c-2.1,0.4-4.1,0.5-6.2-0.2c-1.6-0.5-2.1-1.8-2.1-3.4
		c-0.1-2.6,0-5.1,0-7.7c0-0.4,0-0.7,0-1.2c-0.8,0-1.6,0-2.4,0c0-1.1,0-2.1,0-3.2c0.7-0.3,1.5,0,2.4-0.2c0-1.3,0-2.6,0-3.9
		c1.8,0,3.5,0,5.3,0c0,1.3,0,2.5,0,3.9C210.1,83.9,211.2,83.9,212.4,83.9z"/>
	<path class="st1" d="M145.5,99.4c0-5.2,0-10.4,0-15.6c1.7,0,3.4,0,5.2,0c0,0.9,0,1.7,0,2.6c1.1-2.2,2.8-3.4,5.4-3
		c0,1.4,0,2.9,0,4.3c-0.4,0.2-0.8,0.1-1.2,0.1c-2.4,0.1-3.5,1.2-3.9,3.5c-0.4,2-0.1,4.1-0.2,6.1c0,0.7,0,1.4,0,2.1
		C149,99.4,147.3,99.4,145.5,99.4z"/>
	<path class="st1" d="M257.9,99.5c-1.8,0-3.5,0-5.3,0c0-5.2,0-10.4,0-15.7c1.7,0,3.4,0,5.2,0c0.3,0.8,0,1.8,0.2,2.8
		c0.7-1,0.9-2.1,2-2.7c1-0.5,2.1-0.8,3.3-0.5c0,1.5,0,2.8,0,4.2c-0.4,0.3-0.8,0.1-1.2,0.2c-2.4,0.1-3.6,1.2-4,3.5
		c-0.3,1.9-0.1,3.8-0.2,5.7C257.9,97.8,257.9,98.6,257.9,99.5z"/>
	<path class="st2" d="M142.3,99.5c-1.8,0-3.5,0-5.2,0c0-5.2,0-10.4,0-15.6c1.7,0,3.4,0,5.2,0C142.3,89,142.3,94.2,142.3,99.5z"/>
	<path class="st2" d="M194.3,83.8c1.7,0,3.4,0,5.2,0c0,5.2,0,10.4,0,15.7c-1.7,0-3.4,0-5.2,0C194.3,94.3,194.3,89.1,194.3,83.8z"/>
	<path class="st1" d="M139.6,82.5c-1.7,0-2.7-1.1-2.7-2.6c0-1.5,1.1-2.5,2.8-2.5c1.6,0,2.7,1,2.7,2.6
		C142.4,81.5,141.3,82.5,139.6,82.5z"/>
	<path class="st1" d="M196.8,77.4c1.7,0,2.7,1,2.7,2.6c0,1.5-1.1,2.5-2.7,2.5c-1.7,0-2.8-1-2.8-2.6C194,78.4,195.1,77.4,196.8,77.4z
		"/>
	<path class="st3" d="M82.7,73.6c1.3,4.7,2.1,9.5,2.2,14.4c-4.7,0-9.4,0-14.1,0c0-4.8,0-9.5,0-14.4C74.7,73.6,78.7,73.6,82.7,73.6z"
		/>
	<path class="st3" d="M70.7,91.5c4.7,0,9.4,0,14.1,0c0,4.9-0.9,9.7-2.1,14.3c-4,0-8,0-12,0C70.7,101.1,70.7,96.4,70.7,91.5z"/>
	<path class="st3" d="M86.1,73.5c4,0,7.9,0,11.8,0c2.5,4.4,3.7,9.2,4.1,14.4c-4.6,0-9.1,0-13.7,0C88,83.1,87.5,78.3,86.1,73.5z"/>
	<path class="st3" d="M98,105.9c-3.9,0-7.8,0-11.8,0c1.3-4.7,1.9-9.5,2.1-14.4c4.6,0,9.1,0,13.7,0C101.7,96.6,100.4,101.4,98,105.9z
		"/>
	<path class="st3" d="M70.8,56.1c1.1,0.1,2.1,0.2,3.1,0.4c0.3,0,0.5,0.3,0.7,0.5c2.9,3.9,5.2,8.1,6.9,12.7c0,0.1,0,0.2,0.1,0.3
		c-3.6,0-7.1,0-10.7,0C70.8,65.5,70.8,60.9,70.8,56.1z"/>
	<path class="st3" d="M74.1,123c-1.2,0.1-2.2,0.4-3.4,0.2c0-4.6,0-9.2,0-13.8c3.6,0,7.1,0,10.8,0C79.8,114.4,77.3,118.9,74.1,123z"
		/>
	<path class="st3" d="M95.8,70.1c-3.7,0-7.1,0-10.7,0c-1.5-4.2-3.4-8.4-5.8-12.2C86.1,60.2,91.5,64.2,95.8,70.1z"/>
	<path class="st3" d="M79.4,121.6c2.4-3.8,4.2-7.9,5.7-12.2c3.5,0,7,0,10.7,0C91.6,115.3,86.2,119.3,79.4,121.6z"/>
	<path class="st3" d="M239.3,89.6c0.2-1.7,1.1-2.6,2.5-2.6c1.5,0,2.3,0.7,2.6,2.6C242.8,89.6,241,89.6,239.3,89.6z"/>
	<path class="st3" d="M290.1,89.7c-1.8,0-3.4,0-5.1,0c0.2-1.7,1.1-2.7,2.5-2.7C289,86.9,289.8,87.7,290.1,89.7z"/>
</g>
</svg>
