<?xml version="1.0" encoding="utf-8"?>
<!-- Generator: Adobe Illustrator 22.1.0, SVG Export Plug-In . SVG Version: 6.00 Build 0)  -->
<svg version="1.1" id="Layer_1" xmlns="http://www.w3.org/2000/svg" xmlns:xlink="http://www.w3.org/1999/xlink" x="0px" y="0px"
	 viewBox="0 0 50 50" style="enable-background:new 0 0 50 50;" xml:space="preserve">
<style type="text/css">
	.st0{fill:#FFFFFF;fill-opacity:0.8;stroke:#000000;stroke-width:3;stroke-miterlimit:10;}
	.st1{fill:none;stroke:#FF0000;stroke-miterlimit:10;}
	.st2{fill:#FF0000;}
</style>
<g>
	<path class="st0" d="M12,5c10,0,25,10,30,20c-5,10-20,20-30,20C22,25,22,25,12,5z"/>
</g>
<g>
	<g>
		<line class="st1" x1="3" y1="25.5" x2="46.8" y2="25.5"/>
		<g>
			<polygon class="st2" points="44.9,27.2 46.6,25.5 44.9,23.8 46.3,23.8 48,25.5 46.3,27.2 			"/>
		</g>
	</g>
</g>
<g>
	<g>
		<line class="st1" x1="3" y1="36" x2="46.8" y2="36"/>
		<g>
			<polygon class="st2" points="44.9,37.7 46.6,36 44.9,34.3 46.3,34.3 48,36 46.3,37.7 			"/>
		</g>
	</g>
</g>
<g>
	<g>
		<line class="st1" x1="3" y1="15" x2="46.8" y2="15"/>
		<g>
			<polygon class="st2" points="44.9,16.7 46.6,15 44.9,13.4 46.3,13.4 48,15 46.3,16.7 			"/>
		</g>
	</g>
</g>
</svg>
