<?xml version="1.0" encoding="iso-8859-1"?>
<!-- Generator: Adobe Illustrator 16.0.0, SVG Export Plug-In . SVG Version: 6.00 Build 0)  -->
<!DOCTYPE svg PUBLIC "-//W3C//DTD SVG 1.1//EN" "http://www.w3.org/Graphics/SVG/1.1/DTD/svg11.dtd">
<svg version="1.1" id="Capa_1" xmlns="http://www.w3.org/2000/svg" xmlns:xlink="http://www.w3.org/1999/xlink" x="0px" y="0px"
	 width="510px" height="510px" viewBox="0 0 510 510" style="enable-background:new 0 0 510 510;" xml:space="preserve">
<g>
	<g id="keyboard">
		<path d="M459,76.5H51c-28.05,0-51,22.95-51,51v255c0,28.05,22.95,51,51,51h408c28.05,0,51-22.95,51-51v-255
			C510,99.45,487.05,76.5,459,76.5z M229.5,153h51v51h-51V153z M229.5,229.5h51v51h-51V229.5z M153,153h51v51h-51V153z M153,229.5
			h51v51h-51V229.5z M127.5,280.5h-51v-51h51V280.5z M127.5,204h-51v-51h51V204z M357,382.5H153v-51h204V382.5z M357,280.5h-51v-51
			h51V280.5z M357,204h-51v-51h51V204z M433.5,280.5h-51v-51h51V280.5z M433.5,204h-51v-51h51V204z"/>
	</g>
</g>
<g>
</g>
<g>
</g>
<g>
</g>
<g>
</g>
<g>
</g>
<g>
</g>
<g>
</g>
<g>
</g>
<g>
</g>
<g>
</g>
<g>
</g>
<g>
</g>
<g>
</g>
<g>
</g>
<g>
</g>
</svg>
