<svg xmlns="http://www.w3.org/2000/svg" width="70" height="70"><g fill="#0A0A0A" stroke="#323232"><path d="M20.5 12.5h10v10h-10zM30.5 12.5h10v10h-10zM40.5 12.5h10v10h-10zM20.5 22.5h10v10h-10zM30.5 22.5h10v10h-10zM40.5 22.5h10v10h-10zM20.5 32.5h10v10h-10zM30.5 32.5h10v10h-10zM40.5 32.5h10v10h-10z"/></g><g fill="green"><circle cx="25.2" cy="8" r="3"/><circle cx="35.2" cy="8" r="3"/><circle cx="45.2" cy="8" r="3"/><circle cx="16" cy="17" r="3"/><circle cx="16" cy="27" r="3"/><circle cx="16" cy="37" r="3"/></g></svg>