<svg version="1.1" xmlns="http://www.w3.org/2000/svg" xmlns:xlink="http://www.w3.org/1999/xlink" width="70" height="70"><defs/><g><path fill="none" stroke="green" paint-order="fill stroke markers" d=" M 35 40 L 35 60" stroke-miterlimit="10" stroke-width="3" stroke-dasharray=""/><path fill="none" stroke="red" paint-order="fill stroke markers" d=" M 25 40 L 25 60" stroke-miterlimit="10" stroke-width="2" stroke-dasharray=""/><path fill="none" stroke="blue" paint-order="fill stroke markers" d=" M 45 40 L 45 60" stroke-miterlimit="10" stroke-width="2" stroke-dasharray=""/><path fill="rgb(227,228,229)" stroke="#d3d4d5" paint-order="stroke fill markers" d=" M 24 38 L 24 20 L 24 20 A 11 11 0 0 1 46 20 L 46 38 L 50 41 L 50 41 A 25.80697580112788 25.80697580112788 0 0 1 20 41 L 24 38" stroke-miterlimit="10" stroke-dasharray="" fill-opacity="0.8"/><path fill="green" stroke="none" paint-order="stroke fill markers" d=" M 28 60 A 3 3 0 1 1 27.999998500000125 59.9970000005 Z"/><path fill="green" stroke="none" paint-order="stroke fill markers" d=" M 38 60 A 3 3 0 1 1 37.999998500000125 59.9970000005 Z"/><path fill="green" stroke="none" paint-order="stroke fill markers" d=" M 48 60 A 3 3 0 1 1 47.999998500000125 59.9970000005 Z"/></g></svg>