<svg version="1.1" xmlns="http://www.w3.org/2000/svg" xmlns:xlink="http://www.w3.org/1999/xlink" width="170" height="170"><defs/><g><path fill="white" stroke="black" paint-order="fill stroke markers" d=" M 5.5 35.5 L 165.5 35.5 L 165.5 135.5 L 5.5 135.5 L 5.5 35.5 Z" stroke-miterlimit="10" stroke-width="3" stroke-dasharray=""/><path fill="#fafafa" stroke="black" paint-order="fill stroke markers" d=" M 50.5 50.5 L 70.5 50.5 L 70.5 66.5 L 50.5 66.5 L 50.5 50.5 Z M 70.5 50.5 L 90.5 50.5 L 90.5 66.5 L 70.5 66.5 L 70.5 50.5 Z M 90.5 50.5 L 110.5 50.5 L 110.5 66.5 L 90.5 66.5 L 90.5 50.5 Z M 110.5 50.5 L 130.5 50.5 L 130.5 66.5 L 110.5 66.5 L 110.5 50.5 Z M 50.5 66.5 L 70.5 66.5 L 70.5 82.5 L 50.5 82.5 L 50.5 66.5 Z M 70.5 66.5 L 90.5 66.5 L 90.5 82.5 L 70.5 82.5 L 70.5 66.5 Z M 90.5 66.5 L 110.5 66.5 L 110.5 82.5 L 90.5 82.5 L 90.5 66.5 Z M 110.5 66.5 L 130.5 66.5 L 130.5 82.5 L 110.5 82.5 L 110.5 66.5 Z M 50.5 82.5 L 70.5 82.5 L 70.5 98.5 L 50.5 98.5 L 50.5 82.5 Z M 70.5 82.5 L 90.5 82.5 L 90.5 98.5 L 70.5 98.5 L 70.5 82.5 Z M 90.5 82.5 L 110.5 82.5 L 110.5 98.5 L 90.5 98.5 L 90.5 82.5 Z M 110.5 82.5 L 130.5 82.5 L 130.5 98.5 L 110.5 98.5 L 110.5 82.5 Z M 50.5 98.5 L 70.5 98.5 L 70.5 114.5 L 50.5 114.5 L 50.5 98.5 Z M 70.5 98.5 L 90.5 98.5 L 90.5 114.5 L 70.5 114.5 L 70.5 98.5 Z M 90.5 98.5 L 110.5 98.5 L 110.5 114.5 L 90.5 114.5 L 90.5 98.5 Z M 110.5 98.5 L 130.5 98.5 L 130.5 114.5 L 110.5 114.5 L 110.5 98.5 Z" stroke-miterlimit="10" stroke-dasharray=""/><path fill="none" stroke="none"/><text fill="Black" stroke="none" font-family="Georgia" font-size="16px" font-style="normal" font-weight="normal" text-decoration="normal" x="20" y="90" text-anchor="end" dominant-baseline="alphabetic">A</text><text fill="Black" stroke="none" font-family="Georgia" font-size="16px" font-style="normal" font-weight="normal" text-decoration="normal" x="160" y="90" text-anchor="end" dominant-baseline="alphabetic">D</text><text fill="Black" stroke="none" font-family="Georgia" font-size="16px" font-style="normal" font-weight="normal" text-decoration="normal" x="90" y="132" text-anchor="end" dominant-baseline="alphabetic">En</text><path fill="none" stroke="none"/><text fill="Black" stroke="none" font-family="Georgia" font-size="14px" font-style="normal" font-weight="normal" text-decoration="normal" x="60" y="62" text-anchor="middle" dominant-baseline="alphabetic">00</text><text fill="Black" stroke="none" font-family="Georgia" font-size="14px" font-style="normal" font-weight="normal" text-decoration="normal" x="80" y="62" text-anchor="middle" dominant-baseline="alphabetic">00</text><text fill="Black" stroke="none" font-family="Georgia" font-size="14px" font-style="normal" font-weight="normal" text-decoration="normal" x="100" y="62" text-anchor="middle" dominant-baseline="alphabetic">00</text><text fill="Black" stroke="none" font-family="Georgia" font-size="14px" font-style="normal" font-weight="normal" text-decoration="normal" x="120" y="62" text-anchor="middle" dominant-baseline="alphabetic">00</text><text fill="Black" stroke="none" font-family="Georgia" font-size="14px" font-style="normal" font-weight="normal" text-decoration="normal" x="60" y="78" text-anchor="middle" dominant-baseline="alphabetic">00</text><text fill="Black" stroke="none" font-family="Georgia" font-size="14px" font-style="normal" font-weight="normal" text-decoration="normal" x="80" y="78" text-anchor="middle" dominant-baseline="alphabetic">00</text><text fill="Black" stroke="none" font-family="Georgia" font-size="14px" font-style="normal" font-weight="normal" text-decoration="normal" x="100" y="78" text-anchor="middle" dominant-baseline="alphabetic">00</text><text fill="Black" stroke="none" font-family="Georgia" font-size="14px" font-style="normal" font-weight="normal" text-decoration="normal" x="120" y="78" text-anchor="middle" dominant-baseline="alphabetic">00</text><text fill="Black" stroke="none" font-family="Georgia" font-size="14px" font-style="normal" font-weight="normal" text-decoration="normal" x="60" y="94" text-anchor="middle" dominant-baseline="alphabetic">00</text><text fill="Black" stroke="none" font-family="Georgia" font-size="14px" font-style="normal" font-weight="normal" text-decoration="normal" x="80" y="94" text-anchor="middle" dominant-baseline="alphabetic">00</text><text fill="Black" stroke="none" font-family="Georgia" font-size="14px" font-style="normal" font-weight="normal" text-decoration="normal" x="100" y="94" text-anchor="middle" dominant-baseline="alphabetic">00</text><text fill="Black" stroke="none" font-family="Georgia" font-size="14px" font-style="normal" font-weight="normal" text-decoration="normal" x="120" y="94" text-anchor="middle" dominant-baseline="alphabetic">00</text><text fill="Black" stroke="none" font-family="Georgia" font-size="14px" font-style="normal" font-weight="normal" text-decoration="normal" x="60" y="110" text-anchor="middle" dominant-baseline="alphabetic">00</text><text fill="Black" stroke="none" font-family="Georgia" font-size="14px" font-style="normal" font-weight="normal" text-decoration="normal" x="80" y="110" text-anchor="middle" dominant-baseline="alphabetic">00</text><text fill="Black" stroke="none" font-family="Georgia" font-size="14px" font-style="normal" font-weight="normal" text-decoration="normal" x="100" y="110" text-anchor="middle" dominant-baseline="alphabetic">00</text><text fill="Black" stroke="none" font-family="Georgia" font-size="14px" font-style="normal" font-weight="normal" text-decoration="normal" x="120" y="110" text-anchor="middle" dominant-baseline="alphabetic">00</text><path fill="none" stroke="none"/><text fill="Black" stroke="none" font-family="Georgia" font-size="14px" font-style="normal" font-weight="normal" text-decoration="normal" x="45" y="62" text-anchor="end" dominant-baseline="alphabetic">00</text><text fill="Black" stroke="none" font-family="Georgia" font-size="14px" font-style="normal" font-weight="normal" text-decoration="normal" x="45" y="78" text-anchor="end" dominant-baseline="alphabetic">04</text><text fill="Black" stroke="none" font-family="Georgia" font-size="14px" font-style="normal" font-weight="normal" text-decoration="normal" x="45" y="94" text-anchor="end" dominant-baseline="alphabetic">08</text><text fill="Black" stroke="none" font-family="Georgia" font-size="14px" font-style="normal" font-weight="normal" text-decoration="normal" x="45" y="110" text-anchor="end" dominant-baseline="alphabetic">0c</text><path fill="green" stroke="none" paint-order="stroke fill markers" d=" M 8 85 A 3 3 0 1 1 7.999998500000125 84.9970000005 Z"/><path fill="green" stroke="none" paint-order="stroke fill markers" d=" M 168 85 A 3 3 0 1 1 167.99999850000012 84.9970000005 Z"/><path fill="green" stroke="none" paint-order="stroke fill markers" d=" M 88 135 A 3 3 0 1 1 87.99999850000013 134.9970000005 Z"/></g></svg>