<svg xmlns="http://www.w3.org/2000/svg" width="110" height="110" viewBox="0 0 188 288"><g fill="#fff" fill-rule="evenodd" stroke="#f1f1f1" stroke-width=".1"><path d="M0 0h188v288H0z"/><path d="M27 26h63c0 2 1 2 2 3v1h6v-1c2 0 2-1 4-3h62v233h-63l-2-1-1-1v-1h-5v1c-2 0-2 1-3 2H27z"/><path d="M50 56h40l1 1v71h-2l-2-4c0-2-1-2-2-3l-2-4c0-2-1-2-2-3l-1-2c0-2-1-2-2-3l-3-6c0-2-1-2-2-3l-2-4c0-2-1-2-2-3l-2-4c0-2-1-2-2-3l-2-4c0-2-1-2-2-3l-2-4c0-2-1-2-2-3l-2-4c0-2-1-2-2-3l-2-4c0-2-1-2-2-3v-1zM101 56h40v3l-2 4-1 1h-1v2l-3 6-1 1h-1v2l-3 6-1 1h-1v2l-2 4-1 1h-1v2l-3 6-1 1h-1v2l-1 2-1 1h-1v2l-3 6-1 1h-1v2l-3 6-1 1h-1v2l-2 4-1 1h-1v2h-1V57zM49 67h1c0 2 1 2 2 3l2 4c0 2 1 2 2 3l2 4c0 2 1 2 2 3l2 4c0 2 1 2 2 3l2 4c0 2 1 2 2 3l2 4c0 2 1 2 2 3l2 4c0 2 1 2 2 3l2 4c0 2 1 2 2 3l2 4c0 2 1 2 2 3l2 4c0 2 1 2 2 3l1 2 1 2v1H49zM141 67h1v71h-40v-2l1-2 1-1h1v-2l3-6 1-1h1v-2l2-4 1-1h1v-2l3-6 1-1h1v-2l3-6 1-1h1v-2l2-4 1-1h1v-2l3-6 1-1h1v-2l1-2 1-1h1v-2l3-6 1-1h1zM49 148h41v2l-1 1h-1v2l-2 4-1 1h-1v2l-1 2-1 1h-1v2l-2 4-1 1h-1v2l-3 6-1 1h-1v2l-1 2-1 1h-1v2l-2 4-1 1h-1v2l-2 4-1 1h-1v2l-2 4-1 1h-1v2l-2 4-1 1h-1v2l-1 2-1 1h-1v2h-1zM101 148h41v71h-1c0-2-1-2-2-3l-1-2c0-2-1-2-2-3l-3-6c0-2-1-2-2-3l-2-4c0-2-1-2-2-3l-3-6c0-2-1-2-2-3l-1-2c0-2-1-2-2-3l-3-6c0-2-1-2-2-3l-2-4c0-2-1-2-2-3l-3-6c0-2-1-2-2-3l-1-2c0-2-1-2-2-3l-1-2zM100 157h1l1 1 1 2c0 2 1 2 2 3l2 4c0 2 1 2 2 3l2 4c0 2 1 2 2 3l2 4c0 2 1 2 2 3l3 6c0 2 1 2 2 3l2 4c0 2 1 2 2 3l2 4c0 2 1 2 2 3l2 4c0 2 1 2 2 3l3 6c0 2 1 2 2 3l2 4v2h-41zM90 158h1v71H49v-1l1-1h1v-2l2-4 1-1h1v-2l2-4 1-1h1v-2l2-4 1-1h1v-2l1-2 1-1h1v-2l2-4 1-1h1v-2l2-4 1-1h1v-2l2-4 1-1h1v-2l2-4 1-1h1v-2l1-2 1-1h1v-2l3-6z"/></g><g fill="gray" fill-rule="evenodd" stroke="#d4d4d4" stroke-width=".1"><path d="M100 17h1l1 1v1h-1l-1-1zM47 47h97c0 6 1 6 3 7l1 1v2h4v81h-8v10h8v81c-4 0-4 2-5 3l-2 1h-1v6H47c0-6-1-6-3-7l-1-1v-2h-4v-81h8v-10h-8V57c4 0 4-2 5-3l2-1h1zm95 20l-1 2-1 1h-1v2l-3 6-1 1h-1v2l-1 2-1 1h-1v2l-3 6-1 1h-1v2l-2 4-1 1h-1v2l-3 6-1 1h-1v2l-3 6-1 1h-1v2l-2 4-1 1h-1v2l-3 6-1 1h-1v2l-1 2h40zm-24 33v-2l1-1h1v-2l3-6 1-1h1v-2l2-4 1-1h1v-2l3-6 1-1h1v-2l3-6 1-1h1v-2l1-2h1v-3l-40 1h-1v73l1-2 1-1h1v-2l2-4 1-1h1v-2l3-6 1-1h1v-2l3-6 1-1h1v-2zm-27 28V57h-1l-40-1v1l-1 1h1l1 1 2 4v2h1l1 1 2 4v2h1l1 1 2 4v2h1l1 1 2 4v2h1l1 1 2 4v2h1l1 1 2 4v2h1l1 1 3 6v2h1l1 1 1 2v2h1l1 1 2 4v2h1l1 1 2 4v2zm-21-26h-1l-1-2v-2h-1l-1-1-2-4v-2h-1l-1-1-2-4v-2h-1l-1-1-2-4v-2h-1l-1-1-2-4v-2h-1l-1-1-1-2v71h41l-1-1-1-2v-2h-1l-1-1-1-2-1-2v-2h-1l-1-1-2-4v-2h-1l-1-1-2-4v-2h-1l-1-1-2-4v-2h-1l-1-1zm-21 46v71l1-2 1-1h1v-2l1-2 1-1h1v-2l2-4 1-1h1v-2l2-4 1-1h1v-2l2-4 1-1h1v-2l2-4 1-1h1v-2l1-2 1-1h1v-2l3-6 1-1h1v-2l2-4 1-1h1v-2l1-2 1-1h1v-2l2-4 1-1h1v-2zm24 39v1l-3 6-1 1h-1v2l-2 4-1 1h-1v2l-1 2-1 1h-1v2l-2 4-1 1h-1v2l-2 4-1 1h-1v2l-2 4-2 2h42v-71l-2 2h-1v2l-3 6-1 1h-1v2l-1 2-1 1h-1v2l-2 4-1 1h-1v2l-2 4zm27-30v72h41l-2-4v-2h-1l-1-1-3-6v-2h-1l-1-1-2-4v-2h-1l-1-1-2-4v-2h-1l-1-1-2-4v-2h-1l-1-1-3-6v-2h-1l-1-1-2-4v-2h-1l-1-1-2-4v-2h-1l-1-1-2-4v-2h-1l-1-1-1-2v-2h-1zm20 25h1l1 2v2h1l1 1 3 6v2h1l1 1 2 4v2h1l1 1 3 6v2h1l1 1 1 2v2h1l1 1 1 2v-71h-41l1 1v2h1l1 1 1 2v2h1l1 1 3 6v2h1l1 1 2 4v2h1l1 1 4 8zM146 241h9v10h-9zM27 259h62v1H27zm74 0h63v1h-63zM95 270h2v1h-2z"/></g><g fill="#040404" fill-rule="evenodd" stroke="#040404" stroke-width=".1"><path d="M20 19h69v7H27v234h62v7H20zM102 19h69v248h-69v-7h62V26h-62z"/></g><path d="M92 16h7l3 3v8l-2 2-2 1h-5l-1-1v-1h-2l-1-2v-7zm1 240h5l1 1v1h2l1 2v7l-3 3h-7l-3-3v-8l2-2z" fill="#089619" fill-rule="evenodd" stroke="#089619" stroke-width=".1"/><path d="M88 21h1v4h-1zm14 1h1v2h-1zM88 261h1v4h-1zm14 1h1v2h-1z" fill="#04540a" fill-rule="evenodd" stroke="#04540a" stroke-width=".1"/><path d="M94 15h4v1h-4z" fill="#c8ccc9" fill-rule="evenodd" stroke="#c8ccc9" stroke-width=".1"/><path d="M91 16h1v1l-2 2h-1v-1z" fill="#9cd4a4" fill-rule="evenodd" stroke="#9cd4a4" stroke-width=".1"/><path d="M89 267h1l2 2v1h-1l-2-2z" fill="#b0dcb8" fill-rule="evenodd" stroke="#b0dcb8" stroke-width=".1"/><path d="M91 28h1l1 1v1h-1l-1-1z" fill="#d4efd8" fill-rule="evenodd" stroke="#d4efd8" stroke-width=".1"/></svg>