<svg version="1.1" xmlns="http://www.w3.org/2000/svg" xmlns:xlink="http://www.w3.org/1999/xlink" width="56" height="56">
    <defs/>
    <g>
        <path fill="rgb(255,255,255)" stroke="black" paint-order="fill stroke markers" d=" M 5 5 L 45 5 L 45 45 L 5 45 L 5 5 Z" fill-opacity="0.8" stroke-miterlimit="10" stroke-width="3" stroke-dasharray="" />
        <path fill="none" stroke="none" />
        <text fill="green" stroke="none" font-family="Georgia" font-size="20px" font-style="normal" font-weight="normal" text-decoration="normal" x="25" y="30" text-anchor="middle" dominant-baseline="alphabetic">0</text>
        <path fill="green" stroke="none" paint-order="stroke fill markers" d=" M 8 35 A 3 3 0 1 1 7.999998500000125 34.9970000005 Z" />
        <path fill="green" stroke="none" paint-order="stroke fill markers" d=" M 8 15 A 3 3 0 1 1 7.999998500000125 14.997000000499998 Z" />
        <path fill="green" stroke="none" paint-order="stroke fill markers" d=" M 48 15 A 3 3 0 1 1 47.999998500000125 14.997000000499998 Z" />
        <path fill="green" stroke="none" paint-order="stroke fill markers" d=" M 38 45 A 3 3 0 1 1 37.999998500000125 44.9970000005 Z" />
        <path fill="green" stroke="none" paint-order="stroke fill markers" d=" M 18 45 A 3 3 0 1 1 17.999998500000125 44.9970000005 Z" />
        <path fill="green" stroke="none" paint-order="stroke fill markers" d=" M 28 45 A 3 3 0 1 1 27.999998500000125 44.9970000005 Z" />
        <path fill="green" stroke="none" paint-order="stroke fill markers" d=" M 48 35 A 3 3 0 1 1 47.999998500000125 34.9970000005 Z" />
    </g>
</svg>
