<?xml version="1.0" encoding="utf-8"?>
<!-- Svg Vector Icons : http://www.onlinewebfonts.com/icon -->
<!DOCTYPE svg PUBLIC "-//W3C//DTD SVG 1.1//EN" "http://www.w3.org/Graphics/SVG/1.1/DTD/svg11.dtd">
<svg version="1.1" xmlns="http://www.w3.org/2000/svg" xmlns:xlink="http://www.w3.org/1999/xlink" x="0px" y="0px" viewBox="0 0 1000 1000" enable-background="new 0 0 1000 1000" xml:space="preserve">
    <metadata> Svg Vector Icons : http://www.onlinewebfonts.com/icon </metadata>
    <g>
        <g>
            <g>
                <path d="M928.8,444V71.3H71.3V444C35.5,456.6,10,490.6,10,530.6c0,39.9,25.5,74.1,61.3,86.7v311.5h857.5V617.3c35.7-12.6,61.3-46.7,61.3-86.7C990,490.6,964.5,456.6,928.8,444z M867.5,444c-35.7,12.6-61.3,46.7-61.3,86.7c0,39.9,25.5,74.1,61.3,86.7v250.2h-735V617.3c35.7-12.6,61.3-46.7,61.3-86.7c0-40-25.5-74.1-61.3-86.7V132.5h735V444z" />
                <polygon points="316.3,316.3 438.8,316.3 438.8,683.8 377.5,683.8 377.5,745 622.5,745 622.5,683.8 561.3,683.8 561.3,316.3 683.8,316.3 683.8,377.5 745,377.5 745,316.3 745,255 255,255 255,316.3 255,377.5 316.3,377.5 " />
            </g>
        </g>
        <g></g>
        <g></g>
        <g></g>
        <g></g>
        <g></g>
        <g></g>
        <g></g>
        <g></g>
        <g></g>
        <g></g>
        <g></g>
        <g></g>
        <g></g>
        <g></g>
        <g></g>
    </g>
</svg>