<svg xmlns="http://www.w3.org/2000/svg" width="56" height="56"><path fill="#FFF" stroke="#000" paint-order="fill stroke markers" d="M5 5h40v40H5V5z" fill-opacity=".8" stroke-miterlimit="10" stroke-width="3"/><path fill="none" stroke="#000" paint-order="fill stroke markers" d="M5 30l5 5-5 5" stroke-miterlimit="10" stroke-width="3"/><text fill="green" font-family="Georgia" font-size="20" text-decoration="normal" x="25" y="30" text-anchor="middle" dominant-baseline="alphabetic">0</text><path fill="green" paint-order="stroke fill markers" d="M8 35a3 3 0 110-.003zM8 15a3 3 0 110-.003zM48 15a3 3 0 110-.003zM38 45a3 3 0 110-.003zM18 45a3 3 0 110-.003zM28 45a3 3 0 110-.003zM48 35a3 3 0 110-.003z"/></svg>