<svg version="1.1" xmlns="http://www.w3.org/2000/svg" xmlns:xlink="http://www.w3.org/1999/xlink" width="58" height="58"><defs/><g><path fill="rgb(255,255,255)" stroke="rgb(0,0,0)" paint-order="fill stroke markers" d=" M 15 9 C 25 9 40 19 45 29 C 40 39 25 49 15 49 C 25 29 25 29 15 9 Z" fill-opacity="0.8" stroke-opacity="1" stroke-miterlimit="10" stroke-width="3" stroke-dasharray=""/><path fill="none" stroke="rgb(0,0,0)" paint-order="fill stroke markers" d=" M 4.694631307311823 8.774575140626311 A 25 25 0 0 1 4.694631307311829 49.22542485937369" stroke-opacity="1" stroke-miterlimit="10" stroke-width="3" stroke-dasharray=""/><path fill="none" stroke="rgb(0,0,0)" paint-order="fill stroke markers" d=" M 55 29 A 5 5 0 1 1 54.999997500000205 28.99500000083333" stroke-opacity="1" stroke-miterlimit="10" stroke-width="3" stroke-dasharray=""/><path fill="green" stroke="none" paint-order="stroke fill markers" d=" M 8 19 A 3 3 0 1 1 7.999998500000125 18.997000000499998 Z"/><path fill="green" stroke="none" paint-order="stroke fill markers" d=" M 8 39 A 3 3 0 1 1 7.999998500000125 38.9970000005 Z"/><path fill="green" stroke="none" paint-order="stroke fill markers" d=" M 58 29 A 3 3 0 1 1 57.999998500000125 28.997000000499998 Z"/></g></svg>
