<?xml version="1.0" standalone="no"?>
<!DOCTYPE svg PUBLIC "-//W3C//DTD SVG 20010904//EN"
 "http://www.w3.org/TR/2001/REC-SVG-20010904/DTD/svg10.dtd">
<svg version="1.0" xmlns="http://www.w3.org/2000/svg"
 width="1280.000000pt" height="1280.000000pt" viewBox="0 0 1280.000000 1280.000000"
 preserveAspectRatio="xMidYMid meet">
<metadata>
Created by potrace 1.16, written by Peter Selinger 2001-2019
</metadata>
<g transform="translate(0.000000,1280.000000) scale(0.100000,-0.100000)"
fill="#000000" stroke="none">
<path d="M5995 12794 c-554 -43 -1003 -125 -1479 -271 -877 -268 -1689 -727
-2381 -1345 -1119 -1000 -1851 -2356 -2069 -3833 -53 -362 -61 -479 -61 -945
0 -466 8 -583 61 -945 177 -1196 679 -2296 1479 -3235 146 -170 558 -578 734
-724 1017 -847 2172 -1332 3506 -1473 214 -22 974 -26 1175 -5 826 85 1502
269 2202 601 1002 474 1903 1249 2540 2186 634 932 1007 2016 1088 3155 13
187 13 693 0 880 -93 1317 -574 2547 -1398 3575 -259 323 -653 717 -982 981
-900 723 -1993 1194 -3130 1349 -303 41 -405 47 -820 50 -228 1 -437 1 -465
-1z m113 -2681 c15 -11 36 -35 47 -54 20 -33 20 -57 25 -1362 l5 -1328 1737
1370 c956 754 1751 1377 1767 1386 71 36 159 9 208 -64 l23 -34 0 -3627 0
-3627 -22 -33 c-40 -58 -72 -75 -142 -75 -60 0 -64 2 -137 57 -41 32 -830 655
-1754 1384 l-1680 1326 -5 -1329 c-5 -1305 -5 -1329 -25 -1362 -31 -53 -67
-74 -132 -79 -49 -3 -64 0 -93 20 -109 75 -4560 3595 -4582 3624 -37 49 -44
102 -20 156 17 39 241 218 2300 1843 1255 990 2297 1808 2315 1818 42 24 127
19 165 -10z"/>
</g>
</svg>
