<?xml version="1.0" encoding="iso-8859-1"?>
<!-- Generator: Adobe Illustrator 18.1.1, SVG Export Plug-In . SVG Version: 6.00 Build 0)  -->
<svg version="1.1" id="Capa_1" xmlns="http://www.w3.org/2000/svg" xmlns:xlink="http://www.w3.org/1999/xlink" x="0px" y="0px"
	 viewBox="0 0 27.495 27.495" style="enable-background:new 0 0 27.495 27.495;" xml:space="preserve">
<g>
	<g id="c195_rewind">
		<path d="M13.747,0C6.155,0,0.001,6.156,0.001,13.748c0,7.593,6.154,13.747,13.746,13.747s13.746-6.154,13.746-13.747
			C27.493,6.156,21.339,0,13.747,0z M14.8,21.725c-0.068,0.051-0.148,0.077-0.227,0.077l-0.159-0.036
			c-0.122-0.06-0.203-0.187-0.203-0.326v-5.596l-7.454,5.881c-0.066,0.051-0.146,0.077-0.224,0.077l-0.159-0.036
			c-0.125-0.06-0.205-0.187-0.205-0.326V6.059c0-0.141,0.08-0.267,0.205-0.326c0.127-0.065,0.272-0.045,0.383,0.038l7.454,5.878
			v-5.59c0-0.141,0.081-0.267,0.203-0.326c0.126-0.064,0.274-0.045,0.386,0.039l9.75,7.691c0.086,0.069,0.137,0.176,0.137,0.283
			c0,0.108-0.051,0.217-0.137,0.286L14.8,21.725z"/>
	</g>
	<g id="Capa_1_208_">
	</g>
</g>
<g>
</g>
<g>
</g>
<g>
</g>
<g>
</g>
<g>
</g>
<g>
</g>
<g>
</g>
<g>
</g>
<g>
</g>
<g>
</g>
<g>
</g>
<g>
</g>
<g>
</g>
<g>
</g>
<g>
</g>
</svg>
