<?xml version="1.0" encoding="iso-8859-1"?>
<!-- Generator: Adobe Illustrator 16.0.0, SVG Export Plug-In . SVG Version: 6.00 Build 0)  -->
<!DOCTYPE svg PUBLIC "-//W3C//DTD SVG 1.1//EN" "http://www.w3.org/Graphics/SVG/1.1/DTD/svg11.dtd">
<svg version="1.1" id="Capa_1" xmlns="http://www.w3.org/2000/svg" xmlns:xlink="http://www.w3.org/1999/xlink" x="0px" y="0px"
	 width="45.812px" height="45.812px" viewBox="0 0 45.812 45.812" style="enable-background:new 0 0 45.812 45.812;"
	 xml:space="preserve">
<g>
	<g>
		<g>
			<path d="M39.104,6.708c-8.946-8.943-23.449-8.946-32.395,0c-8.946,8.944-8.946,23.447,0,32.394
				c8.944,8.946,23.449,8.946,32.395,0C48.047,30.156,48.047,15.653,39.104,6.708z M20.051,31.704c0,1.459-1.183,2.64-2.641,2.64
				s-2.64-1.181-2.64-2.64V14.108c0-1.457,1.182-2.64,2.64-2.64s2.641,1.183,2.641,2.64V31.704z M31.041,31.704
				c0,1.459-1.183,2.64-2.64,2.64s-2.64-1.181-2.64-2.64V14.108c0-1.457,1.183-2.64,2.64-2.64s2.64,1.183,2.64,2.64V31.704z"/>
		</g>
	</g>
</g>
<g>
</g>
<g>
</g>
<g>
</g>
<g>
</g>
<g>
</g>
<g>
</g>
<g>
</g>
<g>
</g>
<g>
</g>
<g>
</g>
<g>
</g>
<g>
</g>
<g>
</g>
<g>
</g>
<g>
</g>
</svg>
